<svg id="Layer_1" data-name="Layer 1" xmlns="http://www.w3.org/2000/svg" xmlns:xlink="http://www.w3.org/1999/xlink" viewBox="0 0 57 57">
    <defs>
        <style>
            .twtr-cls-1 {
                fill: none;
            }

            .twtr-cls-2 {
                clip-path: url(#clip-path);
            }

            .twtr-cls-3 {
                fill: currentColor;
            }
        </style>
        <clipPath id="clip-path" transform="translate(0 0)">
            <rect class="twtr-cls-1" width="57" height="57" />
        </clipPath>
    </defs>
    <title>twitter</title>
    <g class="twtr-cls-2">
        <path class="twtr-cls-3" d="M39.83,22.69c0,0.25,0,.5,0,0.75,0,7.73-5.88,16.64-16.64,16.64a16.55,16.55,0,0,1-9-2.63,12.38,12.38,0,0,0,1.4.08A11.72,11.72,0,0,0,22.91,35,5.86,5.86,0,0,1,17.45,31a6,6,0,0,0,1.1.1,5.89,5.89,0,0,0,1.54-.2,5.86,5.86,0,0,1-4.69-5.73V25.07A5.82,5.82,0,0,0,18,25.8,5.85,5.85,0,0,1,16.23,18,16.59,16.59,0,0,0,28.29,24.1a5.85,5.85,0,0,1,10-5.33A11.66,11.66,0,0,0,42,17.35a5.87,5.87,0,0,1-2.57,3.24,11.65,11.65,0,0,0,3.36-.92,11.84,11.84,0,0,1-2.92,3M28.5,0A28.5,28.5,0,1,0,57,28.5,28.5,28.5,0,0,0,28.5,0"
        transform="translate(0 0)" />
    </g>
</svg>
