<svg xmlns="http://www.w3.org/2000/svg" viewBox="0 0 758.3382 758.20002"><path d="M542.668 516.5c-20.9-15.8-42.4-30.8-60.9-49.4-30.7-30.7-52.6-76.9-37-117.4 7.3-18.8 22-39.5 11.4-56.6-5-8-13.4-11.4-22.8-11.9-10.2-.5-21.5 2.5-30.8 6.9-33.7 15.8-62.5 41.6-97.6 53.8-35.1 12.2-82.5 4.4-96.5-30.1-1.2-2.9-2.2-5.7-3.1-8.5-12.4-36.9-7.4-66.2-61.3-63.9-42.4 1.8-84.2 13.1-121.8 32.4h-.1c-1.2.5-2.4 1-3.6 1.6 5.7-19.3 12.9-38.1 21.5-56 77.7-61.4 184.6-95.9 283.5-94.2 9.6.2 19.5.8 27.8 5.5 8.3 4.8 14.2 15 11.1 24-1.6 4.6-5.4 8.7-5.3 13.6.2 9.3 12.6 12.2 21.9 11.8 35.5-1.6 71.7-9.1 106 .2 29.8 8.1 57.4 35.3 57.2 64.6 0 4.4-.7 8.8-2 13.2-1.9 6.1-5 12-4.4 18.3.9 9.4 10 16.2 19.3 17.9 9.3 1.7 18.7-.6 28-2.4 9.2-1.8 18.6-3.2 28-3.9 19.7-1.5 39.4.1 57.5 7.6 49.9 20.7 80.8 76.2 82.8 105l3 .2c-1.8 34.7-8.3 68.3-18.9 100.1-8.9-31.5-23.5-61.4-43.1-87.6-7.1-9.5-18.2-19.5-29.2-15.3-3.5 1.3-6.1 3.8-8.1 6.8-3.9 5.7-5.8 13.6-8.5 20.3-17.4 43.4-82.6 49.7-102.5 92l-1.5 1.4z" fill="#3f5165"/><path d="M572.868 206.3c.3 12.1-7.8 24.7-7.8 36.8l-22.7-.4c.3-29.3-27.3-56.5-57.2-64.6-34.3-9.3-70.5-1.8-106-.2-9.3.4-21.8-2.4-21.9-11.8-.1-4.9 3.7-8.9 5.3-13.6 3.1-9-2.8-19.2-11.1-24-8.3-4.8-18.3-5.4-27.8-5.5-98.9-1.7-205.8 32.9-283.5 94.2 31.3-65.4 81-120.6 142.9-158.5 64-15.5 131.2-18.8 186.8 7.4 22 10.4 25.2 23.6 22.1 46.5-1.1 7.7-.1 17 6.5 21 4 2.5 9 2.3 13.7 2.1 26-1.3 52.7-4.2 78.7-1.2s53.8 16.6 69.4 38.1c6.9 9.7 12.3 21.5 12.6 33.7z" fill="#cbc480"/><path d="M716.368 269.2c-31.2-26.5-69.5-10.6-107.1-4.8-4 .6-8 1.1-12 1.4-12.2 1-26.6-3.2-31-14.7-1-2.6-1.4-5.3-1.4-8 0-12.1 8.1-24.7 7.8-36.8-.3-12.2-5.6-24-12.7-33.7-15.6-21.4-43.4-35-69.4-38.1-26-3.1-52.7-.1-78.7 1.2-4.7.2-9.7.4-13.7-2.1-6.6-4.1-7.6-13.3-6.5-21 3.1-22.8-.1-36.1-22.1-46.5-55.4-26.2-122.6-22.9-186.6-7.3 51.6-31.6 111.5-51.2 176.1-54.7 26.9-1.4 53.3 0 78.9 4 7.4 4.9 12.2 12.9 14.9 23 4 15.5-11.4 39.2 1.8 52.5 5 5.1 12.9 5.5 20 5.9 32.8 1.7 72.7 6.2 99.5 27 22.4 17.4 46.8 48.7 42.6 76.8-1.2 7.8-3.4 16.4.8 23.1 8.1 12.8 27.4 4.9 41.5-.5 21.6-8.2 42.5-6.9 59.9 3 15.1 32 25.8 66.6 31.4 102.9-6.8-19.5-20.7-41.3-34-52.6z" fill="#d9d5a5"/><path d="M464.368 671.7c56.1-10.4 115.7-22.4 175.3-21.9-62.5 60.2-146 99.1-239.3 104.4-17.2-20.9-28.2-45-31.4-69.9 31.4-2.5 63-6.6 95.4-12.6z" fill="#57768e"/><path d="M555.068 292.1c-9.3-1.7-18.4-8.5-19.3-17.9-.6-6.3 2.5-12.3 4.4-18.3 1.4-4.4 2-8.8 2-13.2l22.7.4c0 2.7.4 5.4 1.4 8 4.3 11.5 18.7 15.7 31 14.7 4-.3 8-.8 12-1.4l1.7 21.4c-9.4.7-18.8 2.1-28 3.9-9.1 1.8-18.6 4.1-27.9 2.4z" fill="#cbc480"/><path d="M464.368 671.7c-32.3 6-63.9 10.1-95.4 12.6-.7-5.3-1-10.7-1-16 .1-10.3 1.5-20.5 4.2-30.6 28.7-2.6 57.6-6.6 86.8-12 52.5-9.7 108-20.9 163.8-21.8 7.6 14.1 13.8 29.1 18.4 44.5-.5.5-1.1 1-1.6 1.5-59.6-.6-119.1 11.4-175.2 21.8z" fill="#57768e"/><path d="M754.268 359.1c.7 13.3.7 26.4.1 39.4l-3-.2c-2.1-28.8-33-84.3-82.8-105-18.1-7.5-37.8-9.1-57.5-7.6l-1.7-21.4c37.5-5.8 75.8-21.7 107.1 4.8 13.2 11.2 27.2 33 34.1 52.7 1.8 12.3 3.1 24.7 3.7 37.3z" fill="#cbc480"/><path d="M692.268 411c19.6 26.2 34.2 56.1 43.1 87.6-6.2 18.5-13.8 36.4-22.7 53.5l-5-.6c-43.2-10.5-87.2-11-130.6-6.9-3.8-3.6-7.8-7-11.8-10.4 26.6-8 53.2-18 74.5-35.8 21.4-17.9 36.7-44.9 34.3-72.7-.9-9.9-5.8-21.3-15.7-22.7l-3.4-.6c2-3 4.6-5.4 8.1-6.8 11.1-4.1 22.2 5.9 29.2 15.4z" fill="#ade1ef"/><path d="M707.668 551.5l5 .6c-4.3 8.4-9 16.5-13.9 24.5-32.5-6.7-65.3-8-97.9-6.2-5.7-7.3-11.9-14.2-18.5-20.7-1.7-1.7-3.5-3.4-5.3-5.1 43.4-4.1 87.3-3.6 130.6 6.9z" fill="#519ea4"/><path d="M719.068 219c-17.4-9.9-38.3-11.3-59.9-3-14.2 5.4-33.5 13.3-41.5.5-4.2-6.7-2-15.3-.8-23.1 4.2-28.1-20.2-59.4-42.6-76.8-26.8-20.8-66.7-25.3-99.5-27-7.1-.4-15-.8-20-5.9-13.2-13.3 2.2-37-1.8-52.5-2.6-10.1-7.5-18.1-14.9-23 123.7 19.4 228.6 99.8 281 210.8z" fill="#3f5165"/><path d="M698.768 576.6c-6.4 10.3-13.3 20.4-20.6 30-18.4-2.3-36.9-3.1-55.3-2.8-6.3-11.8-13.7-23-21.9-33.5 32.5-1.7 65.3-.4 97.8 6.3z" fill="#519ea4"/><path d="M674.068 425.8c2.4 27.7-12.9 54.8-34.3 72.7-21.3 17.8-47.9 27.8-74.5 35.8-7.3-6.2-14.9-12-22.6-17.8l1.2-1.7c19.9-42.3 85.2-48.6 102.5-92 2.7-6.7 4.6-14.6 8.5-20.3l3.4.6c10 1.4 14.9 12.8 15.8 22.7z" fill="#fff"/><path d="M678.168 606.7c-11.2 14.8-23.6 28.7-36.9 41.7-4.6-15.4-10.8-30.3-18.4-44.5 18.4-.4 36.9.4 55.3 2.8z" fill="#519ea4"/><path d="M641.268 648.3c.1.5.3 1 .5 1.6h-2c.4-.5 1-1.1 1.5-1.6z" fill="#6888b7"/><path d="M134.868 574.1c2.6 9.2 4.5 18.5 5.9 27.8 1.6 11.3 2.4 22.6 2.1 33.9-13.8-1.2-27.8-2.6-41.9-4.1-51-56.1-85.3-127.8-94.8-207.8 23.8-19.7 49.9-40.2 67.7-65.5 11.2-15.9 39.6-61 33-81.7-8.7-27.4-57.2-16.3-84.6-5 37.6-19.2 79.4-30.6 121.8-32.4 53.8-2.2 48.9 27.1 61.3 63.9 2.4 14.5 10.1 27.7 19.4 39.1 29.2 35.6 72.2 56.5 118 51.7 57.5-6 129.6-103.9 90.6-112.8 9.4.5 17.8 3.9 22.8 11.9 10.6 17.1-4.2 37.9-11.4 56.6-15.7 40.5 6.3 86.6 37 117.4 18.5 18.5 40 33.6 60.9 49.4 7.7 5.8 15.3 11.6 22.6 17.8 4 3.3 8 6.8 11.8 10.4 1.8 1.7 3.5 3.3 5.3 5.1 6.6 6.5 12.8 13.5 18.5 20.7 8.3 10.5 15.6 21.7 21.9 33.5-55.8 1-111.3 12.1-163.8 21.8-29.2 5.4-58.1 9.4-86.8 12 4.1-15.6 11.2-30.9 20.9-45 35.5-51.8 29.4-63.3-28.2-105.6-47.6-35-243.5-139.7-266.4-29.9-1.6 7.9-1.6 15.7-.3 23.5 2.4 14.9 9.2 29.6 16.6 43.5 8.7 16.1 15.4 32.8 20.1 49.8z" fill="#ade1ef"/><path d="M433.468 281.2c39 8.9-33.1 106.8-90.6 112.8-45.8 4.8-88.8-16.1-118-51.7-9.3-11.4-17-24.6-19.4-39.1.9 2.8 2 5.6 3.1 8.5 14 34.5 61.4 42.3 96.5 30.1 35.1-12.2 63.9-38 97.6-53.8 9.2-4.3 20.6-7.3 30.8-6.8z" fill="#fff"/><path d="M400.368 754.2c-.4 0-.7 0-1.1.1-59.8 3.2-117.1-7.8-168.6-30 4.1-12.9 9.5-25.6 15.9-37.7 41.3 1.6 81.7 1 122.5-2.2 3.1 24.8 14 48.9 31.3 69.8z" fill="#57768e"/><path d="M364.868 487c57.6 42.3 63.6 53.8 28.2 105.6-9.7 14.2-16.8 29.4-20.9 45-33.1 3.1-66 4.4-99.2 4.4 6.6-11.2 12.6-22.6 17.3-34.2 3.8-9.2 6.7-18.5 8.4-27.8 4.7-25.4.1-50.4-21.7-73.3-26.9-28.2-126.5-82-178.8-26.2-1.3-7.8-1.3-15.7.3-23.5 23-109.7 218.8-4.9 266.4 30z" fill="#6888b7"/><path d="M372.168 637.7c-2.7 10.1-4.1 20.4-4.2 30.6 0 5.4.3 10.7 1 16-40.7 3.3-81.1 3.8-122.5 2.2 4.7-9 9.8-17.8 15.2-26.3 3.8-6 7.6-12.1 11.2-18.3 33.3.2 66.2-1.2 99.3-4.2z" fill="#57768e"/><path d="M276.968 506.8c21.8 22.9 26.4 47.9 21.7 73.3h-.1c-53.7 1.4-107.8-1-163.8-6.1-4.7-16.9-11.4-33.7-20-49.9-7.4-13.9-14.2-28.6-16.6-43.5 52.3-55.8 151.9-1.9 178.8 26.2z" fill="#3f5165"/><path d="M298.568 580.1c-1.6 9.3-4.6 18.6-8.3 27.8l-.2-.1c-49 .9-98.4-1.4-149.3-5.9-1.3-9.3-3.3-18.6-5.9-27.8 56 5 110 7.5 163.7 6z" fill="#519ea4"/><path d="M290.068 607.8l.2.1c-4.7 11.5-10.7 23-17.3 34.2-42.7 0-85.7-2.3-130.1-6.3.2-11.3-.5-22.6-2.1-33.9 50.9 4.5 100.2 6.8 149.3 5.9z" fill="#519ea4"/><path d="M272.968 642.1c-3.6 6.2-7.4 12.3-11.2 18.3-5.4 8.5-10.6 17.2-15.2 26.3-30.2-1.1-60.8-3.4-92.4-6.6-5-3.7-9.8-7.5-14.6-11.5 2-10.8 3.1-21.7 3.3-32.7 44.4 3.8 87.5 6.2 130.1 6.2z" fill="#519ea4"/><path d="M246.468 686.6c-6.3 12.2-11.8 24.8-15.9 37.7-27.3-11.8-53-26.7-76.5-44.3 31.6 3.2 62.3 5.5 92.4 6.6zm-103.6-50.8c-.2 11-1.3 21.9-3.3 32.7-13.7-11.4-26.6-23.7-38.6-36.9 14.1 1.6 28.1 3 41.9 4.2z" fill="#519ea4"/><path d="M106.968 276.7c6.6 20.7-21.8 65.8-33 81.7-17.8 25.3-43.9 45.8-67.7 65.5-1-8.1-1.7-16.3-2.1-24.6-2.3-43.6 2.9-85.9 14.5-125.6 1.2-.7 2.5-1.3 3.7-1.9h.1c27.3-11.5 75.7-22.5 84.5 4.9z" fill="#fff"/><path d="M22.268 271.7c-1.2.6-2.5 1.3-3.7 1.9 0-.1.1-.2.1-.4 1.1-.5 2.3-1 3.6-1.5z" fill="#6888b7"/><path d="M757.768 359c-.4-7-.9-13.9-1.7-20.8-.6-5.7-1.3-11.3-2.2-16.9-4.9-32.2-13.9-63-26.3-91.9-1.9-4.3-3.8-8.6-5.8-12.9-52.8-111.1-157.7-191.9-282.4-211.8-6.6-1.1-13.3-1.9-20-2.6-13.1-1.4-26.4-2.1-39.9-2.1-6.8 0-13.7.2-20.6.5-51.1 2.8-100.1 15.5-145.7 37.7-10.8 5.3-21.4 11.1-31.6 17.3-6.3 3.9-12.6 7.9-18.6 12.2-24 16.7-46 36.1-65.8 58.1-32.9 36.6-58 78.6-74.7 124.7-2.4 6.7-4.7 13.5-6.7 20.3 0 .1-.1.3-.1.4-.9 2.9-1.7 5.7-2.5 8.6-.1.3-.2.6-.2.8-10.4 38.6-14.6 78.4-12.4 118.8.4 7.7 1.1 15.3 1.9 22.9.3 2.7.7 5.5 1 8.2 10.1 74.8 41.9 142.5 88.7 196.6l6.9 7.8c11.4 12.5 23.6 24.1 36.5 35 2 1.7 4 3.4 6.1 5 .1.1.3.2.4.3 3.5 2.8 7 5.5 10.5 8.1 22.7 16.9 47.4 31.4 73.6 42.9 2.1.9 4.3 1.9 6.5 2.8 45 18.8 94.4 29.2 146 29.2 6.6 0 13.3-.2 19.9-.5h.7c2.7-.1 5.4-.3 8.1-.5 48.2-3.6 94.5-16 137.7-37.1 34.7-16.9 66.3-38.8 94.3-65.3.6-.5 1.1-1 1.7-1.6 1.4-1.3 2.7-2.6 4.1-4 1-1 2-1.9 2.9-2.9 4.5-4.5 8.8-9.1 13.1-13.9 6.5-7.2 12.6-14.6 18.5-22.2 1.6-2.1 3.3-4.3 4.8-6.4 5.6-7.6 10.9-15.4 15.9-23.4l3.9-6.3c12.1-20.1 22.3-41.4 30.5-63.6.3-.9.7-1.8 1-2.7 1.1-3 2.1-6 3.2-9.1 15.1-44.9 21.4-91.9 18.8-139.7zm-257.2-263.9c25.5 3 52.3 9.3 71.5 24.2 8.8 6.8 16.1 14.1 22 21.4l-33.3 27c-15.6-19.4-41.9-33.3-69.6-36.6-6.9-.8-13.9-1.2-20.9-1.3l31.4-33.6-1.1-1.1zm109.9 74.6l-35.6 25.7c-2.1-8.7-6.1-16.4-10-22.2l33.4-27.1c5.7 8.2 9.7 16.2 12.2 23.6zm-120.1-31.7c26.7 3.1 53 17.5 67 36.7 5.9 8.2 9.8 16.9 11.3 25.3l-27.8 20c-.8-1.7-1.6-3.4-2.5-5.1-10.4-18.9-30.4-34.3-52.3-40.2-17.6-4.8-35.8-5.2-53.9-4.3l31.5-33.7c9 0 17.9.3 26.7 1.3zm51.6 123.6c.6-1.5 1.1-3.1 1.6-4.7 3-9.8 2.9-20-.2-30.1l25.9-18.7c-.2 5-1.9 10.3-3.7 15.8-3 9.2-6.1 18.8-2.5 28.4 4.9 13.2 20.9 18.1 34.5 17 11.5-.9 23.2-3.3 34.5-5.7 29.9-6.2 58.2-12 82 8.2 13 11 26.4 32.4 33 51.1 1.8 11.9 3.1 24.1 3.7 36.4.2 4.5.4 9 .5 13.5-4.5-10.5-11.2-21.6-18.5-32-11.6-16.4-33.6-38.5-62.9-50.7-23.4-9.7-51.2-10.9-87.5-3.8l-2.6.5c-8 1.6-16.3 3.3-24.1 1.9-7.6-1.4-15.7-6.9-16.4-14.8-.3-3.9 1.2-8 2.7-12.3zm199.9 34c-6.8-11.5-15-22.1-23.2-29-26.4-22.4-57.7-16-87.9-9.8-11.1 2.3-22.6 4.7-33.7 5.5-10.6.9-23.7-2.7-27.4-12.4-2.7-7.3-.2-15.3 2.6-23.8 2.1-6.5 4.2-13.1 4.1-19.9 0-1-.1-2-.2-3l36.3-26.2c1.3 5.9 1.5 11.3.9 15.8-.2 1-.3 2.1-.5 3.1-1.2 7.3-2.5 15.5 1.8 22.4 9.3 14.9 29.6 7.1 44.4 1.5l1.4-.5c20.1-7.7 39.6-6.6 56 2.4 10.9 23.3 19.5 48.1 25.4 73.9zm-30.4-84.1c-16.2-6.3-34.7-6.1-53.6 1.2l-1.4.5c-16.2 6.2-30.2 10.6-36 1.4-2.9-4.7-1.9-10.9-.8-17.5.2-1.1.4-2.2.5-3.2 4.2-28.5-19-60.8-43.9-80.1-27.3-21.2-66.6-25.9-101.4-27.7-6.7-.4-13.6-.7-17.7-4.8-6.6-6.6-4.5-16.9-2.3-27.9 1.6-7.9 3.2-16 1.4-23-1.7-6.6-4.3-12.2-7.7-16.8 114.9 21.5 211.5 96.1 262.9 197.9zm-495.3-167c44.8-21.8 92.9-34.3 143.1-36.9 6.7-.4 13.5-.5 20.2-.5 19.5 0 38.6 1.5 57.2 4.4 6.1 4.3 10.4 11.2 12.8 20.6 1.4 5.4 0 12.5-1.5 19.9-2.3 11.7-5 24.9 4.2 34.2 6 6 15 6.5 22.3 6.9 6.2.3 12.6.8 19.2 1.4l-33.1 35.4c-10.8.2-21.5.8-32.1 1.5-5.5.3-11.1.7-16.7 1-4.6.2-8.7.3-11.7-1.6-6.2-3.8-5.3-14.4-4.9-17.6 3.2-23 .3-38.6-24-50.1-43.1-20.4-97-25-160.2-13.8-2.2.4-4.4.8-6.5 1.2 3.9-2.1 7.8-4.1 11.7-6zm-113.8 86c24.1-26.8 51.6-49.8 82-68.4 9.5-2.3 18.8-4.3 28-5.9 61.7-11 114.2-6.6 156 13.2 20.7 9.8 23 21.6 20.1 42.8-1.6 11.4 1.4 20.4 8.1 24.5 5.1 3.1 11.2 2.8 15.7 2.6 5.6-.3 11.2-.6 16.7-1 8.2-.5 16.6-1 25-1.3l-32 34.2c-5.1.4-10.2.8-15.2 1.3-9.1.8-18.6 1.6-27.8 2-6.9.3-13.4-1.3-16.4-4.1-1.3-1.2-1.9-2.5-1.9-4.2 0-2.2 1.2-4.4 2.5-6.9.9-1.7 1.9-3.5 2.6-5.4 3.9-11.3-3.6-23-12.7-28.2-9.1-5.2-19.6-5.8-29.5-6-96.2-1.6-197.9 31.3-275.1 88.6 14.6-28.1 32.5-54.1 53.9-77.8zM21.468 276c.6-.3 1.2-.6 1.9-1 6.7-2.8 14.9-5.6 23.6-7.9 18.4-4.7 34.1-5.4 44.1-1.8 6.6 2.4 10.7 6.4 12.5 12.3 2.5 7.9-.8 21.8-9.7 40.1-8.7 18-19.7 34.1-22.9 38.6-16 22.8-38.9 41.6-61 59.7-.4.3-.7.6-1.1.9-.6-5.9-1.1-11.9-1.4-18-2.2-41.8 2.5-83.1 14-122.9zm-11.6 149.3c1.5-1.3 3.1-2.5 4.6-3.8 22.5-18.5 45.7-37.6 62.2-61.1 3.2-4.6 14.5-21.1 23.5-39.6 9.8-20.2 13.2-35.4 10-45.2-2.6-8-8.2-13.7-16.8-16.8-7.2-2.6-15.8-3.2-24.9-2.5 24.5-7.9 50-12.5 75.7-13.5 40.9-1.7 45.1 14.6 52.1 41.6 1.6 6.1 3.3 12.7 5.6 19.6 2.2 13.3 9 26.9 20.1 40.5 15 18.3 33.7 32.8 54.1 42 17.3 7.8 35.2 11.7 53.5 11.7 4.5 0 9-.2 13.5-.7 21.5-2.2 47-17 69.9-40.6 20.8-21.4 34.5-45.3 34.9-60.8.1-2.8-.3-5.3-1-7.6 2.5 1.6 4.7 3.7 6.3 6.3 7.3 11.8.8 25.9-6.2 40.9-1.9 4.2-3.9 8.5-5.6 12.7-7.5 19.5-7.2 41.9 1.1 64.8 7.1 19.7 20.1 39.7 36.7 56.3 15.7 15.8 33.8 29.2 51.3 42.2 16.8 12.5 34.2 25.5 49.3 40.3 14.3 14.1 26.8 30.5 37 48.3-49.3 1.5-98.3 10.6-146.3 19.5-4.1.8-8.2 1.5-12.3 2.3-27.5 5.1-54.5 8.9-81.4 11.5 4.1-13.4 10.5-26.6 19-39.1 17.5-25.6 26.1-42.7 21.3-59.3-4.5-15.3-19.8-28.7-50.3-51.1-37.6-27.6-168.3-99.5-234.7-74.1-19.9 7.6-32.4 23.2-37.2 46.3-5 24 5 47.6 16.7 69.4 18.3 34.4 27.6 70.7 27.6 106.1-12.1-1.1-24.4-2.3-36.7-3.7-49.5-54.9-82.9-125-92.6-202.8zm423.2-140.6c5.6 1.4 8.1 5 8 11.3-.3 13.6-13.6 36.1-32.9 56-21.5 22.1-46 36.5-65.6 38.5-21.7 2.3-43.1-1.2-63.4-10.4-19.4-8.7-37.2-22.6-51.5-40-.6-.8-1.2-1.5-1.8-2.3 13 8.8 29.8 12.9 46.7 12.9 11.5 0 23.1-1.9 33.7-5.6 20.5-7.1 39.1-18.9 57-30.3 13.2-8.4 26.8-17 41-23.6 8.9-4.2 19.5-6.9 28.8-6.5zm237.5 141.4c2.1 24.2-10.6 50.9-33.1 69.7-21 17.6-47.7 27.4-71.5 34.6-6.1-5.1-12.4-9.9-18.6-14.7 9.4-19.4 28.8-30.7 49.2-42.7 21.5-12.6 43.8-25.6 53.1-48.9.8-2.1 1.6-4.3 2.3-6.4 1.8-5.2 3.5-10.1 6.2-13.8l-.4 2.7c7.8 1 12 10.8 12.8 19.5zm-568.7 31.8c4.3-20.6 15.4-34.4 32.9-41.1 33.9-13 85.8 2.2 123.3 17.2 43.1 17.3 84.6 41.1 104.8 56 28.6 21 43.8 34.1 47.7 47.4 3.6 12.3-1.7 26.2-20.3 53.4-9.5 13.9-16.5 28.7-20.8 43.8-30.2 2.7-60.2 4.1-90.4 4.2 9.9-17.5 18.6-36.3 22.6-55.1 6.5-30.9-.8-56.8-22.1-79.1-17.2-18-70.4-51.6-121.3-51.6h-.6c-22.7.1-41.8 7-56.8 20.4-.3-5.3 0-10.4 1-15.5zm55.8 1.9h.5c48.8 0 99.7 32.1 116.2 49.4 18.4 19.2 25.4 41.4 21.3 67.4-48.5 1.2-100.3-.8-158.2-5.9-4.7-16.3-11.2-32.5-19.6-48.2-7-13.1-13.4-26.8-16-40.7 14.3-14.4 33-21.9 55.8-22zm110.3 124.2c8.9 0 17.7-.1 26.4-.3-1.5 6.9-3.8 13.8-6.4 20.6-44.5.7-91.8-1.1-144.2-5.7-1.1-6.9-2.5-13.8-4.2-20.7 46.1 4.1 88.4 6.1 128.4 6.1zm-123.2 21.8c44.8 3.8 85.8 5.7 124.6 5.7 5.3 0 10.5 0 15.7-.1-4.1 9.3-8.9 18.5-14.1 27.3-40.9-.1-82.1-2.3-124.6-6 0-9-.5-18-1.6-26.9zm130.2 39.9c30.9 0 61.7-1.3 92.7-4-2 8.8-3 17.8-3.1 26.7 0 4.3.2 8.6.6 12.9-37.6 2.9-74.9 3.5-112.9 2.2 3.8-6.9 7.9-14 12.5-21.1 3.3-5.5 6.8-11 10.2-16.7zm96.5 22.6c.1-9.1 1.2-18.3 3.4-27.4 28-2.7 56.1-6.6 84.7-11.9 4.1-.8 8.2-1.5 12.3-2.3 48.9-9.1 98.8-18.4 148.8-19.5 3.3 6.2 6.3 12.5 9 19s5.1 13.2 7.3 20c-54.2-.2-108.2 9.9-161 19.7-4.1.8-8.2 1.5-12.3 2.3-31.1 5.8-61.5 9.8-91.6 12.3-.4-4-.6-8.1-.6-12.2zm-261.6-32.2c9.9 1 19.7 2 29.4 2.9-.3 7.7-1 15.4-2.2 22.9-9.5-8.1-18.6-16.7-27.2-25.8zm33.4 31.1c1.6-9.1 2.6-18.3 2.9-27.5 41.1 3.6 81 5.8 120.6 6-2.7 4.4-5.3 8.7-8 12.8-5.4 8.4-10.2 16.6-14.4 24.6-29.1-1.2-58.6-3.4-89-6.4-4.1-3.1-8.1-6.3-12.1-9.5zm23.3 17.6c25.3 2.4 49.9 4.1 74.3 5.2-5 10.1-9.1 20-12.4 29.7-21.8-9.7-42.5-21.4-61.9-34.9zm212.3 66.6c-51 0-99.6-10.3-143.9-29 3.5-10.4 8-21.1 13.6-32.2 13.8.5 27.4.8 41.1.8 25.5 0 50.9-.9 76.3-2.9 3.4 22.3 12.9 43.8 27.3 62.9-4.8.3-9.6.4-14.4.4zm163.2-37.5c-43.9 21.4-91.1 33.8-140.3 36.8-15.3-19-25.3-40.7-28.9-63.1 30.3-2.6 60.7-6.6 92-12.4 4.1-.8 8.2-1.5 12.3-2.3 50.5-9.4 102-19 153.7-19.6-26.5 24.4-56.2 44.7-88.8 60.6zm113.9-86c-4.3 4.8-8.7 9.4-13.1 13.9-2-6.2-4.2-12.2-6.7-18.2-2.3-5.6-4.9-11-7.6-16.4 14.4-.1 28.7.6 43 2.2-5 6.3-10.2 12.5-15.6 18.5zm20.6-25c-17.3-2.1-34.5-2.9-51.8-2.7-5.1-9.3-10.9-18.2-17.1-26.7 31.1-1.3 59.2.6 85.4 5.5-5.1 8.2-10.7 16.2-16.5 23.9zm52.8-97.4c-8.5 23.6-19.3 46-32.2 67.2-28.9-5.7-60-7.7-94.6-5.9-5.5-6.8-11.3-13.3-17.4-19.4 46-3.7 85.9-1.2 121.8 7.5l1.7-6.8c-38.2-9.3-80.8-11.6-130.2-7.1-1.9-1.8-3.9-3.5-5.9-5.3 23.3-7.3 48.9-17.3 69.6-34.6 24.6-20.5 37.9-48.8 35.5-75.6-1.2-14.4-8.4-22.6-15.8-25.1.8-.5 1.6-1 2.6-1.4 10.3-3.9 21 8.6 25.2 14.1 19.1 25.5 33.4 54.8 42.2 85.5-.9 2.4-1.7 4.7-2.5 6.9zm6.1-18.5c-9.2-28-22.8-54.6-40.4-78.1-14.7-19.7-27.2-18.8-33.3-16.5-9.7 3.7-13.3 13.9-16.4 22.9-.7 2.2-1.5 4.2-2.2 6.1-8.4 21-28.7 32.9-50.1 45.4-20.1 11.8-40.8 23.9-51.4 44.4-2.3-1.7-4.6-3.5-7-5.2-17.3-12.9-35.2-26.2-50.5-41.6-15.8-15.9-28.3-34.9-35-53.7-7.7-21.3-8.1-42-1.1-59.9 1.5-4 3.4-8 5.4-12.3 7-15.2 15-32.5 5.8-47.5-5.6-9.1-15.1-13.1-25.7-13.6-.4-.1-.8-.2-1.2-.2v.2c-10.1-.2-21.2 2.6-31.1 7.3-14.6 6.8-28.4 15.6-41.8 24.1-17.6 11.2-35.8 22.7-55.5 29.6-17.3 6-37.1 6.9-54.1 2.4-18.5-4.9-32-15.7-38-30.5-1.1-2.7-2.1-5.3-2.9-8-.1-.7-.2-1.3-.3-2h-.4c-2-6.2-3.6-12.2-5-17.8-7-27.3-12.6-48.8-59.2-46.9-41.4 1.7-82.1 12.3-119.6 30.9 1.5-4.6 3-9.3 4.7-13.9 3.8-10.4 8-20.5 12.6-30.5 77.2-61.7 182.5-97.5 282-95.8 9 .2 18.5.7 26.1 5.1 6.7 3.9 12.1 12.4 9.5 19.8-.5 1.4-1.3 2.9-2.1 4.4-1.6 3-3.5 6.4-3.4 10.4.1 3.5 1.5 6.7 4.1 9.2 6.6 6.2 18.1 6.2 21.5 6 9.4-.4 18.9-1.2 28.1-2.1 25.6-2.2 52.1-4.6 76.8 2.1 20.1 5.4 38.5 19.6 48 36.8 6.7 12.2 8.3 24.8 4.7 36.6-.4 1.4-1 2.9-1.5 4.4-1.7 4.8-3.6 9.8-3 15.3 1.1 11.4 11.9 19.2 22.1 21 9.1 1.6 18-.2 26.7-1.9l2.5-.5c34.9-6.8 61.4-5.7 83.5 3.4 46.6 19.3 81.2 72 83.7 101.6v.2c-1.7 30.5-6.9 60.1-15.6 88.9z" fill="#231f20"/></svg>