<svg xmlns="http://www.w3.org/2000/svg" viewBox="0 0 758.25979 758.50002"><path d="M754.197 359.1c1.1 20.7.5 41.2-1.7 61.1-20.1-17.9-42.4-33.3-66.2-45.7-1.4-.7-2.7-1.4-4.1-2.1-18.9-9.5-38.6-17.3-58.8-23.4l2.4-7.7c1.4.5 2.9.7 4.5.8 3.8.1 11.8-1.1 14.1-4.1 1.7-2.3 2.2-5.4 2.5-8.3l-.8-25.5c.4-2.9 3.9-4 5.9-1.8 6.2 6.7 17.2 9.4 25.7 5.2 11.7-5.8 11.5-19.6 11.4-33.8 0-4.2.2-8.1 4.2-9.2 4.6-1.2 9.9.5 12.7 4.4.5.7 1 1.4 1.3 2.2 1.9 3.9 1.9 8.5 1.8 12.9-.2 17.6-.5 35.1-.8 52.7-.1 10.5-.2 21.5 4.8 30.8 6 11.1 21.8 18.3 31.7 7.1 3-3.4 4.7-7.7 5.2-12.2.9-7.5.1-13.4.4-22.9.1-6.2.2-10.6.4-13.1 1.8 10.7 2.8 21.6 3.4 32.6z" fill="#95a153"/><path d="M750.997 326.4c-.2 2.5-.3 6.9-.4 13.1-.3 9.5.5 15.5-.4 22.9-.5 4.5-2.2 8.8-5.2 12.2-9.9 11.3-25.7 4.1-31.7-7.1-5-9.3-4.9-20.3-4.8-30.8.2-17.6.5-35.1.8-52.7.1-4.4 0-9-1.8-12.9l30.9-2.2c5.6 18.6 9.9 37.8 12.6 57.5z" fill="#7e9260"/><path d="M752.497 420.3c-2.1 19.7-5.8 38.9-10.9 57.6-4.2-3.2-9.1-5.4-14.2-6.3-13.6-2.3-28.2 4.7-34.9 16.7l-1.1.4c-.6-1.1-1.3-2.2-2-3.3 13.2-14.8 14.5-35.8 11.6-55.6-1.3-8.6-3.1-17.3-6.9-25.1-2.2-4.5-5.1-8.7-8-12.9-2.6-3.8-3.9-4.1-6.4-7.8l6.7-9.5c23.7 12.5 46 27.9 66.1 45.8z" fill="#cbc183"/><path d="M677.097 150.4c27 35 47.9 75 61.2 118.6l-30.9 2.2c-.4-.8-.8-1.5-1.3-2.2-2.9-3.8-8.1-5.6-12.7-4.4-4 1.1-4.2 5.1-4.2 9.2.1 14.3.3 28-11.4 33.8-8.4 4.2-19.5 1.5-25.7-5.2-2-2.1-5.5-1.1-5.9 1.8l.8 25.5c-.4 2.9-.8 5.9-2.5 8.3-2.3 3-10.3 4.2-14.1 4.1-1.6-.1-3.1-.3-4.5-.8-7.4-2.5-11-10.4-13.4-19-2.9-10.1-3-20.8-3.1-31.3-.2-14.5.6-42.8.4-54.6-4.7-5.2-13.3 1.6-14.6 8.5-1.5 7.7 3.5 18.9-5.5 23.5-2.1 1-4.2 1.2-6.2.7-3.1-.7-6.1-2.9-8.8-5.3-6-5.6-5.5-14.2-6.2-22.2-1.3-15.5-1-31.5 3.4-46.2 1.3-4.2 2.9-8.4 4.9-12.4 7.9-15.6 52.8-32.3 97.3-36.4 1 1.3 2 2.5 3 3.8zm64.5 327.5c-1.9 7.1-4.1 14.1-6.4 21-7.9 2-15.9 4.6-23.3 2-2.8-1-5.2-2.7-7.6-4.3-4-2.7-7.9-5.4-11.8-8.2 6.7-12 21.3-19 34.9-16.7 5.2.8 10.1 3.1 14.2 6.2z" fill="#7e9260"/><path d="M711.997 500.9c7.4 2.6 15.4 0 23.3-2-6 17.8-13.2 35-21.7 51.5-4.9-20.5-12.4-40.4-22.5-58.8.5-.3.9-.7 1.3-1-.3-.6-.7-1.2-1-1.8l1.1-.4c3.9 2.7 7.9 5.4 11.8 8.2 2.5 1.6 4.9 3.3 7.7 4.3z" fill="#cbc183"/><path d="M700.997 429.9c2.9 19.8 1.6 40.8-11.6 55.6 0-.1-.1-.1-.1-.2-4.2-10-6.4-17.9-9.8-28.8-3.7-11.8-6.8-24-7.4-36.4-.6-12.4 1.5-25.1 7.6-36 2.6 3.7 3.9 4.1 6.4 7.8 2.9 4.2 5.8 8.4 8 12.9 3.8 7.8 5.6 16.4 6.9 25.1z" fill="#7e9260"/><path d="M690.997 491.5c10.1 18.4 17.6 38.3 22.5 58.8-52.4 102.4-150.6 178.1-269.1 198.9 58.3-16 110.6-55.9 133.9-107.8 11.5-25.5 16-54 10.7-83.9-1.9-11-10.1-28.6-16.3-39 .8-41.2 2.5-83.3 4.5-124.9l2.2.1c17.7 7 34.5 15.9 50.2 27.2 18.4 13.2 34.2 29.5 47.3 47.8-8.9-10-19.3-18.7-30.4-25.5-9.9-6.1-21.7-11.1-32.9-8.1-8.6 2.3-15.5 9.1-19.8 16.9-4.4 7.8-6.5 16.5-8.6 25.2 11.2-9.5 26.2-14 40.9-14.1 14.7-.1 29.2 3.8 42.7 9.7 6.4 2.8 12.8 6.1 17.8 10.9.6 1 1.2 1.9 1.7 2.9-5.7-3-14.8-4.4-19.2-5.4-9-2-18-2.3-26.5 1.9-5.9 2.9-10.8 7.4-15.2 12.2-13.7 14.8-24.2 33.8-23.9 53.9 13.1-12.6 27.4-24 42.7-33.9 14-9.1 31.1-13.9 44.8-23.8z" fill="#95a153"/><path d="M688.297 486.6c1 1.6 1.9 3.2 2.8 4.9-13.7 9.8-30.9 14.7-45 23.9-15.3 9.9-29.6 21.3-42.7 33.9-.3-20.1 10.2-39.1 23.9-53.9 4.5-4.8 9.4-9.4 15.2-12.2 8.5-4.2 17.5-3.9 26.5-1.9 4.5 1 13.6 2.4 19.3 5.3 0 .1 0 .1 0 0z" fill="#7e9260"/><path d="M686.397 374.6l-6.7 9.5c-6.1 10.8-8.2 23.6-7.6 36 .6 12.4 3.6 24.5 7.4 36.4 3.5 11 5.6 18.8 9.8 28.8-3.6-5.8-7.8-11.3-12.4-16.4-13.1-18.3-28.9-34.6-47.3-47.8-15.7-11.3-32.5-20.2-50.2-27.2l-2.2-.1c.9-18.4 1.8-36.8 2.7-54.9h.9c14.4 2.7 28.6 6.1 42.6 10.3 20.2 6.1 39.9 13.8 58.8 23.4 1.4.6 2.8 1.3 4.2 2z" fill="#cbc183"/><path d="M686.597 483.8c-5-4.8-11.4-8.1-17.8-10.9-13.5-5.8-28-9.8-42.7-9.7-14.7.1-29.7 4.6-40.9 14.1 2.1-8.7 4.2-17.4 8.6-25.2 4.3-7.8 11.2-14.6 19.8-16.9 11.2-3 23 2 32.9 8.1 11.1 6.9 21.5 15.6 30.4 25.5 3.4 4.9 6.6 9.8 9.7 15z" fill="#7e9260"/><path d="M418.097 252.6c.9-3.3 2.2-6.4 4.2-9.1 8.6-11.7 27.5-17.2 41.6-21 .1 0 .2-.1.3-.1h.1v-.6c.4 0 .8 0 1.2.1.4.9.8 1.8 1.1 2.6 6.2-9.8 8.6-21.9 6.5-33.3-.8-4.5-2.4-9.1-5.7-12.4-3.6-3.6-8.6-5.3-13.5-6.7-10.3-2.9-20.7-5.1-31.2-6.6 19.7 11.9 33 34 42.4 55.4-12.7-8.3-28.2-16.1-42.9-13.3-11.3 2.2-22.9 13.3-29.6 25.1l-.2-.1c-41.6 14.2-62.1 23.9-88.5 36-12.8-13.3-36.6-25.4-42.1-19.9.1 9 6.1 17.7 14.6 21-7.2-2.8-17.5-8.3-26.5-7.1-5 .7-6.6 7.1-2.6 10.2l4.1 3.2c-17.3.5-34.1 8.1-45 21.8 1.7-10.6-.6-21.7-6.2-30.8-1.5-2.5-5.3-1.8-5.8 1-1.4 8.1-.6 16.7 2.5 24.4-3.5-6.6-10.4-11.2-17.7-12.5-5-.9-8.3 5-4.8 8.8.6.7 1.3 1.3 2 1.9 2 1.6 13.7 4.6 11.2 5.1-18.9 3.2-26.4 9.6-29.9 17.1-4.1 8.8-3.8 19.5.5 28.2-3.6-4.7-9.2-7.2-14.9-4.9-6.2 2.5-9.2 8.9-8.2 15.2-.8-4.1-1-9.7-1.1-13.2-.2-8.1 1.8-19.7-4.2-23.8-6 5.1-7.4 20.3-6.5 32.7-2-7.9-7.4-15.6-14.6-18.4-4.8 6.9.2 21.8 4.4 31.8-4.2-9.8-31.5 17.4-33.7 20.4h-1.8c0-3.2-.3-6.5-1.8-9.3-1.6-3.1-4.9-5.6-8.4-5.3-3.6.3-6.4 3.4-7.6 6.8-1.2 3.4-.9 7.1-.7 10.7-3.7-4.4-8-8.5-13.4-10.4-5.4-1.9-12.1-1.1-15.9 3.2-3.6 4-4 9.8-3.9 15.1 0 4.8.5 10.1 4.1 13.2-7.6-5.1-16.8-7.1-25.9-6.2-1.6-29.8.4-59 5.5-87.1 32.2-53.6 95.2-83.1 155.3-94.1 32.6-5.9 65.8-7.8 98.8-9.7 39.8-2.3 104.4-9.1 93.5-67.1-1.8-9.6-6.3-19.4-3.7-28.9 3.1-11.3 14.8-17.6 25.6-21.8 71.7-28.1 151.1-22.6 227.5-9.8 25.2 19.2 47.9 41.5 67.5 66.3-44.6 4.1-89.4 20.8-97.3 36.4-2 4-3.7 8.1-4.9 12.4l-1.3-.4c-2.6.4-5.1 1.1-7.4 2.2-9.3.6-21.9 2.6-31.6 9.2-5.7 3.9-9.7 7.3-12.6 10.8l-2.1.1c-20.5-8.2-42.8 2.4-55.9 20.2-3.8 5.2-7.4 10.7-10.6 16.6-8.3 10.2-20.6 19.2-31.9 27.5-1.6-8.6-2.9-19.5-.4-28.8z" fill="#94d1e4"/><path d="M625.797 341.4l-2.4 7.7c-14-4.2-28.2-7.7-42.6-10.3h-.9c1.2-23.4 2.4-46.5 3.4-69.1v-.5c2 .5 4.1.3 6.2-.7 8.9-4.6 4-15.8 5.5-23.5 1.3-6.9 10-13.7 14.6-8.5.2 11.8-.5 40.1-.4 54.6.1 10.5.2 21.2 3.1 31.3 2.6 8.6 6.1 16.5 13.5 19z" fill="#95a153"/><path d="M588.997 557.5c5.3 29.9.8 58.3-10.7 83.9l-.6-.3c5.9-12.7 2.5-26.3-5.1-33.4-.7-29-.6-58.8 0-89.2 6.3 10.4 14.4 28 16.4 39z" fill="#647281"/><path d="M421.297 337.4c6.1-28.2 15.1-58.3 29-83.2 3.3-5.9 6.8-11.4 10.6-16.6 13.1-17.8 35.4-28.4 55.9-20.2l2.1-.1c2.9-3.5 6.9-6.9 12.6-10.8 9.7-6.7 22.3-8.7 31.6-9.2 2.3-1.1 4.8-1.9 7.4-2.2l1.3.4c-4.4 14.7-4.7 30.7-3.4 46.2.7 8.1.1 16.6 6.2 22.2 2.6 2.5 5.6 4.6 8.8 5.3v.5c-1 22.5-2.2 45.6-3.4 69.1-.9 18.1-1.8 36.5-2.7 54.9-2 41.6-3.7 83.6-4.5 124.9-.6 30.3-.7 60.2 0 89.2-2-1.8-4.2-3.2-6.7-4.1-11.9-4.1-26 1.5-33 11.3.9-16.3-2.7-33.6-13.8-46.3-11.1-12.7-30.8-19.5-46.8-13.3-11.8 4.6-19.8 15.2-24.8 26.3-2.8 6.2-5 13.1-3.5 19.8-8.4-10.6-25.9-7-28.1 7.7-4.7-7.1-12.8-14.6-21.2-13.8 2.2-61.6 6.3-123 14.3-183.9 1.9-14.5 4-28.9 6.4-43.3.2-1.1.4-2.2.6-3.4 1.4-8.8 3.1-18 5.1-27.4z" fill="#cfe1f5"/><path d="M394.797 595.3c8.5-.8 16.5 6.7 21.2 13.8 2.2-14.7 19.6-18.2 28.1-7.7-1.4-6.7.7-13.5 3.5-19.8 5-11 13-21.7 24.8-26.3 16-6.3 35.7.6 46.8 13.3 11.1 12.7 14.7 30 13.8 46.3 7-9.8 21-15.4 33-11.3 2.5.8 4.7 2.2 6.7 4.1 7.6 7.1 11 20.7 5.1 33.4l.6.3c-23.3 51.9-75.6 91.8-133.9 107.8h-.1c-14.8 2.6-29.9 4.3-45.2 5.1-46.7 2.5-91.9-3.6-134-17-13-11.8-23.9-25.8-32.8-41-13.5-23-22.2-48.6-27.9-74.6l.1-.1c30.4 35.9 76.6 47.1 119.5 48.6-6.8-28.3-17.3-53.1-33.5-73.6l2.9-.8c11.8-18.4 39.5-18.6 51.7-.5 3.5 5.2 5.5 11.5 6 17.8.2 3.2 0 16.3-1 17.8 4.1-5.9 10.6-10 18-9.2 4.8.5 8.6 3.3 12 6.5-1.1-4.7-1.8-11.7-.4-17.6 1.2-5.3 4.3-10.4 9-13.2 2-1.3 4-2 6-2.1zm211.8-515c-76.4-12.8-155.8-18.3-227.5 9.8-10.8 4.3-22.6 10.6-25.6 21.8-2.6 9.5 1.9 19.2 3.7 28.9 10.9 58.1-53.7 64.8-93.5 67.1-33 1.9-66.2 3.8-98.8 9.7-60.1 11-123.1 40.5-155.3 94.1 4.1-22.7 10.3-44.6 18.3-65.8 22.4-20.5 49.7-35.7 79.1-43.3 37.2-9.6 76.6-7.6 114.1-16.1 17.4-3.9 36.5-12.4 41.5-29.5 4.9-16.8-6-33.8-8-51.2-2.1-18.2 5.8-36.5 17.9-50.2 12.1-13.7 28-23.5 44.2-32 14.1-7.4 28.7-14 43.5-19.7 92-4.6 178.2 24.4 246.4 76.4z" fill="#fff"/><path d="M473.297 191.2c2.1 11.4-.3 23.6-6.5 33.3-.4-.9-.7-1.8-1.1-2.6.4 0 .8 0 1.2.1-.6-.4-1.1-.7-1.7-1.1-9.3-21.4-22.6-43.5-42.4-55.4 10.5 1.5 21 3.8 31.2 6.6 4.9 1.4 9.9 3 13.5 6.7 3.4 3.3 5 7.9 5.8 12.4z" fill="#95a153"/><path d="M465.197 220.9c.2.4.3.7.5 1-.4 0-.8-.1-1.2-.1-26.1-1-53 13.3-76.9 23.6.9-4.1 2.7-8.5 5.2-12.8 6.7-11.8 18.4-22.9 29.6-25.1 14.7-2.7 30.1 5.2 42.8 13.4z" fill="#95a153"/><path d="M463.997 222.6c-14.1 3.8-33 9.3-41.6 21-2 2.7-3.4 5.8-4.2 9.1-9.2 10.8-18.4 44.5-25.7 89-1.3 7.8-2.5 16-3.7 24.5-1.7 12.4-3.3 25.4-4.7 38.7-3.7 35.2-6.3 73-7.1 109.4l-26.3-.6c-13.5-19.2-23.5-35.6-43.7-43.5-20.1-7.8-42.6-2.6-61.5 8.5-18.9 11.2-34.9 27.9-50.6 44.5-4.2 4.5-7.6 8.6-11.2 12.8-.8.7-1.5 1.5-2.3 2.2 10.3-15.3 14.7-25.3 25.1-46.4 8.3-16.7 15.7-36 9.7-53.5-4.6-13.3-16.1-22.3-28.8-28.4l.1-.2c6.5-24.3 23.3-61.1 33.4-80.1 14.4-27 41.9-41.8 69.8-54.8 3.7-1.8 7.5-3.5 11.2-5.2.7-.3 1.5-.7 2.2-1 26.4-12.1 46.9-21.7 88.5-36l.2.1c-2.5 4.3-4.3 8.7-5.2 12.8 23.9-10.3 50.9-24.6 76.9-23.6v.6h-.1c-.2 0-.3.1-.4.1z" fill="#cfe1f5"/><path d="M418.397 281.6c11.2-8.2 23.6-17.3 31.9-27.5-13.9 24.9-22.9 55-29 83.2-10.4 1.4-18 2.3-28.5 4.3l-.5-.1c7.4-44.5 16.5-78.2 25.7-89-2.4 9.4-1.1 20.3.4 29.1z" fill="#425264"/><path d="M421.297 337.4c-2 9.4-3.8 18.6-5.2 27.3-.2 1.1-.4 2.2-.6 3.4-8-.6-19.5-1.4-26.9-2 1.2-8.4 2.4-16.6 3.7-24.5l.5.1c10.5-2.1 18.1-2.9 28.5-4.3z" fill="#7b90a5"/><path d="M415.497 368c-2.4 14.4-4.5 28.8-6.4 43.3-7.9-4-19.5-6-25.2-6.5 1.4-13.4 3-26.3 4.7-38.7 7.5.5 19 1.3 26.9 1.9z" fill="#647281"/><path d="M409.097 411.3c-8 61-12.1 122.4-14.3 183.9-2 .2-4 .8-6 2-4.7 2.8-7.8 7.8-9 13.2-2.8-28.8-3.6-61.9-2.9-96.2.8-36.4 3.3-74.2 7.1-109.4 5.7.5 17.2 2.6 25.1 6.5z" fill="#425264"/><path d="M379.697 610.4c-1.4 6-.7 13 .4 17.6-3.4-3.2-7.2-6-12-6.5-7.4-.8-13.9 3.3-18 9.2 1-1.4 1.3-14.6 1-17.8-.5-6.3-2.4-12.5-6-17.8-12.2-18.1-39.9-17.9-51.7.5l-2.9.8c-6.3-8-13.5-15.4-21.7-22-13.3-10.8-31.2-18.8-46.9-23.2-3-.9-29.3-3.1-40.2-3.4-2-.7-3.9-1.4-5.9-2 .2-.3.4-.5.6-.8 12.7-2.4 23.4-.4 36.3-1.4 46.7-3.3 86.9-35.8 132.7-30.8 1.7.2 3.3.4 5 .7l26.3.6c-.6 34.4.2 67.6 3 96.3z" fill="#cfe1f5"/><path d="M358.997 4.1h.9c-14.9 5.7-29.4 12.3-43.5 19.7-16.2 8.5-32.1 18.2-44.2 32-12.1 13.7-20 32-17.9 50.2 2 17.4 12.9 34.4 8 51.2-5 17.1-24.1 25.6-41.5 29.5-37.5 8.5-76.8 6.5-114.1 16.1-29.4 7.6-56.6 22.8-79.1 43.3 51.3-134.9 178.2-233.8 331.4-242z" fill="#94d1e4"/><path d="M350.597 513.6c-1.7-.3-3.3-.5-5-.7l.1-.5c-43.6-40.6-115.8-20.5-162.1 23.6 3.5-4.2 6.9-8.4 11.2-12.8 15.7-16.5 31.7-33.3 50.6-44.5 18.9-11.2 41.4-16.3 61.5-8.5 20.1 7.8 30.2 24.2 43.7 43.4z" fill="#7e9260"/><path d="M345.597 512.5l-.1.5c-45.9-5-86 27.5-132.7 30.8-13 .9-23.7-1.1-36.3 1.4 1.1-1.6 2.2-3.1 3.2-4.6 1.4-1.5 2.6-3 3.9-4.5 46.3-44.2 118.5-64.3 162-23.6zm-55 84.1c16.2 20.5 26.7 45.2 33.5 73.6-45.5-69.2-97.3-105.7-142.3-122.2 10.9.3 37.1 2.5 40.2 3.4 15.7 4.5 33.6 12.4 46.9 23.2 8.1 6.6 15.3 14 21.7 22z" fill="#7e9260"/><path d="M135.497 353.7c-.1-.3-.2-.5-.2-.8 0-.1-.1-.3-.1-.4 0 .1.1.3.1.4.1.3.1.5.2.8zm-.5-2.3c-1-6.4 2-12.8 8.2-15.2 5.7-2.3 11.3.2 14.9 4.9.6 1.3 1.4 2.5 2.2 3.7-.6-1.3-1.3-2.6-2.2-3.7-4.3-8.7-4.6-19.4-.5-28.2 3.5-7.5 11-13.9 29.9-17.1 2.6-.4-9.2-3.4-11.2-5.1-.7-.6-1.3-1.2-2-1.9-3.5-3.8-.2-9.6 4.8-8.8 7.4 1.3 14.2 5.8 17.7 12.5-3.1-7.7-3.9-16.2-2.5-24.4.5-2.8 4.3-3.5 5.8-1 5.6 9.1 7.9 20.3 6.2 30.8 10.9-13.6 27.7-21.3 45-21.8l-4.1-3.2c-3.9-3.1-2.3-9.6 2.6-10.2 9-1.2 19.4 4.3 26.5 7.1-8.4-3.3-14.4-12-14.6-21 5.5-5.6 29.2 6.6 42.1 19.9-.7.3-1.5.7-2.2 1-3.7 1.7-7.5 3.4-11.2 5.2-27.9 13-55.4 27.8-69.8 54.8-10.1 19-26.9 55.8-33.4 80.1l-.1.2c-2.9-1.4-5.8-2.6-8.7-3.6-7.8-2.9-15.9-5.1-24.2-6.6-21.7-4-44.3-3.1-65.8 2.7-8.1 2.2-12.8 9.4-9.5 17.4 5.3-11.9 21.1-15.5 32.7-10.7 11.6 4.8 19.8 15.7 26.3 26.7 18.8 31.5 32.5 67.9 34.4 105-27-66.2-75-119.8-139.9-98.5-7.7 2.5-14.9 6.5-21.9 11.2-3.5-17.7-5.9-35.8-6.9-54.3v-.4c9-.8 18.3 1.2 25.9 6.2-3.6-3.1-4.1-8.5-4.1-13.2 0-5.3.4-11.2 3.9-15.1 3.8-4.3 10.5-5.1 15.9-3.2 5.4 1.9 9.8 6 13.4 10.4-.2-3.6-.5-7.3.7-10.7 1.1-3.4 4-6.5 7.6-6.8 3.5-.3 6.8 2.2 8.4 5.3 1.5 2.8 1.8 6.1 1.8 9.3h1.8c2.2-3 29.5-30.3 33.7-20.4-4.2-10-9.2-24.9-4.4-31.8 7.2 2.9 12.6 10.5 14.6 18.4.2 2.7.5 5.2.9 7.5.1-2.4-.2-5-.9-7.5-.9-12.4.5-27.6 6.5-32.7 6 4.1 4 15.7 4.2 23.8.5 3.4.7 8.9 1.5 13z" fill="#acb476"/><path d="M172.897 550c.5-.7 1-1.4 1.5-2 .5.3 1 .7 1.5 1-.2-.7-.5-1.3-.8-2 .3-.4.6-.8.8-1.1 1.9.6 3.9 1.3 5.9 2-3-.1-4.8 0-4.7.3.2.5.3.9.4 1.4 5.5 18 4.4 36.3 13.5 52.5 4 7.2 8.6 13.7 13.5 19.5l-.1.1c5.8 26 14.5 51.6 27.9 74.6 8.9 15.2 19.8 29.2 32.8 41-30.3-9.6-59-23-85.5-39.7-15.9-24-26.2-53-29.6-83-.8-7.4-1.2-14.9-1.2-22.4 0-1.6-.5-4.8.1-6.3 15.3-7.9 32.3-16.7 26.8-29.6-.7-1.5 0 0-.5-1.6-.5-1.7-1.8-2.8-3.1-3.7l.1-.2c.4-.3.5-.6.7-.8z" fill="#425264"/><path d="M323.997 670.1c-42.9-1.5-89.1-12.6-119.5-48.6-4.9-5.8-9.5-12.3-13.5-19.5-9-16.2-8-34.4-13.5-52.5-.1-.5-.3-.9-.4-1.4-.1-.3 1.7-.3 4.7-.3 45 16.7 96.7 53.1 142.2 122.3zm-142.7-131.9c-.5.8-1.1 1.5-1.6 2.3-1.4 1.6-2.8 3.2-4.4 4.8.4-.1.8-.2 1.2-.2-.2.2-.4.5-.6.8-.5-.2-.9-.3-1.4-.5-.5-1.2-.9-2.4-1.4-3.6 1.2-2.8 2.4-5.7 3.6-8.5 9.3-23.5 16.1-49.2 13.9-75-2.2-25.8-15.7-48.2-36.2-58.1l.1-.5c8.2 1.5 16.3 3.7 24.2 6.6 2.9 1.1 5.8 2.3 8.7 3.6 12.7 6 24.1 15 28.8 28.4 6.1 17.5-1.4 36.8-9.7 53.5-10.5 21-14.9 31.1-25.2 46.4z" fill="#7e9260"/><path d="M190.597 458.3c2.2 25.8-4.6 51.5-13.9 75-1.1 2.9-2.3 5.7-3.6 8.5-.1-.3-.3-.7-.4-1-1.9-37.1-15.6-73.6-34.4-105-6.6-11-14.7-21.9-26.3-26.7-11.6-4.8-27.4-1.2-32.7 10.7-3.3-7.9 1.4-15.2 9.5-17.4 21.4-5.8 44.1-6.7 65.8-2.7l-.1.5c20.4 9.9 33.9 32.3 36.1 58.1zm-41.5 127.5c-3.5 1.8-6.8 3.5-9.8 5.2-12.2 7-27.1 21-35.4 36.3-.9 1.6-1.7 3.2-2.4 4.9-5.7-6.2-11.2-12.6-16.4-19.2-3.8-13.2-4.4-27.6 0-40.3 6.6-18.9 26.2-33.3 64.4-32.3 7.2 2.6 14.3 5.8 21.1 9.5.5.3 1.1.6 1.6 1 1.4.9 2.6 2 3.1 3.7.5 1.6-.2.1.5 1.6 5.6 12.9-11.4 21.8-26.7 29.6z" fill="#7e9260"/><path d="M171.297 545.9c.5.3 1.1.7 1.6 1.1v3c-.2.2-.4.5-.6.8l-.1.2c-.5-.4-1.1-.7-1.6-1-6.8-3.7-13.9-6.9-21.1-9.5-22.7-8.3-46.9-10.7-69.7-3.5-9.1 2.9-18 7.5-25 14.9-2.1 2.2-3.9 4.7-5.5 7.4-11-20.2-20.3-41.5-27.5-63.8 48.4 1.3 99.3 18 146.3 48.3 1.1.7 2.1 1.4 3.2 2.1z" fill="#acb476"/><path d="M172.697 540.8c0 .6.1 1.2.1 1.8-.5 1.1-1 2.2-1.4 3.3-1.1-.7-2.2-1.4-3.2-2.1l.6-1c-30.5-41.6-64.8-78.4-110.9-89-11.4-2.6-31.7.5-46 4.6-.3-1.6-.7-3.2-1-4.8 7-4.7 14.3-8.7 21.9-11.2 64.9-21.4 112.9 32.2 139.9 98.4z" fill="#7e9260"/><path d="M168.697 542.8l-.6 1c-47-30.3-97.9-47.1-146.3-48.3-3.9-12.1-7.3-24.5-10-37.1 14.3-4 34.5-7.2 46-4.6 46 10.6 80.4 47.4 110.9 89z" fill="#7e9260"/><path d="M108.897 628.3c.9-1.3 2.2-2.4 3.7-3 9.5 1.2 18.3 6.8 23.3 15 .7-9.8 5.4-19.2 12.8-25.5l1.4-.2c3.3 30 13.6 59 29.6 83-28.9-18.2-55.3-40.2-78.2-65.3.7-1.6 1.5-3.2 2.4-4.9l5 .9z" fill="#fff"/><path d="M150.097 614.6l-1.4.2c-7.4 6.4-12.1 15.8-12.8 25.5-5-8.1-13.8-13.8-23.3-15-1.5.6-2.8 1.6-3.7 3l-5.1-.9c8.3-15.3 23.2-29.3 35.4-36.3 3-1.7 6.4-3.5 9.8-5.2-.7 1.5-.1 4.8-.1 6.3 0 7.5.4 15 1.2 22.4z" fill="#cbc183"/><path d="M149.497 540.4c-38.2-.9-57.8 13.4-64.4 32.3-4.5 12.8-3.8 27.2 0 40.3-13.4-16.8-25.4-34.8-35.8-53.8 1.6-2.7 3.5-5.2 5.5-7.4 7-7.4 15.9-12 25-14.9 22.8-7.2 47-4.8 69.7 3.5z" fill="#7e9260"/><path d="M757.697 359c-.1-2.1-.2-4.2-.4-6.3-.7-10.5-1.9-21-3.5-31.2-9.6-62.7-34.4-120.2-70.5-168.6-.9-1.2-1.7-2.3-2.6-3.5-.6-.8-1.3-1.7-1.9-2.5-.9-1.2-1.9-2.4-2.8-3.6-16.9-21.3-36.1-40.7-57.1-57.9-3.2-2.6-6.4-5.1-9.7-7.6C545.397 29 465.797.1 379.697 0h-.3c-6.1 0-12.3.2-18.4.4-.7 0-1.4.1-2.2.1-51.1 2.8-100.1 15.5-145.7 37.7-44.1 21.5-83.1 50.9-116 87.6-31.7 35.2-56.2 75.4-72.8 119.5-.7 1.7-1.3 3.4-1.9 5.2-.9 2.5-1.8 5-2.6 7.6-6 17.7-10.6 35.8-13.9 54.1-1.1 6.2-2.1 12.4-2.9 18.7-2.7 21.4-3.6 43.1-2.6 65 .1 1.2.1 2.4.2 3.6.1 1.1.1 2.2.2 3.4 1 16.9 3.2 33.4 6.4 49.6.2 1.2.5 2.4.7 3.7l.6 3c.3 1.2.5 2.4.8 3.6 2.3 10 4.9 19.9 7.9 29.6.7 2.1 1.3 4.2 2 6.3 7 21.2 15.8 41.5 26.2 60.8 1.3 2.5 2.7 4.9 4.1 7.3 9.7 17 20.6 33.1 32.6 48.3 4.7 6 9.6 11.8 14.7 17.4.2.3.5.5.7.8 1.7 1.9 3.5 3.8 5.2 5.7 22.3 23.8 47.7 44.6 75.4 62 4.6 2.9 9.2 5.6 13.9 8.3 22.8 12.9 47 23.6 72.4 31.6 5.2 1.6 10.4 3.2 15.6 4.6 31.5 8.5 64.6 13 98.7 13 6.8 0 13.7-.2 20.6-.5 51.1-2.7 100.2-15.4 145.8-37.6 44.1-21.5 83.1-50.9 116-87.6 20-22.3 37.2-46.6 51.3-72.5 1.6-2.9 3.1-5.9 4.6-8.8 7.1-14 13.4-28.5 18.8-43.3.8-2.1 1.5-4.3 2.2-6.4.8-2.3 1.6-4.7 2.3-7 1.1-3.5 2.2-7 3.2-10.6.7-2.3 1.3-4.6 1.9-6.9 4.4-16.4 7.6-33.1 9.8-49.9l.9-7.8c2.2-20.2 2.7-40.4 1.6-60.6zm-10-30.7c-.1 2.6-.2 6.3-.3 11.1-.1 3.9-.1 7.3 0 10.2.1 4.4.1 8.2-.4 12.4-.5 4.1-2 7.7-4.4 10.5-3 3.4-6.9 5-11.2 4.5-6-.7-12.1-5.1-15.2-11-4.7-8.8-4.5-19.6-4.4-29.2l.7-52.7c.1-5 .2-11.8-3.8-17.1-3.6-4.8-10.3-7.1-16.1-5.5-6.6 1.8-6.6 8.7-6.6 12.4v.7c.1 13.6.1 25.4-9.6 30.3-6.8 3.4-16.4 1.4-21.9-4.5-1.8-1.9-4.4-2.6-6.9-1.8s-4.2 2.9-4.5 5.4v.2l.8 25.5c-.3 2.3-.7 4.8-1.9 6.5-1.1 1.5-7.2 3-11.4 2.8-7.1-.2-11.5-5.3-15-17.4-2.8-9.6-2.9-20-3-30.1v-.3c-.1-7.2.1-17.8.2-28.1.1-10.6.3-20.6.2-26.5v-1.2l-.8-.9c-2.3-2.6-5.6-3.5-9-2.5-5.1 1.4-10 6.9-11.1 12.6-.5 2.8-.4 5.9-.2 8.8.4 6.3.4 10.3-3.6 12.4-1.1.6-4.5 2.3-11.3-4.1-4.2-3.9-4.5-9.9-4.9-16.3l-.3-3.9c-2-24.1.5-42.2 8-56.9 3.9-7.7 19.7-16.8 41.2-23.8 15.2-5 32-8.5 48.3-10.3-5 2.9-9.7 7.4-13.2 13.8-5.6 10.3-6.7 22.5-7.3 33.1-.8 15.3-.9 30.8-.3 46.1l6.4-.3c-.7-15.1-.6-30.4.3-45.5.6-10.4 1.5-21.3 6.5-30.4 3.7-6.7 8.9-10.9 14.1-12.9 37.5 49.5 63 108.9 71.9 173.9zm-170.9 9.2c-4.5 88.3-9.1 179.6-7.5 264.2-.8-.4-1.6-.7-2.4-1-10.1-3.5-22.2-.7-30.8 6.4-.6-16-5.7-30.1-14.7-40.4-12.8-14.6-33.9-20.5-50.3-14.1-13.9 5.4-22.1 18.2-26.5 27.9-1.7 3.7-3.7 8.7-4.1 14.1-4.2-2.3-9.2-3-14-1.7-5.3 1.4-9.4 4.8-11.7 9.6-4.6-5.2-10.5-9.4-16.8-10.2 3.2-88 10-160.2 21.1-227 7.8-46.7 18.9-82.6 33.6-109.1.6-.8 1.3-1.6 1.8-2.4l-.4-.3c2.9-5 6-9.7 9.2-14 3.9-5.3 8.1-9.4 12.5-12.7-5.6 9.1-10.3 21.3-14.1 36.7-19.1 76.3-25 155.9-30.8 232.8l6.4.5c5.8-76.6 11.7-155.9 30.7-231.7 5.5-21.9 12.7-37.1 21.7-45.3 1.1-.4 2.2-.7 3.3-.9-13 18.8-17.5 46.1-21.6 70.5-.4 2.3-.8 4.6-1.1 6.8l6.3 1.1c.4-2.2.8-4.5 1.1-6.8 4.3-25.9 9.2-55.2 24.1-72.6 4 0 7.9.6 11.4 1.7-4 6.5-5.4 13.8-7.5 24.1l-2.1 10.5c-2.9 14.6-5.7 28.4-7.5 42.6l-.9 7.2c-4.2 32.6-8.2 63.4-10.8 104.5l6.4.4c2.6-40.9 6.6-71.6 10.8-104.1l.9-7.2c1.8-14 4.5-27.7 7.4-42.2l2.1-10.5c3.5-17.9 4.8-24.6 21.1-35.8 5.3-3.6 11.7-5.9 18.1-7.2-2.3 2.4-4.4 5.2-6.2 8.2-5.2 8.8-7.5 18.9-9.5 28.6-9.8 48.2-21.8 123.3-27 276.8l6.4.2c2.8-80.4 8.3-184.3 26.9-275.7 1.9-9.5 4.1-18.7 8.7-26.6 3.5-5.9 8.2-10.4 13.4-13 1.1-.1 2.2-.1 3.2-.1-2.7 11.9-3.4 25.5-2 41.6.1 1.2.2 2.5.2 3.7.4 7 .9 14.9 6.9 20.6 2.6 2.5 5.2 4.2 7.6 5.3-.8 21.5-1.9 43.1-3 66zm6 281.9c-.4-1.6-.9-3.1-1.6-4.6-1.4-3.2-3.2-6-5.5-8.4-.5-24.6-.5-49.8-.2-75.4 4.6 9.4 8.8 19.9 10.1 27 4.1 22.9 2.3 43.4-2.8 61.4zm-206.8 1.6c-2.2-1.2-4.7-2.2-7.6-2.5-5-.5-9.9.8-14.2 3.8.2-4.8 0-9.4 0-9.5-.5-7.1-2.8-13.8-6.5-19.2-6.3-9.3-16.8-14.8-28.3-14.8h-.4c-11 .1-21.1 5.3-27.3 14-6.2-7.7-13.2-14.6-20.8-20.8-12.2-9.9-29.8-18.6-48.1-23.9-1-.3-3.9-.7-7.8-1.1 20.4-1.8 39.6-8.9 58.2-15.8 21.2-7.9 41.2-15.3 62.5-15.3 4.8 0 9.5.4 14.1 1.2l8.1 1.4-4.7-6.7c-1.2-1.7-2.4-3.4-3.5-5-12-17.3-22.4-32.2-41.8-39.7-6.8-2.6-14.1-4-21.7-4-13.9 0-28.7 4.4-42.8 12.8-16.4 9.7-30.4 23.3-43.8 37.2 1.5-3.1 3.1-6.4 4.9-10 1.5-3 3-6.2 4.8-9.7 8.5-17.2 16.4-37.3 9.8-56.1-4.1-11.8-13.7-21.7-28.1-29.1 7.1-24.9 23.5-60 32.5-76.9 9-16.9 23.5-29 40-38.8-11.6 12-21.8 26.7-30.1 43.9-9.6 19.8-14.6 39.6-17.9 52.8-1 4.1-1.9 7.6-2.7 10.3l6.1 1.8c.9-2.9 1.8-6.4 2.8-10.6 3.2-12.9 8.2-32.4 17.5-51.6 13.4-27.6 31.7-48.8 52.8-61.4 3.4-1.6 6.8-3.1 10.1-4.7l6.8-3.1c7.8-3.6 15.3-7 23.2-10.5-11.3 11.7-18.4 26.9-22.2 46.9l6.3 1.2c5.2-27.5 17-45.1 38-57l-.2-.3c2.7-1.1 5.6-2.2 8.5-3.3-6.4 5.6-12.1 12.2-16.1 19-8.3 14.1-13.3 29.9-17.1 43.4-6.5 23.5-14.8 58.9-16.5 81.4l6.4.5c1.6-20.6 9.3-55.2 16.2-80.2 3.7-13.2 8.5-28.4 16.4-41.9 7.3-12.4 21.3-24.5 34-29.5-.6 1.8-1.2 3.5-1.6 5.2l-1.4 6.1 5.8-2.5c3.6-1.6 7.2-3.1 10.9-4.8 11.5-5.2 23.3-10.4 35-14-6.1 3.2-11.3 7.1-15 12.1-2.1 2.9-3.6 6.1-4.6 9.5-6.3 7.9-12.5 25.2-18.5 51.5-5.8 25.3-10.9 57.4-15 93-8.8 77.8-10.7 158.1-5.2 214.9-.4 3.5-.4 7.2-.2 10.4zm-182-20.7c-5.2-9.4-6.9-19.6-8.7-30.4-1-6-2-12.2-3.7-18.4 37.6 14 88.5 45.3 135.8 114.9-59.3-3.5-100.9-25.7-123.4-66.1zm18.9-160.9c5.7 16.4-1.6 34.9-9.5 50.8-1.7 3.5-3.3 6.7-4.8 9.7-6.7 13.7-11 22.5-18.4 33.8 11.2-28.5 15.8-53.3 13.9-75.7-1.7-20.5-10.4-38.7-23.5-50.8 2.3.7 4.6 1.5 6.9 2.3 13.1 4.8 29.8 13.9 35.4 29.9zm-8.2 101.2c-2.2 0-4.4 0-6.5-.1-2.1 0-4.3-.1-6.4-.1-2.3 0-4.9 0-7.7.2 1.2-1.4 2.4-2.8 3.5-4.2 42.6-39.3 106.8-58.6 149-27.4h-.7c-22.5 0-44 8-64.9 15.7-18.8 7-38.2 14.2-58.4 15.6-2.4.2-5 .3-7.9.3zm7-30.1c11-11 22.5-21.3 35.4-28.9 13.1-7.7 26.6-11.8 39.3-11.8 6.8 0 13.2 1.2 19.2 3.5 14.8 5.7 23.7 16.3 33.3 29.7-35.9-25.5-86-17.7-127.2 7.5zm-24.5-51.9c1.7 20.5-2.3 43.3-12.2 69.4-4.6-38.1-20.3-71.4-33.8-94-6.1-10.2-14.8-22.6-28-28.1-3.7-1.5-7.8-2.3-12-2.3-1.3 0-2.7.1-4 .2 18.3-3.9 37.4-4.2 55.8-1l-.2.3c19.1 9.3 32.3 30.5 34.4 55.5zm14.4 94c9.3.8 17.9 1.7 19.4 2.1 17.5 5 34.1 13.2 45.7 22.6 22 17.9 37.9 42.2 48.4 74.1-38.9-53.6-79.7-82.9-113.5-98.8zm205-146.2c-6.3-2.4-13.7-4-19.1-4.7l.6-5.4c1-9.2 2.2-18.2 3.3-26.8 1.4.1 2.9.2 4.5.3 5.2.4 11 .8 15.9 1.1-1.9 11.7-3.6 23.5-5.2 35.5zm6.3-42.2c0 .2-.1.3-.1.5-5.1-.4-11.1-.8-16.5-1.2-1.4-.1-2.8-.2-4-.3.9-6.4 1.9-12.6 2.8-18.6 7.4-1.4 13.6-2.2 20.6-3.2.5-.1 1-.1 1.5-.2-1.5 7.3-2.9 15-4.3 23zm5.8-29.7c-1.3.2-2.5.3-3.8.5-6.4.8-12 1.6-18.6 2.8 5.3-30.8 11.3-55.3 17.3-70.2.2 5 .9 10 1.7 14.6l.9 5.1 4.2-3c6.1-4.4 12.5-9.2 18.6-14.2-8.1 18-14.8 39.4-20.3 64.4zm28.9-82c-7.1 8.6-17.2 16.4-26.8 23.5-1.5-10.6-1.7-22.5 4.2-30.5 8-10.9 26.9-16.3 39-19.5l.9 2.2c-2.3 2.3-4.5 4.8-6.5 7.5-3.8 5.1-7.4 10.7-10.8 16.8zm19.5-35.2c-9.2-20.5-19.6-35.7-31.5-46.3 5.9 1.2 11.8 2.6 17.6 4.3 4.5 1.3 9.1 2.7 12.1 5.8 2.3 2.4 3.9 5.9 4.8 10.7 1.6 8.5.5 17.5-3 25.5zm-44.1-6.5c1.8-.4 3.8-.5 5.7-.5 9.3 0 18.7 3.9 27.1 8.6-20.1 1.6-40.5 10.7-58.6 18.9-1.5.7-2.9 1.3-4.3 1.9 5.4-12.6 18.1-26.6 30.1-28.9zm-41 388.2c-4.1-52.4-2.3-121.8 4.8-190.4 5.4.7 13 2.4 18.9 4.9-7 53.5-11.5 111.7-13.9 179.1-1.5.4-3 1-4.5 2-2.1 1.2-3.8 2.7-5.3 4.4zm-279.7-468.5c32.3-36 70.6-64.9 113.9-86 39-19 80.7-30.9 123.9-35.4-8.5 3.7-16.8 7.8-25 12.1-15 7.8-32 17.8-45 32.6-13.9 15.8-20.7 34.9-18.6 52.5.8 6.6 2.7 13 4.6 19.3 3.3 10.7 6.4 20.9 3.5 30.7-4.8 16.4-24 24-39.3 27.5-17.6 4-36.1 5.7-53.9 7.3-19.9 1.8-40.5 3.7-60.2 8.8-25.6 6.6-49.6 19-70.4 35.5 16-38.4 38.4-73.7 66.5-104.9zm-73.4 122.3c.7-2 1.5-4 2.2-5.9 21.9-19.5 48.1-34.1 76.4-41.4 19.3-5 39.6-6.8 59.3-8.6 18-1.6 36.6-3.4 54.6-7.4 16.8-3.8 38.1-12.4 43.7-31.6 3.4-11.5-.1-23-3.5-34.1-1.8-6-3.7-12.2-4.4-18.3-1.9-15.9 4.4-33.4 17.2-47.9 12.4-14.1 28.9-23.7 43.4-31.3 13.4-7 27.1-13.2 41.1-18.7h.3c6.7-.4 13.5-.5 20.2-.5 79.7 0 153.9 25.2 214.6 68.2-72.6-11.3-147.8-14.6-216 12.1-10.1 3.9-23.9 10.7-27.4 23.8-2.1 7.6-.1 15.1 1.8 22.4.7 2.6 1.4 5.2 1.8 7.8 2.8 15 .5 27.4-6.9 36.8-15.8 20.2-51.3 24.9-83.9 26.8l-2.3.1c-31.9 1.9-64.8 3.8-96.9 9.7-37.2 6.8-71.8 19.9-99.8 37.9-19.7 12.6-35.8 27.3-48.4 44 3.5-14.9 7.7-29.5 12.9-43.9zm-15.9 58.7c12.9-20.8 31.2-38.9 54.6-53.9 27.4-17.6 61.2-30.4 97.7-37 31.7-5.8 64.5-7.7 96.1-9.6l2.3-.1c33.9-2 70.9-7 88.2-29.1 8.5-10.8 11.2-24.8 8.1-41.5-.5-2.8-1.2-5.5-1.9-8.2-1.8-6.8-3.5-13.3-1.8-19.4 2.9-10.5 15-16.4 23.9-19.9 70.4-27.6 148.9-22.5 224.2-10 23.4 17.8 44.7 38.4 63.3 61.2-43 5-85.4 21.1-93.7 37.5-1.7 3.3-3.1 6.8-4.3 10.4-2.4.4-4.8 1.1-7.2 2.2-10.6.7-23 3.1-32.7 9.8-5.4 3.7-9.3 7-12.3 10.3-10.3-3.9-21.5-3.7-32.5.6-4.4 1.7-8.6 4.1-12.6 7l-.2-.1c4.7-9.5 6.2-20.5 4.3-31-1.1-6.1-3.3-10.7-6.5-14.1-4.1-4.2-9.6-6-14.9-7.5-10.4-2.9-21-5.2-31.7-6.7l-15.7-2.3 13.6 8.2c14 8.4 26 23 36.7 44.5-8.9-4.9-19-8.9-29.2-8.9-2.4 0-4.7.2-7 .7-7.9 1.5-16.3 7-23.7 15.3-2.8 3.2-5.3 6.6-7.4 10-39.2 13.5-60.2 23.1-84.3 34.2l-1.4.6c-11.5-11.2-29-20.7-38.7-20.8-3 0-5.3.8-6.9 2.4l-1 1v1.5c.1 4 1.1 7.9 2.9 11.5-3.9-1-7.9-1.6-11.8-1.1-3.7.5-6.6 3-7.6 6.6-.7 2.6-.3 5.3 1.1 7.5-12.4 1.9-23.7 7.2-32.7 15.2-.4-8.2-2.9-16.3-7.2-23.3-1.5-2.4-4.2-3.6-7-3.1-2.7.5-4.8 2.6-5.3 5.3-.8 4.4-.9 8.8-.5 13.2-3.2-2-6.8-3.4-10.7-4.1-3.8-.6-7.5 1.1-9.3 4.5-1.8 3.3-1.3 7.3 1.3 10.1.7.8 1.5 1.5 2.3 2.2.6.5 1.3.9 2.3 1.3-11.2 3.4-18.3 8.8-22 16.7-3 6.5-3.9 13.9-2.8 21-3.1-.9-6.5-.8-9.8.5-1.7.7-3.2 1.6-4.5 2.6 0-.9 0-1.8.1-2.7.2-7.9.5-16.9-5.8-21.3l-2.2-1.5-2 1.7c-4.8 4.1-6.9 12.4-7.6 21.1-2.7-3.2-6-5.8-9.9-7.4l-2.6-1-1.6 2.3c-3.9 5.6-3.4 15.2 1.4 28.5-8.5 2.1-20.6 13.3-26.8 19.5-.3-1.6-.8-3.2-1.6-4.7-2.4-4.7-7.2-7.6-11.8-7.2-4.7.4-8.9 4-10.6 9.2-.4 1.1-.6 2.2-.8 3.3-2.9-2.4-5.8-4.1-8.9-5.2-7.2-2.5-15.1-.8-19.6 4.2-4.3 4.8-4.9 11.2-4.8 17.5 0 1.9.1 3.8.4 5.7-4.9-1.7-10.1-2.5-15.3-2.4-1-28.1.9-56.1 5.9-83.5zm-5.3 90.6c7.1 0 14.2 1.9 20.2 5.9l4.2-5.6c-2.5-2.2-2.9-6.6-2.9-10.6 0-4.9.3-9.8 3-12.8 2.6-2.9 7.6-3.8 12.1-2.2 4 1.4 7.7 4.3 11.9 9.3l6.9 8.2-.7-10.7c-.2-3.2-.4-6.5.5-9.3.7-2 2.4-4.2 4.5-4.4 2.1-.2 4.1 1.6 5 3.5 1.3 2.6 1.5 5.8 1.4 8.7l6.8.1 1.3 1c.8-1.1 6.5-7 13.1-12.5 9.5-7.9 13.8-8.9 14.7-8.7h-.1l6.4-2.7c-4.8-11.2-6.8-20.3-5.9-25.5 4.3 3 7.9 8.4 9.4 14.2.2 2.8.5 5.3.9 7.3l6.9-.5c.1-2.6-.2-5.3-.9-8.1-.7-9.9.3-20.6 3-26.3 1.1 3.2.9 7.9.8 12.3-.1 2-.1 3.9-.1 5.7.1 4.3.3 9.4 1.1 13.4.2 1.1.5 2.3.9 3.4l6.6-2.3c-.2-.6-.4-1.2-.5-2-.9-5 1.5-9.7 6-11.5 4.3-1.7 8.1.4 10.7 3.6.7 1.3 1.4 2.5 2.2 3.8l6.1-3.4c-.7-1.5-1.5-2.9-2.4-4.1-3.7-7.7-3.9-17-.3-24.8 2.5-5.3 7.9-11.9 27.3-15.2 2.2-.4 3.2-2 3.3-3.3.3-3.1-2.3-4-7.3-5.8-1.8-.6-4.8-1.7-5.5-2.1-.6-.5-1.1-1-1.6-1.5-.8-.8-.5-1.6-.3-2 .2-.3.8-1.1 2-.9 6.5 1.1 12.3 5.2 15.2 10.7l6.3-2.9c-2.7-6.7-3.5-14.3-2.4-21.5 4.9 8.3 6.8 18.3 5.3 27.6l-2.2 13.2 8.4-10.5c10-12.5 25.4-20 42.4-20.5l9.6-.3-11.7-9.2c-1.1-.9-.9-2.1-.8-2.5.1-.5.5-1.4 1.7-1.5 6.4-.8 14.3 2.5 20.6 5.1 1.5.6 2.9 1.2 4.2 1.7l2.5-6.5c-6.3-2.5-11.2-8.8-12.1-15.6h.7c6.5.1 21.2 7.4 31.8 16.9l-8.4 3.9v-.1c-.2.1-.3.2-.5.3-28.5 13.3-56.3 28.3-71.1 56.2-9 16.9-25.3 51.8-32.7 77.1-1.8-.8-3.6-1.5-5.5-2.2-29.2-10.7-61.8-12.1-92-3.9-5.2 1.4-9.4 4.7-11.6 9-1.9 4-2 8.6-.2 13l3 7.3 3.2-7.3c4.6-10.3 18.6-12.9 28.3-8.9 11.3 4.7 19.1 16 24.7 25.3 12.2 20.3 26.1 49.5 31.7 83-27-55.1-64.6-86-105.9-86-9.6 0-19.5 1.7-29.4 4.9-6.4 2.1-12.5 5.2-18.4 8.8-2.5-15.1-4.5-30.5-5.4-46.2zm82.8 3.4c-2.3.8-4.4 1.9-6.3 3.3 1.4-1.4 3.3-2.4 5.5-3 .2-.1.5-.2.8-.3zm76 128.6c-27.2-36.2-61.3-72.9-107.9-83.6-10.5-2.4-27.9-.2-42.1 3.2 5.6-3.5 11.3-6.4 17.3-8.4 9.3-3.1 18.5-4.6 27.4-4.6 41.3 0 79.1 33.8 105.3 93.4zm-150.6-73.3c13.5-3.4 31.2-5.9 41.1-3.6 42.7 9.8 74.7 42.9 100.6 76.5-42.9-25.1-89.1-39.5-133-41.2-3.4-10.4-6.3-21-8.7-31.7zm10.7 38c41 2 84.1 15.3 124.3 38.2h-.9c-14.2-5.1-28.4-7.8-41.9-7.8-10.2 0-20.1 1.5-29.4 4.5-11.2 3.6-19.8 8.8-26.5 15.8-.9 1-1.8 2-2.6 3.1-8.9-17.2-16.7-35.2-23-53.8zm26.7 60.5c1.2-1.8 2.5-3.5 4-5.1 5.8-6.2 13.5-10.8 23.5-14 8.6-2.8 17.8-4.2 27.3-4.2 6.7 0 13.6.7 20.6 2.1-31.6 4.7-42.8 22-46.8 33.5-3 8.4-3.9 17.9-3 27.7-9.3-12.8-17.9-26.1-25.6-40zm34.8 52c-3.6-13.2-3.6-26.6.2-37.5 7.1-20.1 28.5-30.7 60.5-30 6.7 2.5 13.5 5.5 20.2 9.1 1.7.9 2.8 1.7 3.1 2.7.1.2.1.3.1.4-.1-.4-.1-.8 0-1.3-.1.7 0 1.7.5 2.9 3.9 9.2-7.7 16.2-24.7 25-.1 0-.1.1-.2.1-.2.1-.3.2-.5.2-3.5 1.8-6.8 3.5-9.8 5.2-13.5 7.7-28.5 22.5-36.9 38.1-4.2-4.8-8.4-9.8-12.5-14.9zm57.7-19.9v.8c0 6.8.3 13.6.9 20.4l-.2-.2c-6.2 5.3-10.6 12.5-12.7 20.3-5.5-5.7-13-9.5-21-10.5l-.8-.1-.7.3-.6.3c7.2-10.7 17.7-21.5 30.2-28.7 1.6-.8 3.2-1.7 4.9-2.6zm-40.2 40.3c.4-.8.8-1.7 1.3-2.5l4.2 1.7c.4-.9 1.1-1.7 2-2.3 8.1 1.3 15.8 6.3 20.1 13.3l5.2 8.5.7-10c.5-7.5 3.6-14.7 8.6-20.3 3.3 23.7 10.7 46.5 21.8 66.6a368.35 368.35 0 0 1-63.9-55zm75.9 63c-19.1-29.2-29.7-65.6-29.4-102.5 0-.6 0-1.2-.1-1.9 0-.5-.1-1.3-.1-2 10.2-5.3 21.7-11.4 26.3-19.4.1.7.2 1.5.4 2.2 1.8 10.9 3.6 22.2 9.5 32.6 4 7.1 8.5 13.7 13.6 19.7 6.5 28.9 15.7 53.3 28.1 74.5 6.8 11.6 14.6 22.2 23.3 31.6-25.3-9.1-49.2-20.8-71.6-34.8zm217.5 56.1c-6.7.4-13.5.5-20.2.5-39.2 0-77-6.1-112.6-17.4-11.8-11-22.3-24.2-31.1-39.2-10.5-18-18.6-38.3-24.8-62 26.3 25.4 64.4 39.1 113.6 40.8l4.5.2-1.1-4.4c-7-29.2-17.7-53.2-32.4-72.6l1.1.7c5-7.7 13.6-12.4 23.1-12.5 9.5-.1 18.3 4.4 23.4 12 3.1 4.6 5 10.2 5.4 16.2.2 3.2-.1 14.3-.7 16.2l.2-.4 5.1 3.6c3.8-5.5 9.5-8.4 15.1-7.9 3.3.3 6.5 2.1 10.2 5.6l7.5 7.1-2.3-10.1c-1-4.4-1.6-10.9-.4-16.3 1.1-4.9 3.9-9 7.6-11.2 3.8-2.3 7.8-2.2 12.3.3 3.8 2.1 7.7 6 10.8 10.6l4.5 6.7 1.2-8c.8-5.4 4.2-9.3 9.1-10.7 5-1.3 10.1.4 13.4 4.5l8.3 10.4-2.8-13c-1.1-4.9 0-10.5 3.3-17.8 3.9-8.7 11.1-20 23.1-24.7 13.8-5.4 32.4-.1 43.3 12.4 9.4 10.8 14 26.4 13.1 44.1l-.2 3.3c-2.3-.8-4.7-1.2-7.1-1.3-11.4-.3-22.5 7.8-25.8 18.7l6.1 1.8c2.5-8.3 10.9-14.4 19.5-14.1 2.4.1 4.7.6 6.9 1.5v.8l.4-.6c5.5 2.5 10 7.5 11.4 13.4l6.2-1.5c-1.8-7.4-7.2-13.7-13.9-17.2l2.1-2.9c6.5-9.1 19.4-13.6 29.4-10.2 4.5 1.5 8.3 5.4 10.6 10.7 3 7 2.8 15.2-.6 22.5l.4.2c-6.5 14.4-14.7 26.6-22.6 36.3-26.1 32.1-65.3 57.3-107.7 69.3-15.1 3-30.4 4.8-45.9 5.6zm256.9-122.9c-32.3 36-70.6 64.9-113.9 86-16.5 8-33.4 14.8-50.7 20.2 26-13.7 49.1-32.2 66.5-53.6 30.2-37.2 42.1-80 34.4-123.6-2-11.1-9.8-28.4-16.4-39.5.8-39.5 2.4-79.7 4.3-119.8 17.4 7.1 33.3 15.8 47.5 26 7.1 5.1 13.9 10.8 20.3 16.9-10.2-6.3-19.2-9.4-27.4-9.4-2.7 0-5.3.3-7.9 1-8.7 2.3-16.4 8.9-21.8 18.4-4.7 8.5-7.1 18.2-8.9 26l-2.2 9.4 7.4-6.3c10-8.5 23.8-13.2 38.9-13.4h.7c12.6 0 26.3 3.2 40.7 9.4 2.2 1 4.6 2.1 7 3.4-.7-.1-1.3-.3-1.9-.4-1.1-.2-2.1-.4-2.9-.6-4.5-1-8.5-1.5-12.3-1.5-6 0-11.3 1.2-16.3 3.6-6.8 3.3-12.2 8.7-16.2 13-16.2 17.5-25 37.5-24.7 56.1l.1 7.4 5.3-5.1c12.9-12.4 27.1-23.7 42.2-33.5 6.4-4.2 13.7-7.5 20.7-10.8 7.2-3.3 14.6-6.8 21.4-11.2.7 1.3 1.4 2.6 2 3.9 7.9 15.7 13.9 32.3 18.1 49.5-14.4 28.4-32.5 54.6-54 78.5zm34.3-148.7c-2.2-5.8-3.8-11.1-5.8-17.4-.6-2-1.3-4.1-2-6.3-3.1-9.7-6.6-22.5-7.2-35.6-.5-11.1 1.2-21.3 5-30 .1.1.2.2.2.3.9 1 1.8 1.9 2.9 3.5 2.8 4 5.6 8.1 7.8 12.5 3.9 7.9 5.5 16.6 6.6 24.1 3.1 20.7.6 37.1-7.5 48.9zm-3.4 11.3c-6.4 4.2-13.6 7.5-21 11-7.2 3.3-14.7 6.8-21.5 11.2-13.2 8.6-25.7 18.2-37.3 28.8 1.9-14.7 9.7-30.1 22.6-43.9 3.6-3.9 8.4-8.7 14.3-11.5 4.1-2 8.5-3 13.5-3 3.4 0 6.9.4 10.9 1.3.9.2 1.9.4 3.1.6 4.2.9 10.5 2.1 14.7 4.1.2.5.5 1 .7 1.4zm-12.5-19.7c.4.6.8 1.1 1.2 1.7-1.9-.9-3.7-1.8-5.4-2.5-15.2-6.6-29.8-10-43.3-10h-.7c-13.2.1-25.5 3.5-35.6 9.6 1.6-5.9 3.4-11.1 6.2-16 4.4-7.9 10.9-13.5 17.9-15.3 2-.5 4.1-.8 6.2-.8 7 0 15 2.8 24.2 8.5 10.7 6.8 20.8 15.3 29.3 24.8zm54.9 34.7c-4.4 12.1-9.3 23.8-14.9 35.3-2.6-9.4-5.8-18.7-9.5-27.8l.6.9-8.2-18.4 5.3 3.6c2.4 1.7 5.2 3.6 8.3 4.7 2.4.9 5 1.3 7.9 1.3 3.7 0 7.5-.7 11.1-1.6-.1.7-.3 1.4-.6 2zm3.2-9.2c-.2 0-.3.1-.5.1-4.6 1.2-9 2.3-13.2 2.3-2.1 0-4-.3-5.8-.9-2.4-.9-4.7-2.4-6.9-4l-9.3-6.4c5.6-7.9 15.4-13.1 25.3-13.1 1.6 0 3.2.1 4.7.4 3.9.7 7.5 2.1 10.8 4.2-1.4 5.9-3.2 11.7-5.1 17.4zm7-23.6c-3.6-2-7.4-3.5-11.5-4.2-1.9-.3-3.8-.5-5.8-.5-8.2 0-16.2 2.8-22.6 7.6 5.7-12.2 7.3-27.7 4.6-46.2-1.2-8-2.9-17.4-7.2-26-2.3-4.8-5.3-9.1-8.2-13.3-1.4-2.1-2.5-3.3-3.5-4.3-.9-1-1.8-1.9-2.9-3.5l-2.9-4.2-2.5 4.5c-5.9 10.5-8.6 23.5-8 37.7.6 13.8 4.3 27.1 7.5 37.2.7 2.2 1.3 4.3 2 6.3.3 1.1.6 2.1 1 3.1 0-.1-.1-.1-.2-.2-13.5-18.8-29.6-35.2-47.7-48.2-15.1-10.9-32.2-20.2-50.9-27.6v.1c.8-16.2 1.6-32.3 2.4-48.4 35 6.8 67.9 17.8 97.9 32.9 24.6 12.4 47.5 27.9 68.1 46-2 17.2-5.2 34.3-9.6 51.2zm-55.7-103.1c-30.8-15.5-64.6-26.8-100.5-33.6 1.1-21.9 2.2-42.7 3.1-63.4 1.6-.1 3.1-.5 4.6-1.3 8-4.1 7.5-12.1 7.1-18.5-.2-2.7-.3-5.2.1-7.2.6-3.3 3.7-6.8 6.6-7.6.8-.2 1.3-.2 1.8 0 .1 6-.1 15.2-.2 24.9-.1 10.3-.3 21-.2 28.3v.3c.1 10.5.2 21.4 3.3 31.9 2.9 10 7.9 21.6 20.9 22 2.6.1 13.2-.6 16.8-5.4 2.3-3.1 2.8-6.8 3.1-9.8v-.2l-.8-25.3h.1c.2 0 .2 0 .3.1 7.4 8 20.1 10.5 29.4 5.9 13.3-6.6 13.2-21.6 13.2-36v-.7c0-4.9.5-5.8 1.9-6.2 3.3-.9 7.3.4 9.3 3.2 2.4 3.2 2.6 7.9 2.5 13.2l-.7 52.7c-.1 9.9-.3 22.1 5.2 32.3 4.2 7.8 12.1 13.4 20.1 14.3.8.1 1.5.1 2.3.1 5.5 0 10.6-2.3 14.5-6.8 1.5-1.7 2.8-3.7 3.8-5.9.3 14.3-.1 28.6-1.4 42.7-20.3-17.2-42.5-32-66.2-44z" fill="#231f20"/></svg>