<svg xmlns="http://www.w3.org/2000/svg" viewBox="0 0 758.25985 758.30002"><g transform="translate(-46.083 -46)"><path d="M708.3 621.3c12.4-.2 24.8-.1 37.2.2-6.6 10.8-13.8 21.3-21.5 31.3v-.1c2.2-10.5-2.5-21.6-15.7-31.4z" fill="#bf86bb"/><path d="M708.3 621.3c13.2 9.8 17.8 20.9 15.7 31.4v.1c-23.9 31.3-52.5 58.8-85 81.3 8.8-37.7 8.4-78.6-6.7-108.1l-.1-.7c17-1.5 34-2.7 51-3.3 4.9-.2 9.8-.4 14.6-.5 3.6-.1 7-.1 10.5-.2z" fill="#bf86bb"/><path d="M632.3 626.1c15.1 29.4 15.5 70.3 6.7 108.1-40 27.8-85.8 48-135.4 58.5l-.1-.7c-8.2-27.9-1.7-57.3 7.6-84.8 9.3-27.5 32.2-56.1 55.6-73.3l-.1-.4c10.2-1.6 20.4-3.1 30.6-4.4 11.6-1.5 23.3-2.7 35-3.8l.1.8z" fill="#bf86bb"/><path d="M566.7 633.5l.1.4c-23.4 17.2-46.3 45.8-55.6 73.3-9.3 27.5-15.8 56.9-7.6 84.8l.1.7c-18.9 4-38.5 6.6-58.4 7.7-23 1.2-45.6.4-67.7-2.4 2.1-58.6 42.5-117.7 115.9-150 10-2.4 20-4.6 30.1-6.6 14.3-3.1 28.6-5.7 43.1-7.9z" fill="#bf86bb"/><path d="M400.3 675.6c1.2-.6 2.3-1.2 3.5-1.8 20.7-7.1 41.7-13.5 63-19.2 8.8-2.4 17.7-4.6 26.6-6.7-73.3 32.3-113.8 91.4-115.9 150-29.6-3.7-58.1-10.9-85.3-21.2 10.3-41.6 56.8-74.7 108.1-101.1z" fill="#bf86bb"/><path d="M328.2 703.5c23.4-10.4 47.3-19.9 71.8-28.4.1.2.2.3.3.5-51.3 26.4-97.8 59.5-108 101.1-18.7-7.1-36.7-15.6-53.8-25.5 3.5-2.3 7-4.6 10.6-6.9 14.1-8.8 28.9-16.8 43.9-24.3 11.6-5.7 23.3-11.2 35.2-16.5zm269-74.6v.2c-10.2 1.3-20.4 2.7-30.6 4.4-14.4 2.3-28.8 4.9-43.1 7.8l-.3-1.7c-31.3-31.3-87.3-58.8-146.1-69.4 38.4 4.3 76.4 10.8 113.3 19.5 38.2 8.9 75.9 20.3 106.8 39.2z" fill="#bf86bb"/><path d="M493.5 647.9c-8.9 2.1-17.8 4.3-26.6 6.7-35.5-41.1-108.5-85.9-174.5-90v-.5c19.2.6 38.3 1.7 57.3 3.4 9.2.8 18.4 1.7 27.5 2.7 58.8 10.6 114.7 38.1 146.1 69.4l.3 1.7c-10.1 2-20.1 4.2-30.1 6.6z" fill="#bf86bb"/><path d="M466.8 654.6c-21.3 5.7-42.3 12.1-63 19.2-1.3.4-2.5.9-3.8 1.3-33.1-55.4-86.3-93.9-181.9-110.7 24.8-.9 49.6-1 74.2-.2v.5c66 4 139 48.7 174.5 89.9z" fill="#bf86bb"/><path d="M218.1 564.3C313.7 581.2 366.9 619.6 400 675c-24.4 8.5-48.4 18-71.8 28.4-42.2-81.6-111.6-128.2-176.1-134.7 22-2.1 44-3.6 66-4.4z" fill="#bf86bb"/><path d="M328.2 703.5c-11.9 5.3-23.6 10.8-35.2 16.6-15 7.5-29.8 15.5-43.9 24.3l-1.5-2.4c-17.5-70.9-75.5-145.8-150.4-166.3 18.2-2.8 36.6-5 55-6.8 64.4 6.4 133.7 53 176 134.6z" fill="#bf86bb"/><path d="M247.6 742l1.5 2.4c-3.6 2.2-7.1 4.5-10.6 6.9-68.6-39.4-123.9-99.9-156.6-173.1 5.1-.9 10.2-1.7 15.2-2.4 75 20.4 133 95.3 150.5 166.2z" fill="#bf86bb"/><path d="M690.6 435.7c-7.4 1.3-12.1 24.2-12.5 39.5-.1 4.5.1 9.3-1.1 13.4-.8 3.1-2.3 5.4-3.7 7.8-5 8.4-9.6 17.9-12.2 28.9-49-.2-95-.4-144.1-.5-9.6 0-19.5 0-28.6 3.2-8.7 3.1-16 9-23.7 14.1-33.4 21.9-67.7 27.3-115 25.5-19-1.6-38.1-2.8-57.3-3.4-24.7-.8-49.5-.7-74.2.2-22 .8-44 2.3-65.9 4.5-18.4 1.8-36.7 4.1-55 6.8-5.1.8-10.2 1.6-15.2 2.4-18.2-40.8-29.3-85.6-31.9-132.8 0-.6-.1-1.2-.1-1.9.4 0 .8 0 1.2-.1 22.6-.9 43.4 10.7 64.9 17.8 21.4 7 48.4 8.3 63.2-8.7 8.8-10 12.1-25 21-34.1 2.1-2.1 4.4-3.8 7.2-5.2 12-5.7 26.6.2 39.2-4 15.6-5.2 21.3-21.9 26.5-38.4 1.5-4.6 2.9-9.2 4.5-13.5 20.7-56.1 101.9-78.3 148.3-40.5 16.2 13.2 27.7 31.5 44.1 44.3 16.5 12.9 41.8 18.8 57.4 5 9.4-8.4 13.4-22.5 24.5-28.5 15-8.1 36 2.3 49.5-8 8.6-6.5 10.2-18.4 12.8-28.9 9.1-36.1 39.2-66 75.3-75 18-4.5 37.2-3.6 54.9 1.8 32.2 51.9 52.2 112.5 55.7 177.8 2.2 41.8-2.5 82.3-13 120.5-21.9-.1-44-.1-65.3-.2l-1.8.4c-2.6-11.3-7.3-21-12.4-29.5-1.4-2.4-2.9-4.8-3.7-7.8-1.1-4.1-.9-8.9-1.1-13.4-.5-15.3-4-38.2-12.4-39.5z" fill="#a0b9e1"/><path d="M708.3 621.3c-3.5 0-7 .1-10.5.2v-.9l-.1-37.1s14.7-6.4 20-17.1c5-10.2 5.5-25.1 3-37.6-.2-1-.4-2-.6-2.9l1.8-.4c21.3.1 43.4.2 65.3.2-9.5 34.1-23.6 66.3-41.8 95.9-12.3-.4-24.7-.4-37.1-.3z" fill="#9eaebf"/><path d="M661.1 525.2c2.6-11 7.2-20.5 12.2-28.9 1.4-2.4 2.9-4.8 3.7-7.8 1.1-4.1.9-8.9 1.1-13.4.5-15.2 5.1-38.1 12.5-39.5 8.4 1.3 12 24.2 12.4 39.5.1 4.5-.1 9.3 1.1 13.4.8 3.1 2.3 5.4 3.7 7.8 5.1 8.6 9.8 18.2 12.4 29.5.2 1 .4 1.9.6 2.9 2.4 12.5 2 27.5-3 37.6-5.3 10.7-20 17.1-20 17.1l.1 37.1v.9c-4.9.1-9.8.3-14.6.5v-1.4l.1-37.1s-15.2-6.1-20-17.1c-4.5-10.4-5.5-25.1-3.1-37.6.2-1.2.5-2.3.8-3.5z" fill="#a4d39c"/><path d="M744.6 227.3c-17.8-5.4-36.9-6.3-54.9-1.8-36.1 9-66.2 38.9-75.3 75-2.6 10.4-4.3 22.4-12.8 28.9-13.5 10.3-34.5-.1-49.5 8-11.1 6-15.1 20.1-24.5 28.5-15.6 13.9-41 7.9-57.4-5-16.5-12.8-28-31.1-44.1-44.3-46.4-37.8-127.5-15.6-148.3 40.5-1.6 4.3-3 8.9-4.5 13.5l-25.1-8.1c-15.8-12.5-14.9-40.5 1.6-51.9 4.7-3.3 10.8-5.9 12.4-11.4 3.6-12-15.2-16.4-24.3-24.9-9.5-8.8-8.1-25.2.1-35.2 8.2-10 21.2-14.8 33.8-17.4 50.1-10.4 105.2 7.6 139.5 45.7 4.6 5.1 9.1 10.8 15.6 13.2 6.6 2.5 14 1.2 21.1 1.4 12.5.4 22.9 6.1 33.4 15.1-7.2-22.8-3.2-47.8 17.5-57.4 4.5-2.1 9.2-4.2 12.4-8 7.1-8.2 3.1-20.9-2-30.5-10.7-20.3-25-40-26.1-62.9-1.3-27.7 18-53.4 42.3-66.8 3.7-2 7.4-3.8 11.2-5.4 86.7 27.2 160.5 84.9 207.9 161.2z" fill="#fff"/><path d="M377.2 570.2c-9.1-1-18.3-2-27.5-2.7 47.3 1.9 81.6-3.5 115-25.5 7.7-5.1 15.1-11 23.7-14.1 9.1-3.3 18.9-3.3 28.6-3.2 49 .2 95.1.3 144.1.5-.3 1.2-.5 2.3-.8 3.5-2.4 12.5-1.5 27.2 3.1 37.6 4.8 11 20 17.1 20 17.1l-.1 37.1v1.4c-17 .7-34.1 1.8-51 3.3-11.7 1-23.3 2.3-35 3.8v-.2c-30.9-18.9-68.6-30.3-106.7-39.2-37.1-8.5-75-15-113.4-19.4z" fill="#9eaebf"/><path d="M536.6 66.3c-3.8 1.6-7.6 3.4-11.2 5.4-24.3 13.4-43.6 39-42.3 66.8 1.1 22.9 15.4 42.7 26.1 62.9 5.1 9.6 9.1 22.3 2 30.5-3.2 3.7-7.9 5.9-12.4 8-20.6 9.6-24.6 34.6-17.5 57.4-10.4-9-20.8-14.8-33.4-15.1-7.1-.2-14.5 1.1-21.1-1.4-6.4-2.5-11-8.1-15.6-13.2-34.2-38.1-89.3-56.1-139.5-45.7-12.7 2.6-25.6 7.4-33.8 17.4-8.2 10-9.6 26.4-.1 35.2 9.2 8.5 27.9 12.9 24.3 24.9-1.6 5.5-7.7 8.1-12.4 11.4-16.5 11.5-17.4 39.4-1.6 51.9-27.7-7.6-59.8 10-68.2 37.5C151 367.9 110 343.6 67 346.5c-3.2.2-6.3.6-9.4 1.2C91.7 185.2 231.5 59.4 405.1 50.1c45.8-2.5 90.1 3.4 131.5 16.2zM193.1 287.1c0-19.3-15.7-35-35-35s-35 15.7-35 35 15.7 35 35 35 35-15.7 35-35z" fill="#a0b9e1"/><path d="M248.1 362.6l25.1 8.1c-5.2 16.5-11 33.3-26.5 38.4-12.6 4.2-27.2-1.7-39.2 4-2.8 1.3-5.1 3.1-7.2 5.2L179.8 400c8.5-27.4 40.6-45 68.3-37.4z" fill="#fff"/><path d="M179.8 400l20.4 18.3c-8.9 9.1-12.2 24.1-21 34.1-14.9 17-41.8 15.8-63.2 8.7-21.5-7.1-42.3-18.6-64.9-17.8-.4 0-.8 0-1.2.1-1.6-32.8 1.1-64.9 7.5-95.7 3.1-.6 6.3-1 9.4-1.2 43.2-2.9 84.2 21.4 113 53.5z" fill="#fff"/><circle cx="158.1" cy="287.1" r="35" fill="#fff3ab"/></g><g fill="#231f20"><path d="M757.717 359c-3.3-62.3-21.6-120.4-51.1-171-1.9-3.2-3.8-6.4-5.7-9.5-46-73.7-116.5-130.2-199.8-158.5-3.5-1.2-7-2.3-10.5-3.4-35.2-10.8-72.5-16.6-111.2-16.6-6.8 0-13.7.2-20.6.5-51.1 2.8-100.1 15.5-145.7 37.7-44.1 21.5-83.1 50.9-116 87.6-32.9 36.6-58 78.6-74.7 124.7-5.7 15.9-10.4 32-13.9 48.4l-1.5 7.2c-5.7 28.8-7.9 58.3-6.7 88.2.1 1.7.1 3.4.2 5.1 0 .6.1 1.3.1 1.9 2.6 45.3 13.2 88.5 30.2 128 1 2.2 1.9 4.4 2.9 6.6 32.3 71.2 85.8 130.3 152.3 169.7 2 1.2 4.1 2.4 6.2 3.6 55.2 31.3 118.9 49.1 186.6 49.1 6.8 0 13.7-.2 20.6-.5 51.1-2.7 100.2-15.4 145.8-37.6 44.1-21.5 83.1-50.9 116-87.6 6.1-6.8 12-13.8 17.6-21l.6.9c2-1.3 2.1-3.3 2.1-4.4 7.2-9.5 13.9-19.2 20.1-29.3 1.3-2.1 2.6-4.2 3.9-6.4 12.1-20.4 22.3-42 30.4-64.5 3-8.2 5.6-16.5 8-24.8.7-2.3 1.3-4.7 1.9-7 10-38 14-77.3 11.9-117.1zm-728.8-106.2c16.4-45.3 41-86.4 73.3-122.4s70.6-64.9 113.9-86c44.8-21.8 92.9-34.3 143.1-36.9 6.7-.4 13.5-.5 20.2-.5 35.1 0 69.1 4.9 101.4 14.1-1.1.6-2.2 1.1-3.2 1.7-28.1 15.5-45.3 42.9-44 69.9.9 19 10.5 35.8 19.7 52.1 2.3 4 4.7 8.2 6.8 12.3 3.6 6.8 8.8 19.4 2.5 26.7-2.7 3.1-7 5.1-11.1 7l-.2.1c-20.1 9.3-25.2 31.3-21.6 51.8-9.3-6.5-18.1-9.6-27.7-9.9-2.1-.1-4.3 0-6.3.1-4.9.2-9.6.3-13.7-1.2-5-1.9-8.8-6.2-12.8-10.7-.5-.5-1-1.1-1.4-1.6-35.2-39.1-91.2-57.5-142.7-46.7-16.7 3.5-28.3 9.5-35.7 18.6-8.9 10.9-11 29.5.2 39.8 3.2 3 7.3 5.4 11.3 7.7 9.4 5.5 13.6 8.6 12.1 13.7-.9 3.1-4.3 5.2-7.9 7.4l-3.3 2.1c-8.6 6-14 16.5-14.4 28.2-.3 7.9 1.8 15.4 5.7 21.5-24.9-2-50.6 13-60.6 36.1-32.9-34.8-73.4-53.2-111.8-50.5-1.6.1-3.2.3-4.8.5 3.4-15.3 7.7-30.3 13-45zm-14.5 51.8c2.2-.3 4.5-.6 6.7-.8 37.8-2.6 77.9 16.5 110.1 52.4.8.9 2 1.3 3.2 1 1.2-.3 2.1-1.1 2.5-2.3 3.8-12.2 13-23.1 25.3-29.9 12.3-6.8 26.5-8.7 38.8-5.3 1.5.4 3.2-.3 3.9-1.7.7-1.4.3-3.2-.9-4.2-6.6-5.2-10.3-14-10-23.6.3-9.6 4.6-18.1 11.5-22.9.9-.6 1.9-1.3 3-1.9 4.3-2.7 9.1-5.7 10.7-11.2 3.2-10.7-6.6-16.4-15.2-21.5-3.7-2.1-7.5-4.4-10.1-6.8-8.3-7.6-6.4-22.3.4-30.6 6.4-7.8 16.8-13.1 31.9-16.2 49.2-10.2 102.7 7.3 136.3 44.6.5.5.9 1 1.4 1.6 4.4 4.9 8.9 10 15.5 12.5 5.4 2 10.9 1.9 16.3 1.7 2.1-.1 4-.1 5.9-.1 10.5.3 20.2 4.7 31.2 14.3 1.1 1 2.8 1.1 4 .3 1.3-.8 1.8-2.4 1.4-3.8-8.7-27.8 1.6-46.8 15.7-53.3l.2-.1c4.5-2.1 9.7-4.5 13.4-8.7 6.7-7.8 6.2-19.6-1.6-34.3-2.2-4.2-4.6-8.4-6.9-12.5-8.8-15.5-18-31.6-18.8-49.1-1-20 11.2-47.5 40.6-63.7 3.1-1.7 6.4-3.3 9.7-4.7 82.9 26 153.6 80.2 200.3 151.8-15.9-3.5-32.4-3.5-48.1.4-37.2 9.2-68.5 40.4-77.8 77.6-.4 1.5-.7 3-1.1 4.5-2 8.6-4.1 17.6-10.5 22.4-6.2 4.7-14.6 4.4-23.5 4.1-8.7-.3-17.7-.6-25.6 3.7-7.2 3.9-11.5 10.5-15.8 16.9-3 4.5-5.8 8.8-9.5 12-14.1 12.5-37.8 6.7-53-5.1-8.2-6.4-15.4-14.5-22.3-22.3-6.7-7.6-13.7-15.4-21.7-22-22.7-18.5-55.1-24.3-86.9-15.7-31.7 8.7-56.7 30.2-66.9 57.6-1.4 3.9-2.8 8.1-4.1 12.2-5.1 16.2-10.4 32.9-24.8 37.7-5.3 1.7-11.1 1.5-17.2 1.3-7.5-.3-15.2-.6-22.4 2.8-10.1 4.8-15 14.6-19.7 24.1-2.8 5.7-5.7 11.5-9.6 16-4.3 5-21.5 20.2-59.5 7.7-5.6-1.8-11.3-4.1-16.9-6.2-15-5.8-30.6-11.8-47-11.8-.9-29.9 1.5-59.7 7.5-88.9zm26.5 230.2l9.9-1.5c34.4 9.6 67.1 31.4 94.4 63 25.4 29.4 44.2 65.1 53 100.6l2-.5c-2.6 1.6-5.2 3.3-7.7 5-66.1-38.4-119.3-96.6-151.6-166.6zm65.1-8.5c67.2 6.8 132.3 56.1 171.4 129.7-10.8 4.9-21.4 9.9-31.9 15.2-12.7 6.3-26.7 13.7-40.9 22.4-9.2-36.1-28.3-72.2-54.1-102-24.6-28.5-53.4-49.2-84.1-60.7 13.1-1.7 26.3-3.3 39.6-4.6zm65.7-4.5c46.1 8.2 83.1 21.5 113.2 40.6 26.2 16.7 47.1 38 63.8 65-22.1 7.8-43.8 16.4-65 25.8-35.2-66.4-91.2-113.6-151.2-129.1 13.1-1 26.1-1.8 39.2-2.3zm442.3 0c4.2 9.7 15 15.7 19.7 18l-.1 33.1c-27 1.2-54.1 3.4-81.1 6.8-33.8-20.5-75.1-31.8-107.3-39.4-30.1-7-60.8-12.7-92-16.9 23.4-3 45.4-10.1 67.2-24.5 1.8-1.2 3.5-2.4 5.2-3.5 5.9-4.1 11.5-7.9 17.8-10.2 8.6-3.1 18.2-3.1 27.4-3l139.8.5c-2.5 13.5-1.2 28.4 3.4 39.1zm30.6-128.4c3.9 2 8.2 16.7 8.8 35.9 0 .9 0 1.8.1 2.7.1 3.8.1 7.8 1.1 11.5.9 3.3 2.5 6 3.8 8.3l.2.4c6.6 11.1 10.6 21 12.6 31.3 2.6 13.2 1.5 26.8-2.8 35.4-4.6 9.4-18.1 15.4-18.2 15.5l-2.1.9.1 37.1c-2.5.1-5.1.2-7.6.2l.1-37.5-2.2-.9c-3.9-1.5-14.6-7.3-18-15.3-4.1-9.4-5.2-23.4-2.8-35.6 2-10.3 6-20.2 12.6-31.3l.2-.4c1.4-2.3 2.9-4.9 3.8-8.3 1-3.7 1.1-7.7 1.1-11.5 0-.9 0-1.8.1-2.7.2-8.1 1.7-17.6 3.7-24.8 2.1-7.5 4.3-10.2 5.4-10.9zm-258.6 142.1c19.4 3.3 38.6 7.2 57.6 11.6 29.3 6.9 66.1 16.8 97.5 34-11.3 1.5-22.7 3.3-34 5.2-9.4 1.6-18.7 3.4-28 5.2l.5-.5c-22.2-22.1-56.1-41.9-93.6-55.5zm-82.5-10.6c8.8.8 17.7 1.6 26.5 2.6 54.7 9.8 109.4 35 141.7 65.6-8.5 1.8-17 3.7-25.4 5.7l-.1-.2c-.4.2-.8.4-1.2.5-7.7 1.8-15.3 3.7-22.9 5.7-27.5-31.2-76.9-64.8-128.4-80.7 3.2.2 6.5.5 9.7.8h.1zm111 82c-19.7 5.4-39.2 11.4-58.3 17.9l-.1-.2-.6.3c-17.4-28.5-39.3-50.9-66.8-68.4-24.2-15.4-52.7-27.1-86.5-35.4 14.7-.1 29.3 0 43.9.5v.5c63.2 3.9 132.6 45.9 168.4 84.8zm-166.2 70.1c22.9-11.4 46.3-21.9 70.4-31.4-13.4 8.3-25 16.7-34.8 25.1-20.9 17.8-34.3 36.5-40 55.4-15.6-6.1-30.6-13.1-45.1-21.2 17-11.1 34.3-20.3 49.5-27.9zm111-46.1l-.1-.2c19.9-6.8 40-13 60.6-18.5-54 32.2-88.1 82.1-91.5 135.7-26.9-3.7-53-10.2-77.8-19.4 9.7-33.4 45.3-65.4 108.8-97.6zm39.7 119.9c-6.7.4-13.5.5-20.2.5-14.8 0-29.3-.9-43.6-2.6 3.6-59.5 46.9-114.4 113.8-143.8l-.1-.2c19.5-4.6 39.3-8.6 59.3-12.1.3-.1.6-.1.9-.1-21.5 18.6-39.5 44-47.4 67.4-8 23.7-16.1 54.5-8.5 83.9-17.7 3.7-35.9 6-54.2 7zm143-36.9c-26.2 12.8-53.7 22.4-81.9 28.6-4-15-6.1-37.7 8.2-80.3 8.6-25.5 29.9-53.6 54.4-71.6l-.2-.3c20.3-3.2 40.7-5.7 61.1-7.7 12.9 26 15.2 63.5 6.2 103.3-15.2 10.6-31.1 19.9-47.8 28zm113.9-86c-17.5 19.5-36.8 36.9-57.7 52.2 7.2-37.3 4.7-72.4-7.1-98 23.2-2 46.4-3.2 69.6-3.5 10.8 8.2 15.6 17.4 13.9 26.9-5.9 7.6-12.1 15.1-18.7 22.4zm25.4-31.6c-1.3-6.3-4.7-12.3-10.2-17.9 7.4 0 14.8 0 22.2.1-3.7 6.1-7.8 12-12 17.8zm47.9-90.8c-8.4 23.4-19.1 45.6-31.9 66.7-14-.3-28.1-.3-42.1 0l-.1-32.5c4.5-2.3 15-8.5 19.6-17.8 5.7-11.6 5.6-27.6 3.5-39l58.3.2c-2.1 7.5-4.6 15-7.3 22.4zm9.3-29.4l-61.8-.2c-2.4-8.9-6.3-17.8-12-27.4l-.2-.4c-1.3-2.1-2.4-4.1-3.1-6.5-.8-2.9-.8-6.2-.9-9.7 0-1 0-1.9-.1-2.8-.2-6.9-1.9-40.5-15.3-42.8v-.1h-1.4v.1c-4.7.9-8.4 6.2-11.3 16.3-2.2 7.7-3.7 17.8-4 26.5 0 .9 0 1.9-.1 2.8-.1 3.5-.1 6.9-.9 9.8-.7 2.4-1.8 4.4-3.1 6.5l-.2.4c-5.7 9.5-9.5 18.3-11.9 27.2l-141.3-.6c-9.4 0-20-.1-29.8 3.4-7.2 2.6-13.4 6.8-19.4 11-1.7 1.2-3.4 2.3-5.1 3.5-30.3 19.9-61.9 26.9-112.7 24.9-41.7-3.6-84-4.7-126.8-3.3-1.6.1-3.2.1-4.8.2-.2 0-.4-.1-.7-.1v.1c-22 .8-43.9 2.3-65.6 4.4-.7-.1-1.5-.1-2.2-.2v.4c-22.1 2.2-44 5.1-65.8 8.6-17.2-39.3-27.7-82.2-30.4-127.4 15 0 29.1 5.5 44.1 11.3 5.6 2.2 11.4 4.4 17.2 6.3 28.4 9.3 53.4 5.7 67-9.7 4.5-5.2 7.6-11.4 10.6-17.5 4.4-8.8 8.5-17.2 16.4-20.9 5.6-2.7 12.2-2.4 19.2-2.2 6.5.2 13.2.5 19.6-1.7 8.1-2.7 14.4-8.3 19.5-17.2 4.3-7.5 7.1-16.4 9.8-25 1.3-4.2 2.6-8.1 4-11.9 9.3-25.3 32.6-45.2 62.2-53.3 29.6-8.1 59.7-2.7 80.6 14.3 7.6 6.2 14.4 13.8 20.9 21.2 7.1 8 14.5 16.4 23.3 23.2 9 7 20.2 11.8 30.7 13.2 12.4 1.6 23.2-1.3 31.2-8.4 4.4-3.9 7.6-8.7 10.7-13.4 3.9-5.9 7.6-11.6 13.2-14.6 6.2-3.4 13.9-3.1 22-2.8 9.7.3 19.8.7 28-5.5 8.3-6.4 10.8-17 13-26.4.3-1.5.7-3 1.1-4.4 8.8-34.7 38-63.8 72.7-72.5 16.9-4.2 35-3.5 51.9 1.4 31.5 51.3 51 110.9 54.5 175 1.8 39.9-2.3 79.1-12.5 116.9z"/><path d="M112.017 279.4c21.2 0 38.4-17.2 38.4-38.4s-17.2-38.4-38.4-38.4-38.4 17.2-38.4 38.4 17.2 38.4 38.4 38.4zm0-70c17.4 0 31.6 14.2 31.6 31.6 0 17.4-14.2 31.6-31.6 31.6-17.4 0-31.6-14.2-31.6-31.6 0-17.4 14.2-31.6 31.6-31.6z"/></g></svg>