<svg xmlns="http://www.w3.org/2000/svg" viewBox="0 0 758.30764 758.30002"><g transform="translate(-46.046 -46)"><circle cx="427.4" cy="424.6" r="375.1" fill="#fff"/><path d="M754.7 551.3v-31.5c10.9 1.8 21.6 4.4 32.1 7.9-2.6 9.3-5.6 18.4-8.9 27.4-7.7-1.6-15.4-2.9-23.2-3.8z" fill="#7790a6"/><path d="M726.3 516.6v-52.1c9.9 3.3 19.3 6.7 28.4 10.1v76.8c-9.4-1.1-18.9-1.6-28.4-1.7v-33.1z" fill="#fff3ab"/><path d="M417.7 127.3c-33.7 3.1-62.5 29.2-69.8 60.2-19.3-11.2-44.9-12.2-64.9-2.4-20 9.8-33.5 30-34.5 51.2-7.5-7.9-20.6-10.6-30.7-6.2-10.1 4.3-16.5 15.2-15 25.7-33-11.2-73.5 10-80.3 42-12.4-5.8-28.4 3-32.3 19.8 0 0-11.6-5.5-22.4-8.3C114.5 165.7 245.6 58.6 405.2 50.1 580.4 40.7 734 152.9 783.9 313c-9.9-2.3-20.5-1.8-30.2 1.6 2.8-8.3-1.4-18.3-9-21.9-7.7-3.6-17.1-1.4-21.4 6.2.4-35.3-37.7-46.9-66.3-29.8 1-26.7-13.5-45.1-37-60.4-23.5-15.3-55.3-18.5-81.5-8.2 1.5-9.9-4.1-20.5-13.5-25.6-9.3-5-21.8-4.2-30.2 2.1-7.8-30.9-43.3-52.9-77.1-49.7z" fill="#b4d3f1"/><path d="M666.8 553.5V518c20-1.9 39.9-2.6 59.5-1.4v33c-19.7-.1-39.6 1.8-59.3 5.2l-.2-1.3zm-166 109.2c71.4-10.3 147.4-29.5 213 .4l1.3 1.1c-7.4 9-15.2 17.6-23.5 25.9-37.8-6-77.3 1.5-114.3 13.1-43.5 13.6-85.6 32.7-130.1 42.1-81 17.1-164.2 1.1-245.2-18-42.8-31.6-78.7-72.2-104.9-119.2 27.5 16.4 66.8 29.6 126.6 46.3 89.4 25.2 185.2 21.5 277.1 8.3z" fill="#7790a6"/><path d="M666.8 446.9v106.6l.2 1.2c-9.5 1.6-18.9 3.5-28.2 5.7V442.3l.4-2.5c9.4 2.2 18.7 4.5 27.7 6.9l-.1.2z" fill="#fff3ab"/><path d="M691.6 690.1c-63.3 63.7-149.5 105-246.3 110.2-90.7 4.9-175.6-22.9-243.3-73 81 19.1 164.2 35.1 245.2 18 44.5-9.4 86.6-28.5 130.1-42.1 37.1-11.5 76.6-19.1 114.3-13.1z" fill="#9eaebf"/><path d="M572.2 531.8c22-3.7 44.3-7.6 66.6-10.5v39.2c-8.1 1.9-16.1 3.9-24 6.1-14.3 3.9-28.4 8.2-42.6 12.7v-47.5z" fill="#7790a6"/><path d="M572.2 579.2c-13 4.1-26.1 8.4-39.1 12.6V423.3l.3-2.3c13.2 1.6 26.1 3.5 38.8 5.6v152.6z" fill="#fff3ab"/><path d="M317.1 620.5v-71.3c71.6 4.8 144.8-1 216-11.3v53.9c-32.7 10.4-65.4 20.3-99.1 26.2-38.9 6.8-78 8.1-117.1 5.6l.2-3.1z" fill="#7790a6"/><path d="M278 545.5V427.3l-.5-3c12.8-2 25.9-3.7 39.2-5.2l.4 3.4v198l-.2 3.1c-13-.8-26-2.1-39-3.6l.1-.5v-74z" fill="#fff3ab"/><path d="M226 536.9c17.2 3.6 34.5 6.5 52 8.7v73.9l-.1.5c-20.9-2.6-41.8-6-62.6-10.1l.5-2.3v-72.9c3.3.7 6.8 1.4 10.2 2.2z" fill="#7790a6"/><path d="M215.8 435.9v171.7l-.5 2.3c-9.5-1.9-19-3.9-28.5-6l.3-1.3V445.5l-.6-2.5c9.6-2.6 19.3-4.9 29.3-7.1z" fill="#fff3ab"/><path d="M130.3 588.5v-79.3c15.6 6.3 34 12.4 56.9 18.5v74.8l-.3 1.3c-19-4.3-38-9-56.9-13.9l.3-1.4z" fill="#7790a6"/><path d="M130.3 461v127.5l-.3 1.4c-10.1-2.6-20.1-5.3-30.1-8.1l.4-1.4V471.3l-.8-2.2c9.7-3.4 19.8-6.9 30.2-10.2l.6 2.1z" fill="#fff3ab"/><path d="M278 619.9c13 1.6 26 2.8 39 3.6 39.1 2.5 78.1 1.2 117.1-5.6 33.7-5.9 66.4-15.7 99.1-26.2 13-4.2 26.1-8.4 39.1-12.6 14.1-4.5 28.3-8.8 42.6-12.7 7.9-2.2 15.9-4.2 24-6.1 9.3-2.2 18.8-4.1 28.2-5.7 19.7-3.3 39.6-5.3 59.3-5.2 9.5 0 19 .6 28.4 1.7 7.8.9 15.5 2.2 23.1 3.9-14.7 39.9-36 76.7-62.8 109l-1.3-1.1c-65.6-29.9-141.6-10.7-213-.4-91.9 13.2-187.6 16.9-277.1-8.2-59.8-16.8-99.1-29.9-126.6-46.3-5.7-10.2-10.9-20.7-15.6-31.4 6.1 1.7 12.2 3.4 18.4 5.1 10 2.7 20 5.4 30.1 8.1 18.9 4.9 37.9 9.6 56.9 13.9 9.5 2.1 19 4.1 28.5 6 20.8 4.2 41.7 7.7 62.6 10.2z" fill="#9eaebf"/><path d="M74.1 480.1c8.2 5.2 16.7 10.2 26.1 15.2v85.2l-.4 1.4c-6.1-1.7-12.3-3.4-18.4-5.1-12.5-28.4-21.6-58.7-26.8-90.4 6.1-2.5 12.4-5.1 19-7.6l.5 1.3z" fill="#7790a6"/><path d="M415.1 354.1c159.5 0 300.5 46 385.4 89-.2 4.4-.5 8.7-.8 13-85.1-38.4-225.6-79.4-384.6-79.4-147.1 0-278.4 37.9-364.6 74.5-.1-2-.3-4-.4-6-.1-2.6-.2-5.1-.3-7.7 86.2-40.8 217.8-83.4 365.3-83.4z" fill="#fff3ab"/><path d="M572.2 426.6c-12.7-2.1-25.6-3.9-38.8-5.6-37.8-4.7-77.4-7.4-118.3-7.4-33.7 0-66.6 2-98.4 5.5-13.3 1.5-26.3 3.2-39.2 5.2-21.3 3.3-41.9 7.2-61.8 11.5-10 2.2-19.7 4.5-29.3 6.9-19.9 5-38.9 10.5-56.9 16.2-10.4 3.3-20.5 6.7-30.2 10.2-8.9 3.2-17.6 6.4-25.8 9.6-6.5 2.5-12.8 5.1-19 7.6-1.9-11.5-3.3-23.3-4.1-35.2 86.2-36.6 217.5-74.5 364.6-74.5 159 0 299.5 40.9 384.6 79.4-.9 11.8-2.5 23.4-4.5 34.9-12.4-5.5-25.9-11-40.5-16.5-9.1-3.4-18.6-6.8-28.4-10.1-18.6-6.2-38.4-12.2-59.4-17.7-9-2.4-18.3-4.7-27.7-6.9-21.3-4.9-43.7-9.3-66.9-13.1z" fill="#fff3ab"/></g><g fill="#231f20"><path d="M263.054 247.2c-3.8 3.7-6.7 8-8.7 12-4-4.8-9.8-8.3-16.5-9.9-9.5-2.2-19-.1-25.6 5.7l4.7 5.3c4.8-4.3 12.1-5.8 19.3-4.1 7.2 1.7 13.1 6.2 15.5 12.2l4 9.5 2.7-10c1.2-4.4 4.6-10.9 9.5-15.7 6.1-5.9 13.3-8 21.3-6.4l1.4-6.9c-10.2-2.1-19.7.8-27.6 8.3zm54.9-45.6c-1.6-3.6-4.4-6.9-8.1-9.7-6.6-4.9-14.6-7-21.4-5.5l1.5 6.8c4.8-1.1 10.8.6 15.8 4.3 4 3 6.6 7 6.9 10.6l.6 8.3 5.5-6.2c2.4-2.7 14.1-11.3 26.9-3l3.8-5.9c-12.1-7.8-24.1-4.7-31.5.3z"/><path d="M757.754 359c-1.6-30-6.7-59-14.8-86.7-.8-2.8-1.6-5.5-2.5-8.3-48.9-153.8-192.6-264-361-264-6.8 0-13.7.2-20.6.5-51.1 2.8-100.1 15.5-145.7 37.7-44.1 21.5-83.1 50.9-116 87.6-32.9 36.6-58 78.6-74.7 124.7-1 2.8-2 5.7-3 8.5-.8 2.3-1.5 4.5-2.2 6.8-12.5 39.9-18.3 81.4-17.1 123.6.1 2.5.2 5.1.3 7.6 0 .8.1 1.6.1 2.4.1 1.2.1 2.5.2 3.7.1 2.3.3 4.7.5 7 .8 9.5 1.9 18.9 3.4 28.3.4 2.2.7 4.5 1.1 6.7 4.9 28 12.9 54.9 23.5 80.3 1.1 2.7 2.3 5.5 3.5 8.2 2.7 6.1 5.6 12.1 8.6 18.1 2.2 4.4 4.6 8.7 7 13 23.7 42.1 55.1 79.2 92.3 109.4 4.4 3.6 8.9 7 13.5 10.4 63 46.5 140.7 73.8 224.6 73.8 6.8 0 13.7-.2 20.6-.5 51.1-2.7 100.2-15.4 145.8-37.6 37.8-18.4 71.8-42.7 101.5-72.4 2-2 3.9-4 5.9-6 2.9-3 5.8-6.1 8.6-9.2 31.6-35.2 56.1-75.4 72.7-119.4.7-1.8 1.3-3.5 2-5.3.2-.4.3-.8.4-1.3 2.4-6.7 4.6-13.4 6.6-20.2.7-2.4 1.4-4.8 2-7.2 2.7-9.7 4.9-19.5 6.8-29.4.4-2.2.8-4.5 1.2-6.7 1.6-9.3 2.8-18.6 3.7-27.9.2-2.3.4-4.7.6-7 .1-1.8.3-3.6.4-5.5.2-2.6.3-5.1.4-7.7.5-11.9.5-24-.2-36zm-728.8-106.2c16.4-45.3 41-86.4 73.3-122.4s70.6-64.9 113.9-86c44.8-21.8 92.9-34.3 143.1-36.9 6.7-.4 13.5-.5 20.2-.5 163.9 0 304.1 106.5 353.2 255.5-6.9-.9-13.9-.5-20.6 1.2.1-8.3-4.6-16.7-11.9-20.1-6.8-3.2-14.3-2.6-20 1.2-1.9-11.7-8.3-21.1-18.5-27-13.5-7.8-31.5-7.8-47.2-.4-1.1-22.7-13.5-41.1-38.6-57.5-22.9-14.9-53.6-18.8-79.7-10.3-.7-9.6-6.6-18.8-15.5-23.6-9.1-4.9-20.7-4.9-29.8-.2-4.8-13.9-15-26.3-29-35.3-15.3-9.8-33.2-14.3-50.5-12.7-32.9 3.1-62.3 27.3-71.7 58.5-19.8-9.8-44.5-10-64.2-.3-19 9.4-32.5 27.5-35.7 47.5-8.5-5.4-19.9-6.6-29.3-2.6-10 4.2-16.7 13.9-17.3 24.1-16.1-4-34.5-1.2-50.1 7.6-14.4 8.2-24.8 20.6-29 34.6-5.4-1.4-11.3-.7-16.7 1.9-7.1 3.5-12.5 9.7-15.4 17.5-3.8-1.7-9.6-4-15.7-5.8.9-2.7 1.8-5.3 2.7-8zm-16.6 189.5c4.6-1.9 9.2-3.8 13.9-5.6l-.3.5c9.2 5.8 16.8 10.2 24.6 14.4v79.7c-4.2-1.2-8.5-2.3-12.7-3.5-11.7-26.9-20.4-55.5-25.5-85.5zm692.7 59c-7-.7-14.1-1.1-21.4-1.2v-77c6 2 11.5 4 16.6 5.8 1.6.6 3.3 1.2 4.9 1.8v70.6zm-80.9-25.9c19.2-1.7 36.5-2.1 52.5-1.3V500c-16.5.1-34 1.7-52.5 4.6v-29.2zm52.5-8.7c-16.1-.8-33.3-.3-52.5 1.3v-62.8c19.8 5.3 37.4 10.7 52.5 15.7v45.8zm-59.5 39.2c-6.9 1.2-13.8 2.6-21 4.2V398c7.2 1.7 14.2 3.5 21 5.2v102.7zm-87.6-16.9c2.5-.4 5.1-.9 7.6-1.3 17-2.9 34.6-5.8 52-8.2v32.2c-7 1.6-14.1 3.5-21.4 5.5-12.7 3.5-25.5 7.4-38.2 11.3V489zm59.6-17.1c-17.8 2.5-35.8 5.5-53.2 8.4-2.1.4-4.3.7-6.4 1.1v-96.9c21.1 3.5 41.1 7.6 59.6 11.8v75.6zm-66.6 58.8c-6.7 2.1-13.4 4.3-20 6.4-4 1.3-8 2.6-12.1 3.9V378.8c11 1.4 21.7 3 32.1 4.6v147.3zm-248.1-23.5c15.8 1 32.1 1.5 48.9 1.5 48.7 0 101.6-4.1 160.1-12.5v47.1c-31.4 10-63.7 19.6-96.2 25.3-37.4 6.5-75.2 7.9-112.8 5.7v-67.1zm209-18.5c-78.7 11.3-147.1 14.9-209 11.1V376.5h-4.9c31.6-3.5 64.8-5.6 99.4-5.6 40.4 0 78.8 2.7 114.5 7v110.8zm-216 85.1c-10.7-.7-21.4-1.7-32.1-3V381.3h-2.2c11.2-1.7 22.6-3.2 34.3-4.6v197.1zm-94.3-80.6c2 .4 3.9.9 6 1.3 15.9 3.4 32.5 6.2 49.3 8.3V570c-18.5-2.4-37-5.4-55.2-8.9v-67.9zm55.2 2.1c-16.3-2.1-32.3-4.8-47.7-8.1-2.6-.5-5-1.1-7.5-1.6v-93.2c17.6-3.8 36.1-7.3 55.2-10.3v113.2zm-62.2 64.3c-7.2-1.5-14.5-3-21.7-4.6V399.3h-1c7.4-1.8 14.9-3.6 22.6-5.4v165.7zm-78.5-91c14.9 5.8 31.3 11 49.8 16v68.9c-16.8-3.8-33.4-7.9-49.8-12.2v-72.7zm49.8 8.3c-18.6-5.1-35-10.4-49.8-16.3v-45.5c15.5-4.9 32.2-9.7 49.8-14.2v76zm-56.8 62.6c-7.7-2-15.4-4.1-23.1-6.2v-108h-.7c7.6-2.7 15.5-5.3 23.8-8v122.2zm-30.1-96.4c-5.2-2.8-10.4-5.9-16.2-9.5 1.5-.6 3-1.1 4.4-1.7 3.8-1.4 7.8-2.9 11.8-4.3v15.5zm491.6 270.8c-44.8 21.8-92.9 34.3-143.1 36.9-6.7.4-13.5.5-20.2.5-76.2 0-147.2-23-206.4-62.6 50 11.4 102.8 21.3 155.6 21.3 24.7 0 49.4-2.2 73.8-7.3 28.7-6 56.7-16.2 83.8-26 15.2-5.5 31-11.2 46.6-16.1 41.2-12.9 75.5-17.5 105.7-14-28.2 27.4-60.4 50-95.8 67.3zm113.8-86c-3.8 4.2-7.7 8.4-11.7 12.4-32.5-4.9-69.4-.4-114.1 13.5-15.8 4.9-31.6 10.7-46.9 16.2-26.9 9.7-54.7 19.8-82.9 25.8-81.2 17.1-166 .4-243.1-17.8-38.8-28.8-71.7-65-96.9-106.7 22.2 11.3 55.8 23.5 116.3 40.4 44.4 12.4 92.4 18.6 146.3 18.6 40.4 0 84.1-3.5 132.2-10.4 10.6-1.5 21.4-3.3 31.9-4.9 60.1-9.7 122.2-19.6 176.6 4-2.5 3.1-5.1 6-7.7 8.9zm12.3-14.3c-56.7-25.4-120.5-15.2-182.3-5.3-10.5 1.7-21.3 3.4-31.8 4.9-111.3 16-198.9 13.4-275.6-8.1-56.4-15.8-96.8-29-125-45.5-4.3-7.7-8.2-15.5-12-23.5 83.6 23.1 174.3 46.1 265.3 46.1 27.2 0 54.5-2.1 81.5-6.8 39.6-6.9 78.5-19.5 116.2-31.6 21.2-6.9 43.1-13.9 64.9-19.9 62.6-17.2 113.4-21.2 157.5-12.2-14 37-33.8 71.1-58.7 101.9zm61.2-108.5c-5.7-1.2-11.5-2.2-17.4-2.9v-23.9c8.3 1.6 16.4 3.6 24.2 6-2 6.9-4.3 13.9-6.8 20.8zm8.9-28c-8.4-2.6-17.2-4.8-26.2-6.4v-37.3c11.5 4.4 22.6 8.9 33.1 13.5-1.9 10.1-4.2 20.2-6.9 30.2zm8-36.9c-13.7-6-28.4-11.9-43.9-17.5-60-21.8-183-58.4-333.5-58.4-140.2 0-258.7 33.6-333.5 61.8-8.2 3.1-16.3 6.3-24.2 9.5-1.4-9.3-2.5-18.8-3.2-28.4 10-4.2 20.2-8.3 30.7-12.2 74.1-27.8 191.5-61 330.2-61 149.4 0 271.6 36.3 331.2 58 17.5 6.4 34.2 13.1 49.7 20.1-.8 9.4-1.9 18.8-3.5 28.1zm4.1-35.1c-14.8-6.6-31-13.1-48-19.3-60-21.8-183-58.4-333.5-58.4-140.2 0-258.7 33.6-333.5 61.8-9.5 3.6-18.8 7.3-27.9 11.1 0-.4-.1-.8-.1-1.2-.1-1.8-.2-3.6-.2-5.3 10-4.7 20.2-9.3 30.7-13.7 47.6-20 97.6-36 148.8-47.6 61.2-13.8 122.5-20.8 182.2-20.8 149.3 0 271.5 40.5 331 64.7 17.9 7.2 35 15 50.8 22.9-.1 1.9-.2 3.8-.3 5.8zm-47.8-35.3c-60-24.3-183.1-65.2-333.7-65.2-60.2 0-122 7.1-183.7 21-51.6 11.6-102 27.8-150 47.9-9.6 4-19 8.2-28.2 12.5-.8-40.5 4.9-80.3 17-118.6 6.4 1.9 13.3 4.7 18.6 7.2l4 1.9 1-4.3c1.8-7.6 6.4-13.8 12.8-16.9 4.9-2.4 10.1-2.5 14.5-.5l4 1.9.9-4.4c2.9-13.5 12.5-25.8 26.6-33.8 15.4-8.8 33.8-10.9 49.2-5.6l5.5 1.9-.9-5.8c-1.3-8.8 4.2-18.2 12.9-21.9 8.8-3.7 20.3-1.4 26.8 5.4l5.8 6.1.4-8.4c.9-20 13.6-38.9 32.5-48.2 19-9.3 43.1-8.4 61.5 2.2l4.1 2.4 1.1-4.7c7.1-30.4 35.1-54.5 66.6-57.4 32.5-3 66.1 18.6 73.4 47.2l1.3 5.2 4.3-3.2c7.2-5.4 18.3-6.2 26.4-1.8 8 4.3 12.9 13.5 11.6 21.9l-.9 6.1 5.7-2.2c25-9.9 55.7-6.8 78.2 7.9 25.4 16.5 36.3 34.2 35.4 57.3l-.2 6.5 5.6-3.4c14.7-8.8 32.5-9.8 45.4-2.4 10.2 5.8 15.7 16.1 15.5 29l-.2 13.8 6.8-12c3.2-5.7 10.5-7.7 16.8-4.7 6 2.8 9.4 11.1 7.2 17.6l-2.3 6.9 6.9-2.5c8.4-3 17.5-3.6 26.2-2 8.7 28.4 14.1 58.3 15.7 89.3.6 10.8.7 21.5.4 32.2-15-7.1-31.3-14.4-48.5-21.4z"/></g></svg>