<svg xmlns="http://www.w3.org/2000/svg" viewBox="0 0 758.28907 758.40002"><path d="M754.342 359.1c3.5 65-9.8 127.1-36.1 181.9l-.3-.1c1.6-22.2-1-50.8-12.1-70.6-2-3.6-5.2-7.4-9.3-6.9-4.3.5-6.5 5.2-7.9 9.2-6.3 18.5-10.6 35-12.8 54.5-6.3-8.4-18.7-8.3-27-3.2-2.8 1.7-4.9 4.8-4.8 8.1-1.3-22.6-7.7-44.5-15-65.8-1.8-5.4-11.6-39.7-20.3-33.9-1.4 1-2.2 2.6-2.9 4.2-7.3 16.3-13.8 33-19.1 50.1l-.2-.1V244.9h1.5c60.1 15.8 118.2 45.8 164.1 90.5 1.1 7.9 1.8 15.8 2.2 23.7z" fill="#f4b072"/><path d="M327.742 539.3c-8.5-.7-17-1.3-25.5-1.7-4.2-.2-8.5-.4-12.7-.5 3.5-14.6 4.9-29.9 4.9-45.1 2-.5 4.1-.7 6.2-.7 8.8.1 17.2 4.7 23 11.3 0 0 19.6-12.3 37.9.5 2-14.6 4.8-32.8 12.2-45.6 1.2-2 2.5-4 4.4-5.4 1.9-1.3 4.6-1.8 6.6-.5 1.2.8 2 2.2 2.7 3.5 4.3 8.5 7.1 16.8 8.9 26.3 1.5 7.9 2.3 16.6 2.7 26.9 5.1-2.3 10.6-4.1 16.3-5.3h3.5v-.6c4-.7 8.1-1 12.2-1.1v.8h7v-.6c4.6.3 9.2 1 13.6 2.2 3.5.9 6.9 2.1 10.1 3.5 1.8-5.7 7-10 12.9-10.8.7-.1 1.3-.1 2-.1 5.2 0 10.5 2.8 13.3 7.2 1.4 2.2 2.3 4.8 2.8 7.4.8 3.9 3 5.7 2.7 9.3 0 .3-.1.6-.1.8 0-.3.1-.6.1-.8.6-5 1.4-10 3.7-14.5 1.9-3.6 5-6.7 8.7-8h3.3v-.7h.4c-.3-5.7-.4-11.5 1.8-16.8 2.2-5.2 7.2-9.7 12.9-9.5.1-8.1 1.8-16.1 4.8-23.6.5-1.3 1.3-2.6 2.2-3.8 1.5-1.7 3.3-2.9 5.4-2.1 1.9.7 2.9 2.7 3.6 4.6.4.9.7 1.8 1 2.7v.6c.4.8.7 1.7.7 2.7 0 .7-.1 1.3-.2 2 .4 0 .8.1 1.2.1 1.1 4.4 1.9 8.8 2.3 13.3v3.7h.2v.9c9 2.8 14.8 13.3 12.4 22.5-.4 1.6-1.1 3.4-.4 4.9.8 1.8 3 2.4 4.7 3.2.8.4 1.5.8 2.2 1.3v3.7h3.5c1.4 2.1 2.4 4.6 3 7.1 1.1 5 3.6 10.3 3.1 15.4 2.8-14.6 6.6-29.1 11-43.3 5.4-17.1 11.8-33.9 19.1-50.1.7-1.6 1.5-3.2 2.9-4.2 8.7-5.8 18.4 28.5 20.3 33.9 7.3 21.3 13.7 43.2 15 65.8-.2-3.3 1.9-6.4 4.8-8.1 8.3-5.1 20.7-5.1 27 3.2 2.1-19.5 6.5-35.9 12.8-54.5 1.4-4.1 3.6-8.8 7.9-9.2 4.1-.4 7.3 3.4 9.3 6.9 11.1 19.8 13.7 48.4 12.1 70.6l.3.1c-9 18.9-19.6 36.9-31.5 53.9-85.8 8.6-171.8-21.1-254-39.6-26.2-5.9-52.8-10.4-79.6-13.5-8.6-1-17.1-1.8-25.6-2.5z" fill="#58585a"/><path d="M586.242 192.5c-.1-6.4-10.4-12.3-27.1-16.5l.1-.5-9.7-31.8c-2.3-7.9-15.3-13.8-35.8-16.3-6.9-.8-14.6-1.3-23-1.3-9 0-17.3.6-24.6 1.6-19.9 2.9-32.6 9.1-34.3 15.9l-8.5 30.8.3 1.3c-16.6 4.1-27.1 9.8-27.9 16.1v22.5c-2.3 2.3-3.5 4.6-3.5 6.9h3.5v18h-2.4c-63.9 9.7-127 32.3-178.9 71.4-62.8 47.3-131.5 85.7-211.1 54.2.7-18.7 2.9-37.1 6.3-55l.8.1c49.3 40.3 119.1 28.6 162.4-14.1 18.1-17.9 32.4-39.2 47.4-59.9 85.3-117.4 210.7-198 359.5-173.2 92.9 58.9 158.7 157.7 172.2 273.7-46-44.7-104-74.8-164.1-90.5h-1.5v-24.7h3.5c0-2.6-1.2-5-3.5-7.2v-21.5z" fill="#fff"/><path d="M432.742 555.3c82.1 18.5 168.2 48.3 254 39.6-42.7 60.8-103.1 108.5-174.1 135.5 13.9-27.7 9.6-59.9-6.3-86.9-16.4-27.6-43-51.3-74-69.4-24.1-14.1-45.3-22.2-79.1-32.4 26.7 3.2 53.3 7.7 79.5 13.6z" fill="#ef8767"/><path d="M523.442 169.2c13.8 1.2 26.1 3.2 36.1 5.8 16.7 4.3 27 10.1 27 16.5h.1v21.6c-2.8-2.6-7.3-5-13.4-7.1-2.1-.7-4.5-1.4-7-2.1V503.6c-.7-.5-1.4-1-2.2-1.3-1.8-.8-3.9-1.4-4.7-3.2-.7-1.5 0-3.3.4-4.9 2.4-9.1-3.4-19.7-12.4-22.5v-.9c2.3.1 4.6.3 6.8.5V200.9c-2.3-.4-4.6-.8-7-1.1-5.8-.9-14.6-2.5-21.1-3.1v7s-.1 0 0 0V455.7c.7 0 1.3-6.9 2-6.9.2-.4.5.2.9-.2 1.1-1.2 2.6-5.7 4.2-5.6l.2.1c-.9 1.1-1.7 2.5-2.2 3.8-3 7.5-4.7 15.5-4.8 23.6-5.7-.2-10.7 4.3-12.9 9.5-2.2 5.2-2.1 11.1-1.8 16.8h-.4V214.3h.2v-18.7c-5.4-.2-10.9-.4-16.5-.4-4.9 0-13.8.1-18.5.2V494.9h.7v1c-.7 0-1.3 0-2 .1-5.9.8-11.1 5.2-12.9 10.8-3.2-1.5-6.6-2.6-10.1-3.5l.4-1.6h7V196.9c-8.9.7-20.3 2.5-28 3.5V501.3c-4.1.1-8.2.4-12.2 1.1V202.2c-2.5.7-4.8 1.4-7 2.3-5 1.9-9.1 4-12.3 6.2h-.8v.6c-.9.7-1.6 1.4-2.3 2v-22.5c.7-6.3 11.2-11.9 27.9-16.1 9.4-2.3 20.7-4.2 33.3-5.4 10.6-1 22.1-1.6 34.1-1.6 10.4.1 21.2.6 31.2 1.5z" fill="#ffeb82"/><path d="M566.242 503.7c1.4 1 2.5 2.3 3.5 3.7h-3.5v-3.7z" fill="#58585a"/><path d="M550.042 142.6l9.7 31.8-.1.5c-10-2.6-22.3-4.6-36.1-5.8l-9.3-42.9c20.5 2.6 33.5 8.5 35.8 16.4z" fill="#ffeb82"/><path d="M544.742 453.8c-.4 0-.8 0-1.2-.1.1-.7.2-1.3.2-2 0-1-.2-1.9-.7-2.7v-.6c.7 1.9 1.2 3.6 1.7 5.4z" fill="#58585a"/><path d="M580.142 61.8c-148.8-24.8-274.2 55.8-359.5 173.2-15 20.6-29.3 42-47.4 59.9-43.3 42.7-113.1 54.3-162.3 14.1l-.8-.1c31.5-166 172.8-295.4 349-304.8 81-4.4 157.4 17.3 221 57.7zm-419.6 178.9c0-22-17.8-39.8-39.8-39.8-22 0-39.7 17.8-39.7 39.8 0 22 17.8 39.7 39.7 39.7 21.9 0 39.8-17.7 39.8-39.7z" fill="#f4b072"/><path d="M514.242 126.4l9.3 42.9c-10-.9-20.8-1.4-32.1-1.4-12 0-23.5.6-34.1 1.6l9.2-42.6c7.3-1.1 15.6-1.7 24.6-1.7 8.4-.1 16.2.3 23.1 1.2z" fill="#ffeb82"/><path d="M506.242 643.6c16 27 20.2 59.2 6.3 86.9-35.4 13.4-73.5 21.7-113.3 23.8-25.6 1.4-50.8.1-75.2-3.4 32.4-26.4 57.4-55 61.1-95.6 3.8-42.5-17.9-87.1-57.5-116 8.5.7 17 1.5 25.5 2.5 33.8 10.2 55 18.3 79.1 32.4 31 18.1 57.6 41.8 74 69.4z" fill="#ef8767"/><path d="M466.542 126.7l-9.2 42.6c-12.6 1.2-23.9 3.1-33.3 5.4l-.3-1.3 8.5-30.8c1.7-6.8 14.4-13 34.3-15.9z" fill="#ffeb82"/><g fill="#d9604d"><path d="M586.942 486.6l-.2-.1V213c-2.8-2.6-7.3-5-13.4-7.1-2.1-.7-4.5-1.4-7-2.1v299.9c1.4 1 2.5 2.3 3.5 3.7 1.4 2.1 2.4 4.6 3 7.1 1.1 5 3.6 10.3 3.1 15.4 2.8-14.6 6.5-29.1 11-43.3zM525.942 196.6v7c-.1 0-.1 0 0 0V455.6c.7 0 1.3-6.9 2-6.9.2-.4.5.2.8-.2 1.1-1.2 2.6-5.7 4.2-5.6l.2.1c1.5-1.7 3.3-2.9 5.4-2.1 1.9.7 2.9 2.7 3.6 4.6.3.9.7 1.8 1 2.7.6 1.8 1.1 3.5 1.6 5.3 1.2 4.4 1.9 8.8 2.3 13.3.1 1.2.2 2.5.2 3.7 2.3.1 4.6.3 6.8.5V200.9c-2.3-.4-4.6-.8-7-1.1-5.8-.9-14.6-2.6-21.1-3.2zM476.242 195.4V495h.7v1c5.2 0 10.5 2.8 13.3 7.2 1.5 2.2 2.3 4.8 2.8 7.5.8 3.9 3 5.7 2.7 9.3.6-5 1.4-10 3.7-14.5 1.9-3.6 5-6.7 8.7-8 1-.4 2.1-.6 3.3-.7V214.3h.2v-18.7c-5.4-.2-10.9-.3-16.5-.4-5.3 0-14.1.1-18.9.2zM430.842 201.6V501.1c2.3 0 4.7 0 7 .2 4.6.3 9.2 1 13.6 2.2l.4-1.6h7v-305c-8.9.7-20.3 2.5-28 3.5v1.2zM399.342 210.7c-.3.2-.6.4-.8.6-.9.7-1.6 1.4-2.3 2v268h-.1c1.5 7.9 2.3 16.6 2.7 26.9 5.1-2.3 10.6-4.1 16.3-5.3 1.2-.2 2.3-.5 3.5-.7V202.2c-2.5.7-4.8 1.5-7 2.3-5 1.8-9.1 3.9-12.3 6.2zm-.8 283.5h-.2v-.8c0-1.4-.1-2.9-.3-4.3.2 0 .3-.1.5-.1v5.2z"/></g><path d="M396.242 238.2v243.1h-.1c-1.8-9.5-4.5-17.8-8.9-26.3-.7-1.3-1.4-2.7-2.7-3.5-2-1.3-4.7-.8-6.6.5-1.9 1.3-3.2 3.4-4.4 5.4-7.4 12.7-10.3 31-12.2 45.6-18.3-12.8-37.9-.5-37.9-.5-5.8-6.6-14.2-11.2-23-11.3-2.1 0-4.2.2-6.2.7-.3-78.6-40.3-158.6-40.3-158.6l-30.1 153c-4.2 2.3-7.6 6.1-9.7 10.4l8.2-89-41.4 85.8c0-4.5-.3-8.6-.7-10-2.1-8.2-6.8-24.8-17.1-27.1-3.1-.7-6.5.4-9.1 2.2-15.8 11.4-18 40.4-13 57.5-3.3-11.3-20.1-12.5-28.9-5.2-2.4 1.9-3.9 3.6-4.5 6.6 1.9-9.2-5.2-46.8-18.5-47.4-2.6-.1-4.7 2-6.3 4-9.3 12.1-9.7 26.5-11.6 41.2-13.3-5-28.5-4.2-41.2 2.3-14.6-36.9-23.6-76.7-25.9-118.6-.6-11.9-.7-23.7-.2-35.4 79.6 31.5 148.3-6.9 211.1-54.2 51.9-39.1 115-61.7 178.9-71.4h2.3z" fill="#f4b072"/><path d="M327.742 539.3c39.5 28.8 61.3 73.4 57.5 116-3.7 40.6-28.7 69.3-61.1 95.6-65.6-9.7-126-36.4-176.3-75.7 54.7-5.7 106.7-27 144.1-59.3 12.3-10.6 23.4-22.9 27-37 3.6-14.1-1.8-32.9-16.8-41v-.2c8.6.3 17.1.9 25.6 1.6z" fill="#ef8767"/><path d="M302.142 537.8c15 8.1 20.4 26.9 16.8 41-3.6 14.2-14.7 26.4-27 37-37.4 32.3-89.4 53.6-144.1 59.3-37.6-29.4-69.5-65.9-93.7-107.5 33.2-10.1 67.4-17.8 102-22.9l-7.1 14.6s28.5 0 59.3-.2l-1 10.9 2.2-10.9c35.3-.3 73.2-1 73.8-2.4 2.5-6.4 4.6-12.9 6.2-19.6 4.2.1 8.5.3 12.7.5l-.1.2zm-8.6 44.2l4-10.7h-174.7s16.3 17.1 36 24.7c0 0 65.2-13.9 134.7-14z" fill="#ef8767"/><path d="M209.542 559.1l-2.2 10.9 1-10.9h1.2z" fill="#fff"/><path d="M180.842 493.5l-16.4 34-23.4-11.3c-4.9-17.1-2.8-46.1 13-57.5 2.6-1.9 5.9-3 9.1-2.2 10.2 2.3 15 18.9 17.1 27.1.3 1.3.6 5.4.6 9.9z" fill="#58585a"/><path d="M164.442 527.6l-8.3 17.2c-34.6 5.1-68.7 12.8-102 22.9-9.2-15.9-17.3-32.6-24.2-49.9 12.7-6.5 27.8-7.3 41.2-2.3 1.9-14.8 2.2-29.1 11.6-41.2 1.6-2.1 3.7-4.2 6.3-4 13.3.6 20.4 38.2 18.5 47.4.6-3 2.2-4.7 4.5-6.6 8.8-7.2 25.6-6.1 28.9 5.2l23.5 11.3z" fill="#58585a"/><path d="M120.842 201c22 0 39.8 17.8 39.8 39.8 0 22-17.8 39.7-39.8 39.7-22 0-39.7-17.8-39.7-39.7-.1-22 17.7-39.8 39.7-39.8z" fill="#ffeb82"/><path d="M293.542 583c-69.5.1-134.7 14-134.7 14-19.7-7.6-36-24.7-36-24.7h174.7l-4 10.7zM149.042 560.4l73.2-151.6-14.9 162.2 46.6-236.7s65.9 131.6 29.4 223.4c-1.1 2.7-134.3 2.7-134.3 2.7z" fill="#fff"/><g fill="#231f20"><path d="M120.442 284.6c23.8 0 43.2-19.4 43.2-43.2 0-23.8-19.4-43.2-43.2-43.2-23.8 0-43.2 19.4-43.2 43.2 0 23.8 19.4 43.2 43.2 43.2zm0-79.5c20 0 36.2 16.3 36.2 36.2 0 19.9-16.3 36.2-36.2 36.2-19.9 0-36.2-16.3-36.2-36.2 0-19.9 16.3-36.2 36.2-36.2z"/><path d="M757.742 359c-10.7-201.3-176.9-359-378.3-359-6.8 0-13.7.2-20.6.5-51.1 2.8-100.1 15.5-145.7 37.7-44.1 21.5-83.1 50.9-116 87.6-32.9 36.6-58 78.6-74.7 124.7-17.2 47.7-24.6 97.9-21.9 149 10.8 201.3 176.9 358.9 378.3 358.9 6.8 0 13.7-.2 20.6-.5 51.1-2.7 100.2-15.4 145.8-37.6 44.1-21.5 83.1-50.9 116-87.6 32.9-36.7 58-78.6 74.7-124.7 17.2-47.8 24.5-97.9 21.8-149zm-728.8-106.2c16.4-45.3 41-86.4 73.3-122.4s70.6-64.9 113.9-86c44.8-21.8 92.9-34.3 143.1-36.9 6.7-.4 13.5-.5 20.2-.5 67.4 0 130.7 18 185.4 49.5-63-7.2-126.4 4-184.8 33.3-59.9 30.1-116.1 79.8-162.6 143.7-2.4 3.4-4.9 6.8-7.3 10.1-12.2 17-24.7 34.5-39.7 49.3-21.1 20.8-48.4 34-76.9 37.2-29.3 3.2-57.5-4.7-79.8-22.5 3.7-18.5 8.7-36.8 15.2-54.8zm-16.6 62.7c19.7 14.7 43.5 22.5 68.5 22.5 4.5 0 9-.2 13.5-.8 30-3.3 58.8-17.2 81-39.2 15.4-15.2 28.1-33 40.5-50.2 2.4-3.4 4.8-6.8 7.3-10.1 45.8-63.1 101.2-112 160.1-141.6 62-31.1 129.4-41.3 196.6-30.4 89.1 57.1 152.4 151.3 167.8 261.6-42.8-39-97.8-68.9-157.8-84.8v-51h-.1c-.5-7.5-9.6-13.8-27.1-18.6l-9.4-30.7c-3.7-12.7-27.1-20.3-62.5-20.3-34.4 0-59.5 8.2-62.6 20.4l-8.4 30.5c-18.2 4.9-27.5 11.5-27.5 19.3h.1v43.4c-69.2 10.6-131.4 35.5-179.9 72-60.9 45.8-127.8 84-205.2 54.7.8-15.7 2.5-31.3 5.1-46.7zm541.4 156.4V201.5c-2.3-.4-4.6-.8-7-1.1-5.9-.9-14.6-2.5-21.1-3.1v7s-.1 0 0 0V451c-1.8 5.5-2.9 11.2-3.3 17-5.2 1.1-9.4 5-11.7 9.3V214.9h.2v-18.7c-5.4-.2-10.9-.3-16.5-.4-4.9 0-13.8.1-18.5.2V493c-.6 0-1.1.1-1.7.1-6 .8-11.3 4.6-14.2 9.8-.5-.2-1.1-.4-1.6-.6h.7V197.5c-8.9.7-20.3 2.5-28.1 3.5v297.3c-4.1.1-8.2.4-12.2 1.1V202.8c-2.5.7-4.8 1.5-7 2.3-4.8 1.8-8.8 3.8-11.9 6v-19.5c.8-3.5 8.6-8.7 25.2-12.8 17.7-4.4 41.3-6.8 66.5-6.8 25.2 0 48.8 2.4 66.5 6.8 17.4 4.3 25.2 9.8 25.2 13.3h.1v19c-2.6-1.6-5.9-3.1-9.9-4.5-2.1-.7-4.5-1.4-7-2.1v295.7c-.2-.1-.5-.3-.7-.4-.4-.2-.7-.3-1.1-.5-.6-.3-1.7-.7-1.9-.9-.1-.3.2-1.4.4-2l.2-.6c1.8-8.8-2.3-18.6-9.6-23.9zm-7-264.4V450c-.5-1.6-1.1-3.2-1.7-4.8-.6-1.6-2.1-5.4-5.7-6.7-2.3-.8-4.6-.4-6.7.9V205c3.8.4 10.5 1.9 14.1 2.5zm-42.8-4.6v11.7h-.2v281.5c-3.3 1.8-6.1 4.7-8.1 8.4-.4.7-.7 1.4-1 2.1-.6-1.7-1.3-3.2-2.2-4.6-2.3-3.6-6-6.3-10-7.7V203h11.5c3.1-.1 7-.1 10-.1zm-52.4 2.2v295.6c-4.5-1.1-9.3-1.9-14.1-2.2V207.2c3.6-.4 10.3-1.8 14.1-2.1zm-40.2 7.6v288.1c-3.3.8-6.5 1.8-9.6 3-.5-8.2-1.2-15.3-2.4-21.8V220.9c0-.7 1.8-2.8 5.8-5.2 1.7-1 3.7-2 6.2-3zm17-41.9l7.3-26.5v-.1c.6-2.5 4.9-6.3 15.1-9.5 3.2-1 6.7-1.9 10.5-2.6l-7.5 34.8c-9.1.9-17.7 2.2-25.4 3.9zm33.4-4.7l7.6-35.3c6.7-.8 13.9-1.3 21.4-1.3 7.4 0 14 .3 19.9 1l7.7 35.5c-8.8-.6-17.9-1-27.3-1-10.1 0-19.9.4-29.3 1.1zm57-34.5c16.8 2.7 25.9 7.9 27.3 12.8l8.1 26.4c-8.3-1.8-17.7-3.2-27.8-4.2l-7.6-35zm54.2 82.5c2 .8 3.6 1.5 4.9 2.2 3.8 2.1 5 3.8 5 4.6v266.3h.1c-2.8 8.9-5.2 17.7-7.3 26.4-.6-2.4-1.5-4.6-2.7-6.5v-293zm-565.4 185c-.5-9.9-.7-19.7-.4-29.5 19 6.9 37.3 10 55.1 10 56.7 0 107.4-31 154.5-66.4 47.3-35.6 108.1-60 175.7-70.5v216.5c-.7-1.6-1.5-3.3-2.3-4.9-.9-1.7-1.9-3.6-3.9-4.9-3-1.9-7.2-1.7-10.5.6-2.5 1.7-4.1 4.3-5.4 6.5-6.5 11.3-9.7 26.4-11.9 41.6-14.6-7.3-28.8-1.9-34.5.9-6.5-6.5-15.2-10.3-23.7-10.5-1 0-1.9 0-2.9.1-.6-28.3-6-55.9-12-78.2-11.9-44.2-28.5-77.6-28.6-77.9l-4.6-9.2-31.8 161.6c-.7.5-1.4.9-2 1.5l8.9-96.8-44.5 92c-3-11.3-8.3-25.4-19.2-27.9-3.9-.9-8.2.2-11.9 2.8-10.1 7.3-14.1 19.7-15.7 28.9-1.2 6.6-1.4 13.7-.8 20.3-.9-.4-1.8-.8-2.7-1-7.2-2.2-15.7-.8-21.7 3.4-1.2-11.1-5.1-26.2-11.5-34.5-3.1-4-6.6-6.1-10.3-6.2-4.9-.2-8.2 4-9.2 5.4-8.7 11.2-10.1 24.3-11.6 37-.1.6-.1 1.1-.2 1.7-12-3.4-24.7-2.5-35.9 2.1-13.9-35.8-22.4-74.3-24.5-114.5zm247.4-53.8c5.7 12.9 15.8 37.5 23.7 67.1 7.4 27.6 12.4 56.5 11.8 85.3-.2 10.2-1.2 20.4-3 30.6-.4 2.1-3.2 16.3-7.2 26.3-3.9.5-17.9 1.3-66.9 1.8l41.6-211.1zm-50.1 211c-21.4.2-41.1.2-50.5.2l62.4-129.1-11.9 128.9zm11.9-53.3l.4-4.5c.2-.4.5-.9.7-1.3l-1.1 5.8zm-182.2 17.1c10.9-4.5 23.5-4.9 35-.6l4.1 1.5.6-4.4c.3-2 .5-4 .7-6 1.4-12.3 2.7-23.8 10.2-33.5 1.8-2.4 2.9-2.7 3.4-2.7 2 .1 3.9 2 5.1 3.5 7.5 9.6 11.5 33.1 10.1 39.6l6.8 1.4c.4-1.7 1.1-2.8 3.3-4.6 4.2-3.5 11-4.7 16.4-3 2.5.8 5.8 2.6 7 6.5l6.7-1.9c-4.4-15.3-2.8-43.3 11.7-53.7 2-1.5 4.4-2.1 6.3-1.7 5.7 1.3 10.6 9.6 14.5 24.6.3 1.2.5 4.6.6 8.3l-23.7 49.1c-33.4 5-65.8 12.3-97.2 21.7-8.1-14.2-15.3-28.9-21.6-44.1zm25 49.9c29.3-8.7 59.4-15.5 90.4-20.3l-6.7 13.9h6.1c4.7 0 28.4 0 54.9-.2l-.5 5.2h-89.4l5.7 5.9c.7.7 17.1 17.7 37.3 25.5l1 .4 1-.2c.6-.1 65.6-13.9 134-13.9h2.4l6.6-17.7h-91.2l1-5.3c19.6-.2 35.5-.4 47.1-.8 7.4-.2 13.2-.4 17.2-.7 6.5-.4 8.8-.7 9.8-3.1 2.3-5.7 4.2-11.6 5.7-17.6 3 .1 5.9.2 8.9.4 13.8 7.8 18 25 14.8 37.3-2.9 11.4-11.2 22.6-26 35.4-36.4 31.4-86.6 52.2-139.8 58.3-36-28.3-66.7-63-90.3-102.5zm232.6 5.5l-1.4 3.7c-63.4.3-123.4 12.1-132 13.9-11.2-4.5-21.2-12.2-27.4-17.5h160.8zm-135.3 102.3c52-7.1 100.9-28 136.8-58.9 15.8-13.7 24.7-25.9 28-38.6 3.1-12 .3-27.8-10-38.2 4.9.3 9.8.7 14.7 1 37.9 28.1 59.1 71.1 55.4 112.5-3.4 38.2-26.6 65.9-57.8 91.7-61.9-9.2-118.9-33.6-167.1-69.5zm353.7 49.7c-35.6 13.4-73 21.3-111.5 23.3-6.7.4-13.5.5-20.2.5-15.8 0-31.3-1-46.5-2.9 30.1-25.7 52.2-53.7 55.7-92.3 3.7-40.7-15.4-82.8-50.3-112.1 5 .5 10 1 15 1.6 31.3 9.5 53 17.5 77.7 31.9 32.5 19 57.7 42.6 72.9 68.3 15.8 27 18.4 57.1 7.2 81.7zm218.8-222c-16.4 45.3-41 86.4-73.3 122.4s-70.6 64.9-113.9 86c-7.7 3.8-15.6 7.3-23.5 10.5 9.3-25.3 5.8-55-10-81.7-15.7-26.6-41.7-50.9-75.1-70.5-15.6-9.1-30-15.7-46.2-21.7 14.8 2.4 29.6 5.3 44.4 8.6 17.2 3.9 35 8.4 52.2 12.7 63.8 16.1 129.4 32.6 195.1 27.7 1.7-2.3 3.4-4.6 5-7-66.6 6.2-133.5-10.6-198.5-27-17.2-4.3-35.1-8.8-52.4-12.7-46.2-10.4-92.9-16.5-139.8-18.2 2.7-12.8 3.9-25.9 4-39 .9-.1 1.8-.2 2.7-.1 7.4.1 15 3.9 20.4 10.1l2 2.3 2.5-1.6c.2-.1 17.8-11 34 .4l4.7 3.3.8-5.7c2.2-16.2 5.1-32.8 11.8-44.3 1-1.7 2-3.3 3.3-4.3.9-.6 2.1-.8 2.7-.5.6.4 1.1 1.5 1.5 2.2 7.2 14.2 10.2 28.2 11.2 51.7l.2 5.2 4.8-2.2c18.4-8.5 42.5-9 59.9-1.2l3.6 1.6 1.2-3.8c1.4-4.4 5.5-7.8 10-8.4 4.5-.6 9.4 1.6 11.9 5.5 1.1 1.6 1.8 3.7 2.3 6.2.4 2 1.1 3.6 1.7 4.8.7 1.5 1 2.3 1 3.4 0 .3-.1.6-.1.8l6.9 1c.1-.4.1-.8.1-1.1.6-4.6 1.2-9.3 3.3-13.2 1.6-3.1 5-6.7 9.3-6.8h3.7l-.2-3.7c-.3-5.2-.4-10.6 1.5-15.2 1.5-3.6 5.2-7.5 9.5-7.4l3.6.1.1-3.6c.1-7.7 1.7-15.2 4.6-22.3 1-2.6 2.7-4.1 3.2-3.9.2.1.7.5 1.5 2.6 3.1 8 4.7 16.3 5 24.9l.1 2.5 2.4.7c7.2 2.2 12 10.9 10 18.2l-.2.6c-.5 1.8-1.2 4.2-.1 6.7 1.2 2.7 3.7 3.8 5.6 4.6.3.1.6.3.9.4 3.2 1.5 5.8 5.2 6.8 9.7.4 1.7.9 3.4 1.4 5.1 1 3.3 1.9 6.4 1.7 9.3l6.9 1c5.9-30.3 15.9-61.5 29.9-92.7.4-1 1-2.3 1.7-2.7.1 0 .1-.1.1-.1.9.1 5.4 2.2 14.1 29.7.3 1.1.6 1.9.8 2.5 6.9 20.2 13.5 42.1 14.8 64.9l7-.4c-.1-1.7 1.1-3.7 3.1-4.9 6.9-4.2 17.2-4.5 22.4 2.4l5.3 7 1-8.7c1.9-17.2 5.5-32.8 12.6-53.7 1.5-4.4 3.1-6.7 5-6.9 2.6-.3 5.2 3.9 5.9 5.2 9.2 16.3 13.5 41.8 11.6 68.3 2.6-5.3 5-10.7 7.3-16.2-.4-15.8-3-37.9-12.9-55.5-3.5-6.1-8-9.2-12.8-8.7-7.2.8-9.9 8.9-10.8 11.6-6.3 18.7-10 33.3-12.1 48.5-7.9-4.8-18.6-3.8-26.2.8-.1.1-.3.2-.4.2-2.4-19.7-8.2-38.5-14.2-56.1-.2-.5-.4-1.3-.7-2.3-7-22.2-12.4-32.1-18.4-34.2-2.2-.8-4.4-.5-6.4.8-2.3 1.6-3.4 4-4.2 5.7-4.6 10.4-8.8 20.7-12.6 31v-217c61.1 16.5 116.6 47.6 159.1 88.4.8 7 1.4 14.1 1.8 21.2 2.6 50.2-4.6 99.4-21.5 146.2z"/></g></svg>