<svg id="Layer_1" data-name="Layer 1" xmlns="http://www.w3.org/2000/svg" viewBox="0 0 432 432"><defs><style>.cradle-cls-1{fill:none}.cradle-cls-2{clip-path:url(#cradle-clip-path)}.cradle-cls-3{fill:#fff}.cradle-cls-4{fill:#ffeb82}.cradle-cls-5{fill:#a3b08a}.cradle-cls-6{fill:#739ed4}.cradle-cls-7{fill:#7d915e}.cradle-cls-8{fill:#b5d4f2}.cradle-cls-9{fill:#5e7538}.cradle-cls-10{fill:#6987b8}.cradle-cls-11{fill:#3d70a6}.cradle-cls-12{fill:#0b486b}</style><clipPath id="cradle-clip-path" transform="translate(-1)"><path class="cradle-cls-1" d="M1 0h432v432H1z"/></clipPath></defs><title>cradle</title><g class="cradle-cls-2"><path class="cradle-cls-3" d="M78 152.07c2.39 1.83 4.91 4.5 2.38 6.19h-69.5a211.59 211.59 0 0 1 12.69-33.88 51.69 51.69 0 0 1 5.15 1.13c6.09 1.67 12 4.31 15.9 8.51s5.31 10.2 2.31 14.87a135.83 135.83 0 0 1 22 .48c3.24.34 6.67.87 9.06 2.71m318.28-53l-.12.08H211.53s-6.43-.48-6.34-2.7 2.55-3.86 4.92-5.08c17.79-9.18 41.8-10.45 61-3.24 0-7.28 8-14 17.25-14.62s17 3.21 20.06 10.54c3.47-12.76 9-19.71 21-28.33a49.2 49.2 0 0 1 19.9-7.92 215 215 0 0 1 47 51.28" transform="translate(-1)"/><path class="cradle-cls-4" d="M118.16 73a18 18 0 1 1-18 18 18 18 0 0 1 18-18" transform="translate(-1)"/><path class="cradle-cls-5" d="M431 213.16a212.88 212.88 0 0 1-12 73.62 677.009 677.009 0 0 0-41.89-3.65c-29.3-1.66-54.8-1.3-84-1.87-20.73-.4-42.29.66-63 1.59-17.61.79-35.18.31-52.81-.1-16.4-.38-2.05-10.45 4.44-13.76l.72-.35c6-2.84 13.13-6 19.75-7.05 18.25-2.75 36.23-3 54.27-6.25l.05.27c36.91-1.56 73.57-10.65 108.19-23.52 21.56-8 43.76-18.3 66.24-18.91" transform="translate(-1)"/><path class="cradle-cls-5" d="M383 193.5c13.85-7.61 28.29-13.89 44.29-17.31a215.69 215.69 0 0 1 3.41 28.39q.23 4.31.29 8.59c-22.48.61-44.67 10.9-66.24 18.91-34.62 12.87-71.28 22-108.19 23.52l-.05-.27c4-.73 8.08-1.61 12.12-2.69a239.58 239.58 0 0 0 63.26-27.29C349.3 214.6 365.7 203 383 193.5" transform="translate(-1)"/><path class="cradle-cls-6" d="M419 286.78q-2.21 6.28-4.78 12.38c-14.22-.49-26.67-.76-38-.76l.85-15.27c13 .74 26.75 1.86 41.89 3.65" transform="translate(-1)"/><path class="cradle-cls-7" d="M414.23 299.16q-2.9 6.84-6.25 13.45c-20.85 3-41 10.13-59.75 17.86-24.34 10-47 22.3-71.13 32.69-54.2 23.37-117 37-178.39 31.21a215.65 215.65 0 0 1-46-41.22c120.44 11.3 228.57-9.51 269.91-28.78 23.37-10.89-36.91-7.94-39.54-11.45-4-5.32 20-8.66 29.94-10.19 19.89-3.07 38.9-4.32 63.26-4.32 11.3 0 23.74.27 38 .76" transform="translate(-1)"/><path class="cradle-cls-8" d="M136.14 91a18 18 0 1 0-18 18 18 18 0 0 0 18-18m150.19 60.74c-8.14 2-16.3 4-25.15-1a15.25 15.25 0 0 1-1.34-.85q-3.73-3.75-8.24-7.54c-6.11-5.94-12.83-11.54-19.43-6A39.68 39.68 0 0 0 223.3 147a61.47 61.47 0 0 0-6.3 16.7c-1.49 6.28-1.17 25.59-7.09 29.06a6.25 6.25 0 0 1-.71.36 15.18 15.18 0 0 1-5.45.93c-12.74.57-29 2.93-41.49-.81l-.55-.17a12.08 12.08 0 0 1-7.57-6.53c-.77-1.9-1.54-3.77-2.32-5.59l-.14-.34c-1.33-3.2-3-6.15-7-7.72-4.18-1.67-10.54 0-15.69-.92a11 11 0 0 1-1.63-.41c-3-1-6.82-4.6-10.5-7.94S109.5 157 107 157.2a8.12 8.12 0 0 0-5.25 2.47q-5.06 5.49-10 10.44l-11.37-11.85c2.54-1.69 0-4.36-2.37-6.19s-5.82-2.37-9.06-2.71a135.84 135.84 0 0 0-22-.48c3-4.67 1.57-10.66-2.31-14.87s-9.81-6.84-15.9-8.51a51.75 51.75 0 0 0-5.15-1.13A214.05 214.05 0 0 1 349.32 47.8a49.2 49.2 0 0 0-19.9 7.93c-12 8.62-17.52 15.57-21 28.33-3.08-7.33-10.76-11.13-20.06-10.54s-17.25 7.34-17.25 14.62c-19.21-7.21-43.23-5.94-61 3.24-2.36 1.22-4.84 2.87-4.92 5.08s6.34 2.69 6.34 2.69h184.62l.12-.08a212.6 212.6 0 0 1 31 77.12c-16 3.42-30.43 9.7-44.29 17.31a129.66 129.66 0 0 1-64.09-33.56c-4.08-3.91-8.3-8.87-14.15-10-6.31-1.25-12.37.3-18.44 1.82" transform="translate(-1)"/><path class="cradle-cls-9" d="M408 312.61a213.71 213.71 0 0 1-11.27 19.6c-30.35 8.77-55.83 26-79.91 44.41l-41.93 32c-11.06 8.38-23.36 17.27-37.45 20.38q-4.48.43-9 .67a213.07 213.07 0 0 1-129.7-35.33c61.35 5.78 124.19-7.83 178.39-31.21 24.08-10.39 46.79-22.67 71.13-32.69 18.8-7.73 38.9-14.82 59.75-17.86" transform="translate(-1)"/><path class="cradle-cls-6" d="M42.74 268.82h138.94l.09.17c-6.49 3.31-20.83 13.38-4.44 13.76 17.63.42 35.2.89 52.81.1 20.71-.93 42.27-2 63-1.59 29.18.57 54.68.21 84 1.87l-.85 15.27c-24.36 0-43.37 1.26-63.26 4.32-9.91 1.53-33.92 4.86-29.94 10.18 2.63 3.51 62.91.56 39.54 11.45-41.35 19.27-149.47 40.08-269.91 28.78a212.93 212.93 0 0 1-43.14-84.31h33.16z" transform="translate(-1)"/><path class="cradle-cls-9" d="M396.72 332.21A213.69 213.69 0 0 1 237.44 429c14.09-3.13 26.39-12 37.44-20.42l41.93-32c24.07-18.37 49.55-35.64 79.91-44.41" transform="translate(-1)"/><path class="cradle-cls-10" d="M162.31 193.24c12.48 3.75 28.74 1.38 41.49.81a15.17 15.17 0 0 0 5.45-.93l-.06.38c6.69 1 16.58 6.59 18.2 16.24.68 4 2.39 5.57 6.41 6.18s6.81-3 7-7.06c1.11-23.55-3.3-42.28-16.5-61.81h-1a39.65 39.65 0 0 1 8.86-10.68c6.6-5.54 13.31.05 19.42 6a82.81 82.81 0 0 0 8.24 7.54 14.9 14.9 0 0 0 1.34.85c8.85 5 17 3 25.15 1 6.07-1.51 12.13-3.07 18.44-1.82 5.84 1.16 10.06 6.12 14.14 10A129.65 129.65 0 0 0 383 193.5c-17.31 9.51-33.71 21.1-51.12 31.83a239.58 239.58 0 0 1-63.26 27.29c-4 1.09-8.08 2-12.12 2.69-18 3.25-36 3.5-54.27 6.25-6.62 1-13.77 4.21-19.75 7.05l-.72.35-.09-.17H42.74c32.78-10.63 85.51-60.39 62.83-96.79-5.87-9.42-11.87-.53-20.18 4.19q3.14-3 6.31-6.11 5-5 10-10.44a8.12 8.12 0 0 1 5.3-2.44c2.52-.2 6.15 3 9.92 6.38s7.47 6.94 10.5 7.94a10.85 10.85 0 0 0 1.63.41c5.15 1 11.51-.75 15.69.92 4 1.58 5.66 4.52 7 7.72l.14.34c.76 1.86 1.41 3.79 2.32 5.59a12.08 12.08 0 0 0 7.57 6.53l.55.16" transform="translate(-1)"/><path class="cradle-cls-11" d="M224.3 147c13.2 19.53 17.61 38.26 16.5 61.81-.19 4.07-3 7.67-7 7.06s-5.73-2.16-6.41-6.17c-1.62-9.65-11.51-15.23-18.2-16.24l.06-.38a6.24 6.24 0 0 0 .71-.36c5.93-3.48 5.6-22.79 7.09-29.06A61.53 61.53 0 0 1 223.3 147h1z" transform="translate(-1)"/><path class="cradle-cls-12" d="M105.57 172c22.67 36.4-30.05 86.16-62.83 96.79H9.58A214.07 214.07 0 0 1 3.94 236c28.3-18.75 54.16-34 81.46-59.78 8.31-4.73 14.31-13.61 20.18-4.19" transform="translate(-1)"/><path class="cradle-cls-8" d="M80.38 158.26l11.32 11.85q-3.17 3.15-6.31 6.11C58.1 202 32.24 217.25 3.94 236q-.4-4.26-.63-8.58a213.61 213.61 0 0 1 7.58-69.16h69.5z" transform="translate(-1)"/><path class="cradle-cls-12" d="M417.65 284.61c-38-4.4-67.3-4.69-98.18-5-8.48-.09-17.25-.17-26.29-.35-19.48-.38-39.67.53-59.18 1.42l-3.94.18c-16.64.75-33.58.35-50 0l-2.71-.07c-4.79-.11-5.61-1.08-5.63-1.08 0-.33.62-1.85 3.92-4.43a45.45 45.45 0 0 1 7.68-4.8c6.37-3 13.11-6 19.19-6.88 8.2-1.24 16.49-2 24.51-2.69 9.7-.87 19.63-1.76 29.59-3.54v.27c33.81-1.42 70.42-9.37 108.8-23.64 3.73-1.38 7.53-2.86 11.22-4.29 17.17-6.71 34.75-13.52 52.37-14.46a210.14 210.14 0 0 1-11.36 69.37m-4.73 12.5c-42.51-1.43-70.57-.93-100.21 3.64l-1.62.25c-18.22 2.78-28.42 5.09-30.17 9.37a3.71 3.71 0 0 0 .56 3.73c1.32 1.76 5 2.15 18.89 3 7.94.46 22.38 1.29 25.36 3.14a15.26 15.26 0 0 1-4 2.36c-41.38 19.28-149.39 39.63-268.09 28.67a211.33 211.33 0 0 1-41.5-80.41H174.9c-3.85 2.68-7.78 6.32-7.06 9.68.77 3.62 5.76 4.16 9.44 4.24l2.72.01c16.45.39 33.46.79 50.24 0l3.94-.18c19.46-.88 39.57-1.79 58.93-1.41 9.06.18 17.84.27 26.33.35 30.52.31 59.47.6 96.86 4.87q-1.59 4.37-3.36 8.65m-6.24 13.66c-21.54 3.26-41.7 10.67-59.23 17.89-13.3 5.47-26.3 11.71-38.88 17.74-10.49 5-21.34 10.24-32.28 15a402.86 402.86 0 0 1-90 27.11 329.17 329.17 0 0 1-87 4 212.91 212.91 0 0 1-41.95-36.84c22.68 2 44.25 2.77 64.23 2.77a748.7 748.7 0 0 0 87.41-5.15c47.26-5.59 90-15.72 114.44-27.09 3.52-1.64 7-3.71 6.47-6.69-.83-4.32-9.57-5.27-29.32-6.41-6.1-.35-13.57-.78-15.77-1.46.6-.56 2.72-2 9.94-3.64 5.68-1.32 12.17-2.31 16.92-3l1.63-.25c29-4.47 56.53-5 97.92-3.64q-2.16 4.93-4.55 9.73m-11.22 19.69c-28.38 8.28-52.89 24-79.87 44.56l-41.92 32c-11.67 8.91-23.32 17.08-36.46 20q-4.43.42-8.9.66c-3.82.2-7.69.31-11.5.31a210.8 210.8 0 0 1-110.37-31q10.33.7 20.88.71a346.86 346.86 0 0 0 59.68-5.37A406.77 406.77 0 0 0 277.89 365c11-4.75 21.9-10 32.43-15 12.52-6 25.47-12.22 38.67-17.65 16.52-6.8 35.37-13.73 55.43-17.13q-4.15 7.83-9 15.29M374.7 357.7a211.33 211.33 0 0 1-120.41 67c7.67-4 14.88-9.26 21.81-14.55l41.92-32c25.14-19.18 48.06-34 74-42.48a214.09 214.09 0 0 1-17.28 22M6 237c4.35-2.87 8.64-5.68 12.84-8.42 22.93-14.94 44.83-29.22 67.71-50.77a60.62 60.62 0 0 0 5.69-3.88c3.07-2.28 6-4.43 8.08-4 1.16.22 2.34 1.29 3.51 3.16 6.43 10.32 6.91 22.39 1.44 35.86-10.4 25.6-40.7 50.59-62.87 57.88H11.15A212.46 212.46 0 0 1 6 237m-.7-9.69a211.1 211.1 0 0 1 7.1-67.06H81l.5-.34a4 4 0 0 0 1.94-3.24c.06-1.94-1.31-4-4.21-6.19s-6.7-2.76-10.07-3.1a138 138 0 0 0-19.09-.64c1.3-4.59-.12-9.89-4-14.07-3.66-4-9.33-7-16.84-9.08q-1.37-.37-2.76-.67A211.74 211.74 0 0 1 205.69 4.29c3.82-.2 7.69-.31 11.5-.31a210.9 210.9 0 0 1 127.57 42.77 49 49 0 0 0-16.51 7.35c-11.24 8.05-16.84 14.77-20.4 25-4.15-5.36-11.17-8.14-19.61-7.61-9.23.59-17.18 6.68-18.81 13.9-19.32-6.45-42.68-4.88-60.24 4.18-2.51 1.3-5.87 3.41-6 6.78-.14 3.73 5.68 4.57 8.18 4.76h183.88A210.9 210.9 0 0 1 425 174.66c-15.23 3.48-29 9.48-42.29 16.74a127.1 127.1 0 0 1-62.37-32.9c-.59-.56-1.18-1.15-1.78-1.74-3.64-3.61-7.78-7.7-13.36-8.81-6.48-1.29-12.62.17-18.56 1.65l-.45.11c-8.08 2-15.71 3.92-24-.71a7.27 7.27 0 0 1-1-.67c-2.46-2.45-5.15-4.92-8.12-7.42-6.46-6.27-14.21-12.74-22.11-6.1-7.71 6.48-12.73 15.5-15.79 28.4a70.69 70.69 0 0 0-1.06 8.09c-.65 6.64-1.74 17.74-5.11 19.72-1.44.85-3.46.94-5.23 1-2.69.12-5.49.32-8.45.53-10.64.75-22.65 1.58-32.14-1.2-.59-.37-1.2-.72-1.83-1l-.18.35a10.14 10.14 0 0 1-5.11-5c-.74-1.82-1.48-3.61-2.22-5.35-1.46-3.62-3.42-7.37-8.29-9.31-2.73-1.09-6-1-9.25-.83a35.6 35.6 0 0 1-6.33-.11l-.1-.09v.06a10.83 10.83 0 0 1-1.71-.4c-2.4-.8-5.76-3.85-9-6.81l-.65-.59-.4-.49-.07.06c-4.17-3.78-7.81-6.84-11.08-6.59a10 10 0 0 0-6.56 3.1c-28.74 31.2-55.37 48.56-83.56 66.93q-5.44 3.55-11.07 7.24-.2-2.58-.34-5.18M17.53 144q3.21-8.89 7.19-17.4c1.19.23 2.36.5 3.48.81 6.78 1.86 11.82 4.53 15 7.94 3 3.21 4.76 8.3 2.1 12.44l-2.12 3.3 3.92-.23a134.2 134.2 0 0 1 21.69.48c3 .31 6.11.81 8 2.3a8.63 8.63 0 0 1 2.55 2.62H13.52q1.81-6.16 4-12.24m375.09-46.86h-181a13.68 13.68 0 0 1-4.35-1c.24-.62 1.09-1.64 3.76-3C228.36 84.2 251.67 83 270.42 90l2.7 1v-2.87c0-6.21 7.18-12.11 15.38-12.63 8.65-.55 15.41 2.93 18.09 9.32l2.24 5.34 1.52-5.59c3.26-12 8.17-18.59 20.23-27.23a46.83 46.83 0 0 1 18.25-7.44 212.89 212.89 0 0 1 43.79 47.26M223.93 150.1c11.51 17.78 16 35.47 14.88 58.65a6.13 6.13 0 0 1-2 4.44 3.36 3.36 0 0 1-2.73.74c-3.24-.49-4.22-1.42-4.74-4.54a20.29 20.29 0 0 0-8.09-12.71 28 28 0 0 0-8.09-4.26c3.24-4.37 4.09-13 4.84-20.71a69.37 69.37 0 0 1 1-7.55 63.17 63.17 0 0 1 4.95-14.06m-42.32 116.72H52.85a125.69 125.69 0 0 0 25.68-17c14.25-12.07 25.07-26.05 30.48-39.37 5.9-14.52 5.29-28.17-1.75-39.47-1.81-2.9-3.82-4.53-6.15-5a7.11 7.11 0 0 0-2.59 0c1.56-1.62 3.12-3.28 4.68-5a6.11 6.11 0 0 1 3.94-1.83c1.66-.14 5.31 3 8.3 5.75 9.08 11.18 13.08 22.55 16.94 33.55l1 2.79 3.76-1.33-1-2.77c-2.77-7.9-5.61-16-10.3-24.13.31.14.62.27.93.37s.87.26 1.32.36c6 5.4 10.12 15.39 13.79 25.2l3.73-1.4c-3.19-8.53-6.71-17.2-11.64-23.34.8 0 1.61 0 2.41-.08 2.92-.11 5.68-.22 7.61.55 3.26 1.3 4.68 3.73 5.89 6.65l.21.5c.19.47.37.94.56 1.43.51 1.31 1 2.67 1.69 4 1.06 2.59 2.12 5.23 3.15 7.82 1.85 4.62 3.76 9.4 5.65 13.82l3.67-1.56c-1.77-4.16-3.58-8.65-5.33-13a16.27 16.27 0 0 0 1.67.64l.27.08c6.77 4.43 10.66 12 14.75 20.06 3.68 7.22 7.48 14.68 13.65 20l2.61-3c-5.58-4.84-9.21-11.95-12.71-18.82-3-5.84-6-11.81-10.34-16.57 8.45 1.07 17.72.43 26.14-.16 2.94-.21 5.71-.4 8.35-.52a21.12 21.12 0 0 0 4.78-.61c6.07.82 15.29 5.89 16.76 14.63.81 4.81 3.15 7.07 8.08 7.82a7.94 7.94 0 0 0 1.19.09 7.25 7.25 0 0 0 4.67-1.69 10.16 10.16 0 0 0 3.43-7.34c1.17-24.83-3.81-43.61-16.64-62.72a37.79 37.79 0 0 1 3.63-4.78c8 7.73 19 26.53 25 56l3.91-.8c-6.21-30.19-17.66-49.73-26.11-58 .28-.25.56-.5.85-.74 4.64-3.89 9.26-1.1 15.27 4.5l-.09.11 1.64 1.37 1.6 1.56a63 63 0 0 0 6.58 5.93c17.35 17.47 22.4 34.57 29 60.63l3.87-1c-5.91-23.45-10.62-39.85-23.82-55.72 6.48 1.41 12.6 0 18.57-1.43 14.23 7.94 19.45 16.05 27.94 30.51l3.44-2c-7.88-13.42-13.35-22-25.82-29.83 4.3-.95 8.48-1.5 12.78-.64s7.92 4.36 11.33 7.73c.61.61 1.22 1.21 1.83 1.79a131.27 131.27 0 0 0 59.93 32.94c-9.42 5.42-18.65 11.39-28 17.48-6 3.91-12.29 8-18.57 11.84a236.76 236.76 0 0 1-62.73 27.07c-13.78 3.71-27.84 5-41.42 6.18-8.08.72-16.43 1.47-24.75 2.72-6.59 1-13.65 4.06-20.3 7.22m247-62.18q.18 3.29.25 6.56c-18.26.94-36.22 7.9-53.73 14.69-3.67 1.42-7.46 2.9-11.16 4.27-29.72 11-58.33 18.26-85.37 21.56A240.53 240.53 0 0 0 332.93 227c6.32-3.9 12.59-8 18.65-11.88 10.63-6.89 21-13.63 31.73-19.55l.28.06v-.24c13.25-7.31 27-13.35 42.06-16.83a214.11 214.11 0 0 1 3 26.1m4.23 6.45q-.08-3.33-.25-6.67a218 218 0 0 0-3.09-26.72q-.35-2-.74-3.92a215.75 215.75 0 0 0-74.59-124.68q-2.12-1.74-4.28-3.43A214.9 214.9 0 0 0 217.19 0c-3.88 0-7.82.1-11.71.31A216.25 216.25 0 0 0 22.41 122.18q-.91 1.89-1.79 3.81-3.75 8.17-6.84 16.68-2.44 6.75-4.41 13.6-.57 2-1.11 4a215.08 215.08 0 0 0-6.95 67.27q.2 3.76.53 7.48.2 2.25.44 4.5A216.31 216.31 0 0 0 7 266.82q.48 2 1 4a215.24 215.24 0 0 0 40.05 79.88q1.76 2.2 3.57 4.36A217 217 0 0 0 91 391.53q3.4 2.44 6.89 4.76A214.79 214.79 0 0 0 216.82 432c3.51 0 7.06-.09 10.58-.26l1.13-.05q4.6-.25 9.16-.68a215.25 215.25 0 0 0 140-70.64A217.47 217.47 0 0 0 398 333.89q1.61-2.46 3.15-5 4.36-7.09 8.15-14.5 1.09-2.14 2.14-4.3 2.14-4.42 4.08-8.94.84-2 1.64-3.93c1.06-2.62 2.09-5.26 3.06-7.93l.14-.38q.69-1.92 1.34-3.85a214.13 214.13 0 0 0 11.3-70q0-2-.06-4" transform="translate(-1)"/><path class="cradle-cls-12" d="M118.15 74.95a16 16 0 1 1-16 16 16 16 0 0 1 16-16m0 36a20 20 0 1 0-20-20 20 20 0 0 0 20 20" transform="translate(-1)"/></g></svg>