<svg xmlns="http://www.w3.org/2000/svg" viewBox="0 0 758.43839 758.30002"><path d="M135.034 267c4.2 3.2 8.6 7.9 4.2 10.9h-122c5.8-20.6 13.2-40.5 22.3-59.5 3.1.5 6.1 1.2 9 2 10.7 2.9 21.1 7.6 27.9 14.9 6.8 7.4 9.3 17.9 4.1 26.1 12.9-.8 25.8-.5 38.6.8 5.7.6 11.7 1.5 15.9 4.8zM693.734 173.9l-.2.1h-324.1s-11.3-.8-11.1-4.7c.1-3.9 4.5-6.8 8.6-8.9 31.2-16.1 73.4-18.4 107.1-5.7 0-12.8 14-24.6 30.3-25.7 16.3-1.1 29.8 5.6 35.2 18.5 6.1-22.4 15.7-34.6 36.8-49.7 9.6-6.9 21.9-11.6 34.9-13.9 32.1 25.3 60 55.7 82.5 90z" fill="#fff"/><path d="M205.534 128.2c17.4 0 31.6 14.1 31.6 31.6 0 17.4-14.1 31.6-31.6 31.6s-31.6-14.1-31.6-31.6 14.1-31.6 31.6-31.6z" fill="#ffeb82"/><path d="M754.634 374.2c.6 45.2-6.8 88.7-21 129.2-26.6-3.1-50.7-5.1-73.5-6.4-51.4-2.9-96.2-2.3-147.4-3.3-36.4-.7-74.2 1.2-110.6 2.8-30.9 1.4-61.8.5-92.7-.2-28.8-.7-3.6-18.3 7.8-24.2.4-.2.9-.4 1.3-.6 10.5-5 23.1-10.6 34.7-12.4 32-4.8 63.6-5.3 95.3-11l.1.5c64.8-2.7 129.1-18.7 189.9-41.3 37.7-14 76.7-32 116.1-33.1z" fill="#a2b18a"/><path d="M670.434 339.7c24.3-13.4 49.7-24.4 77.7-30.4 3.1 16.2 5.1 32.9 6 49.8.3 5 .4 10.1.5 15.1-39.5 1.1-78.4 19.1-116.3 33.2-60.7 22.6-125.1 38.6-189.9 41.3l-.1-.5c7.1-1.3 14.2-2.8 21.3-4.7 39.1-10.5 76.6-26.7 111-47.9 30.6-18.9 59.4-39.2 89.8-55.9z" fill="#a2b18a"/><path d="M733.634 503.4c-2.6 7.3-5.4 14.6-8.4 21.7-25-.9-46.8-1.3-66.6-1.3l1.5-26.8c22.8 1.3 46.9 3.3 73.5 6.4z" fill="#749fd4"/><path d="M725.234 525.2c-3.4 8-7 15.9-11 23.6-36.6 5.3-71.9 17.8-104.9 31.3-42.7 17.6-82.6 39.1-124.9 57.4-95.1 41-205.4 64.9-313.1 54.8-30.2-20.1-57.5-44.5-80.8-72.4 211.4 19.8 401.2-16.7 473.8-50.5 41-19.1-64.8-13.9-69.4-20.1-7-9.3 35.2-15.2 52.6-17.9 34.9-5.4 68.3-7.6 111-7.6 19.9 0 41.8.5 66.7 1.4z" fill="#7e925f"/><path d="M500.734 266.4c-14.3 3.6-28.6 7-44.1-1.7-.8-.4-1.6-.9-2.4-1.5-4.4-4.4-9.2-8.8-14.5-13.2-10.7-10.4-22.5-20.2-34.1-10.5-6.5 5.5-11.6 11.8-15.6 18.7-5.1 8.9-8.5 18.9-11 29.2-2.6 11-2 44.9-12.4 51l-1.2.6c-2.9 1.3-6.3 1.5-9.6 1.6-22.4 1-50.9 5.1-72.8-1.4-.3-.1-.6-.2-1-.3-7.1-2.3-10.8-6.6-13.3-11.5v-.1c-1.4-3.3-2.7-6.6-4.1-9.8-.1-.2-.2-.4-.2-.6-2.3-5.6-5.3-10.8-12.3-13.6-7.3-2.9-18.5.1-27.5-1.6-1-.2-1.9-.4-2.9-.7-5.3-1.8-12-8.1-18.4-13.9-6.6-6-13-11.5-17.4-11.2-3.4.3-6.9 1.8-9.2 4.3-5.9 6.4-11.8 12.5-17.6 18.3l-19.9-20.8c4.4-3 0-7.7-4.2-10.9s-10.2-4.2-15.9-4.8c-12.8-1.3-25.8-1.6-38.6-.8 5.3-8.2 2.8-18.7-4.1-26.1-6.8-7.4-17.2-12-27.9-14.9-2.9-.8-6-1.5-9-2 57.2-120.4 176.9-206.5 319.5-214.1 94.8-5.1 183.2 25.4 252.3 79.9-13 2.3-25.3 7-34.9 13.9-21.1 15.1-30.8 27.3-36.8 49.7-5.4-12.9-18.9-19.5-35.2-18.5-16.3 1-30.3 12.9-30.3 25.7-33.7-12.7-75.9-10.4-107.1 5.7-4.1 2.1-8.5 5-8.6 8.9-.1 3.9 11.1 4.7 11.1 4.7h324.1l.2-.1c26.3 40.3 45.2 86 54.5 135.4-28.1 6-53.4 17-77.7 30.4-42.3-8.4-81.4-29.1-112.5-58.9-7.2-6.9-14.6-15.6-24.8-17.6-11.3-2.3-21.9.4-32.6 3.1zm-263.6-106.6c0-17.4-14.1-31.6-31.6-31.6s-31.6 14.1-31.6 31.6c0 17.4 14.1 31.6 31.6 31.6s31.6-14.2 31.6-31.6z" fill="#b4d3f1"/><path d="M714.334 548.8c-6 11.8-12.6 23.3-19.8 34.4-53.3 15.4-98 45.7-140.3 78-24.5 18.7-49.1 37.4-73.6 56.1-19.4 14.8-41 30.4-65.7 35.8-5.2.5-10.5.9-15.8 1.2-83.8 4.5-162.7-18.9-227.7-62 107.7 10.1 218-13.8 313.1-54.8 42.3-18.2 82.1-39.8 124.9-57.4 33-13.5 68.2-26 104.9-31.3z" fill="#5e7638"/><path d="M73.134 471.9h243.9l.1.3c-11.4 5.8-36.6 23.5-7.8 24.2 31 .7 61.8 1.6 92.7.2 36.4-1.6 74.2-3.5 110.6-2.8 51.2 1 96 .4 147.4 3.3l-1.5 26.8c-42.8 0-76.1 2.2-111 7.6-17.4 2.7-59.5 8.5-52.6 17.9 4.6 6.2 110.4 1 69.4 20.1-72.6 33.8-262.4 70.3-473.8 50.5-35.4-42.3-61.6-92.6-75.7-148h58.3z" fill="#749fd4"/><path d="M694.534 583.2c-60.5 93.4-161.5 158.7-279.6 170 24.7-5.5 46.3-21 65.7-35.8 24.5-18.7 49.1-37.4 73.6-56.1 42.3-32.4 87-62.7 140.3-78.1z" fill="#5e7638"/><path d="M283.034 339.2c21.9 6.6 50.5 2.4 72.8 1.4 3.2-.1 6.6-.3 9.6-1.6l-.1.7c11.8 1.8 29.1 11.6 31.9 28.5 1.2 7 4.2 9.8 11.2 10.8 7 1 12-5.3 12.3-12.4 1.9-41.3-5.8-74.2-29-108.5h-1.8c4-6.9 9.1-13.3 15.6-18.7 11.6-9.7 23.4.1 34.1 10.5 5.1 5 10 10 14.5 13.2.8.6 1.6 1.1 2.4 1.5 15.5 8.7 29.9 5.3 44.1 1.7 10.7-2.7 21.3-5.4 32.4-3.2 10.3 2 17.7 10.8 24.8 17.6 31.1 29.8 70.2 50.5 112.5 58.9-30.4 16.7-59.2 37-89.7 55.9-34.4 21.2-72 37.4-111 47.9-7.1 1.9-14.2 3.4-21.3 4.7-31.7 5.7-63.2 6.1-95.3 11-11.6 1.8-24.2 7.4-34.7 12.4-.4.2-.8.4-1.3.6l-.1-.3h-243.8c57.5-18.7 150.1-106 110.3-169.9-10.3-16.5-20.8-.9-35.4 7.4 3.7-3.5 7.4-7 11.1-10.7 5.8-5.8 11.7-11.9 17.6-18.3 2.3-2.5 5.8-4.1 9.2-4.3 4.4-.4 10.8 5.2 17.4 11.2 6.5 5.9 13.1 12.2 18.4 13.9.9.3 1.9.5 2.9.7 9 1.7 20.2-1.3 27.5 1.6 6.9 2.8 9.9 7.9 12.3 13.6.1.2.2.4.2.6 1.3 3.3 2.5 6.7 4.1 9.8v.1c2.5 4.9 6.1 9.2 13.3 11.5.3 0 .7.1 1 .2z" fill="#6888b7"/><path d="M391.834 258.1c23.2 34.3 30.9 67.2 29 108.5-.3 7.1-5.2 13.5-12.3 12.4-7.1-1.1-10.1-3.8-11.2-10.8-2.9-16.9-20.2-26.7-31.9-28.5l.1-.7 1.2-.6c10.4-6.1 9.8-40 12.4-51 2.5-10.4 5.9-20.3 11-29.2h1.7zM183.434 302c39.8 63.9-52.8 151.2-110.3 169.9h-58.2c-4.7-18.7-8.1-37.9-9.9-57.6 49.7-32.9 95.1-59.7 143-104.9 14.6-8.3 25.1-23.9 35.4-7.4z" fill="#3c6fa6"/><path d="M139.234 277.8l19.9 20.8c-3.7 3.7-7.4 7.3-11.1 10.7-47.9 45.2-93.3 72-143 104.9-.5-5-.8-10-1.1-15.1-2.2-42.1 2.5-83 13.3-121.4h122z" fill="#b4d3f1"/><g fill="#231f20"><path d="M758.134 370.7c-.1-3.9-.2-7.8-.4-11.7-.9-15.9-2.7-31.6-5.4-46.9-.4-2.3-.8-4.6-1.3-6.9-17.4-87.8-64.9-164.4-131-218.9l-7.5-6c-64.6-50.4-145.5-80.3-233.2-80.3-6.8 0-13.7.2-20.6.5-51.1 2.8-100.1 15.5-145.7 37.7-44.1 21.5-83.1 50.9-116 87.6-24.1 26.9-44.1 56.6-59.6 88.7-1.1 2.2-2.1 4.4-3.1 6.7-4.4 9.6-8.4 19.3-12 29.3-2.9 7.9-5.4 15.9-7.7 23.9-.7 2.3-1.3 4.7-1.9 7-10.2 38.3-14.3 77.9-12.2 118.1.2 4.4.5 8.8.9 13.1.2 2.6.5 5.3.8 7.9 1.8 16.3 4.6 32.3 8.3 48 .6 2.3 1.2 4.7 1.8 7 13.6 52 37.9 99.6 70.3 140.2 2.1 2.6 4.2 5.1 6.3 7.6 20.3 24.1 43.5 45.6 69.1 64 4 2.9 8 5.6 12.1 8.3 60 39.7 131.8 62.7 208.7 62.7 6.2 0 12.4-.2 18.6-.5.7 0 1.3-.1 2-.1 5.4-.3 10.7-.7 16.1-1.2 45.3-4.3 88.9-16.5 129.7-36.4 44.1-21.5 83.1-50.9 116-87.6 13.2-14.7 25.1-30.2 35.7-46.5 1.9-2.9 3.7-5.8 5.5-8.7 5.1-8.3 9.9-16.8 14.3-25.4 1.3-2.5 2.5-5 3.8-7.5 2.5-5.2 4.9-10.4 7.2-15.7 1-2.3 1.9-4.6 2.9-6.9 1.9-4.6 3.7-9.2 5.4-13.9.1-.2.2-.4.2-.7.8-2.3 1.6-4.5 2.4-6.8 13.4-39.6 20-80.8 19.8-122.8-.3-2.3-.3-4.6-.3-6.9zm-7.5-11.4c.2 3.8.3 7.7.4 11.5-32.1 1.6-63.6 13.9-94.3 25.8-6.4 2.5-13.1 5.1-19.6 7.5-52.2 19.4-102.4 32.1-149.9 37.8 33.5-10.5 65.4-25.1 95.2-43.4 11.1-6.8 22.1-14 32.7-20.9 18.7-12.1 36.9-23.9 55.7-34.3.2 0 .3.1.5.1l.1-.4c23.3-12.8 47.3-23.4 73.8-29.5 2.8 15 4.6 30.3 5.4 45.8zm-433.7 109.1h-226.1c14.7-7.1 30.5-17.5 45.1-29.9 25-21.2 44-45.7 53.5-69.1 10.4-25.5 9.3-49.4-3.1-69.3-3.2-5.1-6.7-8-10.8-8.7-1.5-.3-3.1-.3-4.6 0 2.7-2.8 5.5-5.8 8.2-8.7 1.7-1.8 4.2-3 6.9-3.2 2.9-.2 9.3 5.3 14.6 10.1 15.9 19.6 23 39.6 29.7 58.9.6 1.6 1.1 3.3 1.7 4.9l6.6-2.3c-.6-1.6-1.1-3.2-1.7-4.9-4.9-13.9-9.8-28.1-18.1-42.4.5.2 1.1.5 1.6.6.8.3 1.5.5 2.3.6 10.6 9.5 17.8 27 24.2 44.2l6.6-2.5c-5.6-15-11.8-30.2-20.4-41 1.4 0 2.8-.1 4.2-.1 5.1-.2 10-.4 13.4 1 5.7 2.3 8.2 6.6 10.3 11.7.1.3.2.6.4.9.3.8.7 1.7 1 2.5.9 2.3 1.8 4.7 3 7 1.9 4.6 3.7 9.2 5.5 13.7 3.2 8.1 6.6 16.5 9.9 24.3l6.4-2.7c-3.1-7.3-6.3-15.2-9.4-22.9.9.4 1.9.8 2.9 1.1.2 0 .3.1.5.1 11.9 7.8 18.7 21.1 25.9 35.2 6.5 12.7 13.1 25.8 24 35.2l4.6-5.3c-9.8-8.5-16.2-21-22.3-33-5.2-10.3-10.6-20.7-18.1-29.1 14.8 1.9 31.1.7 45.9-.3 5.2-.4 10-.7 14.7-.9 2.5-.1 5.5-.3 8.4-1.1 10.7 1.4 26.8 10.3 29.4 25.7 1.4 8.4 5.5 12.4 14.2 13.7.7.1 1.4.2 2.1.2 3 0 5.8-1 8.2-3 3.5-2.9 5.8-7.7 6-12.9 2.1-43.6-6.7-76.5-29.2-110.1 1.9-3 4.1-5.8 6.4-8.4 14.1 13.6 33.3 46.6 43.9 98.2l6.9-1.4c-10.9-53-31-87.3-45.8-101.8.5-.4 1-.9 1.5-1.3 8.1-6.8 16.3-1.9 26.8 7.9l-.2.2c1 .8 1.9 1.6 2.9 2.4.9.9 1.9 1.8 2.8 2.7 4 3.9 7.8 7.7 11.6 10.4 30.5 30.7 39.3 60.7 50.9 106.4l6.8-1.7c-10.4-41.2-18.6-69.9-41.8-97.8 11.4 2.5 22.1.1 32.6-2.5 25 13.9 34.1 28.2 49 53.6l6-3.5c-13.8-23.6-23.4-38.6-45.3-52.4 7.5-1.7 14.9-2.6 22.4-1.1 7.7 1.5 13.9 7.7 19.9 13.6 1.1 1.1 2.1 2.1 3.2 3.1 29.8 28.5 65.9 48.3 105.2 57.8-16.5 9.5-32.7 20-49.2 30.7-10.6 6.9-21.6 14-32.6 20.8-34.2 21-71.2 37-110.1 47.5-24.2 6.5-48.9 8.7-72.7 10.9-14.2 1.3-28.8 2.6-43.4 4.8-11.7 1.8-24.1 7.2-35.8 12.7zm74.3-204.9c20.2 31.2 28 62.3 26.1 103-.2 3.2-1.5 6.1-3.5 7.8-1.4 1.1-3 1.6-4.8 1.3-5.7-.9-7.4-2.5-8.3-8-1.4-8.6-6.4-16.3-14.2-22.3-4.2-3.2-9.2-5.8-14.2-7.5 5.7-7.7 7.2-22.8 8.5-36.4.5-5.6 1-10.4 1.7-13.3 2.2-9.4 5.1-17.5 8.7-24.6zm296.1-92.9h-317.8c-3-.2-6.3-1-7.6-1.7.4-1.1 1.9-2.9 6.6-5.3 30.4-15.7 71.4-17.9 104.3-5.5l4.7 1.8v-5.1c0-10.9 12.6-21.3 27-22.2 15.2-1 27 5.1 31.8 16.4l3.9 9.4 2.7-9.8c5.7-21 14.3-32.6 35.5-47.8 8.8-6.3 20-10.7 32-13.1 29.6 23.5 55.6 51.4 76.9 82.9zm-658.5 82.2c3.8-10.4 8-20.6 12.6-30.6 2.1.4 4.1.9 6.1 1.4 11.9 3.3 20.7 7.9 26.3 13.9 5.2 5.6 8.3 14.6 3.7 21.8l-3.7 5.8 6.9-.4c12.7-.8 25.5-.5 38.1.8 5.3.6 10.7 1.4 14.1 4 3.1 2.3 4.1 3.9 4.5 4.6h-115.6c2.1-7 4.5-14.1 7-21.3zm-21.4 146.3c-2.1-40.1 2-79.6 12.5-117.7h120.4l.9-.6c2.7-1.8 3.4-4.1 3.4-5.7.1-3.4-2.3-7-7.4-10.9-5-3.9-11.8-4.8-17.7-5.5-11.1-1.1-22.3-1.5-33.5-1.1 2.3-8.1-.2-17.4-7-24.7-6.4-7-16.4-12.3-29.6-15.9l-4.8-1.2c15.1-30.9 34.4-59.4 57.6-85.3 32.3-36 70.6-64.9 113.9-86 44.8-21.8 92.9-34.3 143.1-36.9 6.7-.4 13.5-.5 20.2-.5 83.9 0 161.5 27.9 223.9 75.1-10.8 2.7-20.8 7.1-29 12.9-19.7 14.1-29.6 25.9-35.8 43.9-7.3-9.4-19.6-14.3-34.4-13.4-16.2 1-30.2 11.7-33 24.4-33.9-11.3-74.9-8.6-105.7 7.3-4.4 2.3-10.3 6-10.5 11.9-.2 6.5 10 8 14.4 8.3H692.034c24.9 38.6 42.9 82.2 52.1 129-26.7 6.1-50.9 16.6-74.2 29.4-40.9-8.4-78.7-28.3-109.5-57.7-1-1-2.1-2-3.1-3.1-6.4-6.3-13.7-13.5-23.4-15.5-11.4-2.3-22.2.3-32.6 2.9-.3.1-.5.1-.8.2-14.2 3.5-27.6 6.9-42.1-1.3-.6-.3-1.2-.7-1.8-1.2-4.3-4.3-9-8.6-14.2-13-11.3-11-24.9-22.4-38.8-10.7-13.5 11.4-22.3 27.2-27.7 49.9-.8 3.4-1.3 8.4-1.9 14.2-1.1 11.6-3 31.1-9 34.6-2.5 1.5-6.1 1.6-9.2 1.8-4.7.2-9.6.6-14.8.9-18.7 1.3-39.8 2.8-56.4-2.1-1-.6-2.1-1.3-3.2-1.8l-.3.6c-4.5-2-7.1-5.1-9-8.8-1.3-3.2-2.6-6.3-3.9-9.4-2.6-6.3-6-12.9-14.6-16.3-4.8-1.9-10.6-1.7-16.2-1.5-3.8.2-7.7.3-11.1-.2-.1 0-.1-.1-.2-.2l-.1.1c-1.1-.2-2.1-.4-3-.7-4.2-1.4-10.1-6.8-15.8-12-.4-.3-.8-.7-1.1-1-.2-.3-.5-.6-.7-.9l-.1.1c-7.3-6.6-13.7-12-19.5-11.6-4.5.4-8.7 2.3-11.5 5.4-50.4 54.8-97.2 85.2-146.7 117.5-6.4 4.2-12.9 8.4-19.4 12.7-.5-2.7-.7-5.7-.8-8.7zm1.3 17c7.6-5 15.2-10 22.5-14.8 40.2-26.2 78.7-51.3 118.9-89.1 3.6-2.1 6.8-4.5 10-6.8 5.4-4 10.5-7.8 14.2-7.1 2 .4 4.1 2.3 6.2 5.6 11.3 18.1 12.1 39.3 2.5 63-18.3 44.9-71.4 88.8-110.4 101.6h-55c-4.1-17.1-7.2-34.6-8.9-52.4zm647.1 211.8c-32.3 36-70.6 64.9-113.9 86-31 15.1-63.7 25.7-97.5 31.7 13.5-7.1 26.1-16.3 38.3-25.5l73.6-56.1c44.1-33.7 84.4-59.8 129.8-74.6-9.2 13.4-19.3 26.3-30.3 38.5zm36.5-47.8c-49.8 14.5-92.8 42.1-140.2 78.2l-73.6 56.1c-20.5 15.6-40.9 30-64 35.2-5.2.5-10.4.9-15.6 1.2-6.7.4-13.5.5-20.2.5-70.8 0-137.2-19.9-193.8-54.5 12.1.8 24.3 1.2 36.7 1.2 34.1 0 69.2-3.1 104.7-9.3 53.7-9.4 107.4-25.6 159.6-48.1 19.3-8.3 38.4-17.5 56.9-26.4 22-10.5 44.7-21.4 67.9-31 29-11.9 62.1-24.1 97.3-30.1-4.9 9.4-10.1 18.3-15.7 27zm19.7-34.5c-37.8 5.7-73.1 18.7-103.9 31.3-23.3 9.6-46.2 20.6-68.2 31.1-18.4 8.8-37.5 18-56.7 26.3-51.7 22.3-104.9 38.3-158 47.6-52.5 9.2-103.8 11.5-152.7 7-27.3-18.2-52.1-40-73.6-64.7 39.8 3.5 77.7 4.9 112.7 4.9 61 0 113.5-4.2 153.5-8.9 83-9.8 158.1-27.6 200.9-47.5 6.2-2.9 12.4-6.5 11.4-11.7-1.5-7.6-16.8-9.3-51.5-11.2-10.7-.6-23.8-1.4-27.7-2.6 1.1-1 4.8-3.4 17.5-6.4 10-2.3 21.4-4.1 29.7-5.3l2.9-.4c50.9-7.8 99.2-8.8 171.9-6.4-2.8 5.6-5.4 11.3-8.2 16.9zm10.9-24c-74.6-2.5-123.9-1.6-175.9 6.4l-2.9.4c-32 4.9-49.9 8.9-53 16.4-.9 2.2-.5 4.5 1 6.6 2.3 3.1 8.8 3.8 33.2 5.2 13.9.8 39.3 2.3 44.5 5.5-.8.7-2.6 2.1-7 4.1-72.6 33.8-262.3 69.6-470.6 50.3-33.6-40.6-58.8-88.5-72.9-141.2h285.7c-6.7 4.7-13.6 11.1-12.4 17 1.4 6.4 10.1 7.3 16.6 7.4l4.8.1c28.9.7 58.7 1.4 88.2.1l6.9-.3c34.2-1.5 69.5-3.1 103.4-2.5 15.9.3 31.3.5 46.2.6 53.6.5 104.4 1.1 170 8.6-1.7 5.2-3.7 10.3-5.8 15.3zm8.3-22c-66.8-7.7-118.1-8.2-172.3-8.8-14.9-.2-30.3-.3-46.2-.6-34.2-.7-69.6.9-103.9 2.5l-6.9.3c-29.2 1.3-58.9.6-87.7-.1l-4.8-.1c-8.4-.2-9.9-1.9-9.9-1.9-.1-.6 1.1-3.2 6.9-7.8 4.5-3.6 10-6.8 13.5-8.4 11.2-5.3 23-10.5 33.7-12.1 14.4-2.2 28.9-3.5 43-4.7 17-1.5 34.5-3.1 51.9-6.2v.5c59.4-2.5 123.6-16.5 191-41.5 6.5-2.4 13.2-5 19.7-7.5 30.1-11.7 61-23.6 91.9-25.3.3 41.6-6.4 82.5-19.9 121.7z"/><path d="M205.534 194.7c19.3 0 35.1-15.7 35.1-35.1 0-19.3-15.7-35.1-35.1-35.1-19.3 0-35.1 15.7-35.1 35.1 0 19.4 15.7 35.1 35.1 35.1zm0-63.1c15.5 0 28.1 12.6 28.1 28.1 0 15.5-12.6 28.1-28.1 28.1-15.5 0-28.1-12.6-28.1-28.1 0-15.5 12.6-28.1 28.1-28.1z"/></g></svg>