<svg xmlns="http://www.w3.org/2000/svg" viewBox="0 0 758.36317 758.30002"><path d="M688.417 592.5l-11.7.5v-41l25.5-2v21.1c-4.4 7.3-9 14.5-13.8 21.4zm13.8-69.4l-25.5 3v-41l25.5-4zm-25.5-104.4l25.5-5v42l-25.5 4v-24.6z" fill="#ffeb82"/><path d="M648.117 378.3l106.2-19.2c3.3 61.6-8.5 120.5-32 173.2l-20.1-9.3v-42l-25.5 4v-25.4l25.5-4v-42l-25.5 5V435h-28.6v-56.7z" fill="#e0846d"/><path d="M569.417 577.4l91 46 3.5.9c-26.6 30.9-58.1 57.4-93.5 78.4l-1-1.7V577.4zm-.3-181.3l-17-50.9 1.4-1 38.6 54.9s.4.6 1 1.4v43.6c-.1 0-.1.1 0 .1v-.1c2.4-.7 50.9-8.3 54.8-8.9l-78.2 14.2s-.2 0-.5.1c-.1-8.8-.1-44.5-.1-53.4z" fill="#627283"/><ellipse cx="589.6" cy="465.9" rx="11.2" ry="12.9" fill="#ffeb82" transform="translate(-45.983 -46)"/><path d="M554.917 419.9c0-7.1-5-13-11.2-13-6.2 0-11.2 5.8-11.2 13s5 13 11.2 13c6.2 0 11.2-5.9 11.2-13zm133.5 172.6c-7.6 11-15.8 21.6-24.6 31.8l-3.5-.9-91-46-49.2 6.2V396l32-50.9 17 50.9v53.3c.3-.1.5-.1.5-.1l78.2-14.2h28.9v91l25.5-3 20.1 9.3c-6 13.3-12.7 26.2-20.1 38.7v-21l-25.5 2v41l11.7-.5z" fill="#e0846d"/><path d="M754.317 359.1l-106.2 19.2v56.8H647.817c-3.9.6-52.4 8.2-54.8 8.9v-43.6c-.6-.8-1-1.4-1-1.4l-38.6-54.9-1.4 1-32 50.9v78.6c-11.4-8.2-67.6-48.6-72.2-51.9-.2-.1-.3-.2-.3-.2v.2l-68.5 8.4v-41.9l-54-11.5.2-.8c169.7-36.8 215.1-102.9 177.3-145.8 4.6 4.5 10.1 7.6 17.9 8 21.6 1.2 41.1-12.5 62.5-14 12.2-.9 24.2 2.5 38.2 13.6 15.2 11.8 30.9 23.5 48.2 33.9 23.2 13.9 49.3 18.8 75.7 21.3 5 21.1 8.1 42.9 9.3 65.2z" fill="#817a74"/><path d="M489.417 587.4v92l-41.6 2-.1-2V422.8h.3c4.5 3.2 60.8 43.7 72.2 51.9v108.9l-30.8 3.8z" fill="#627283"/><path d="M569.417 577.4V701l1 1.7c-50.4 29.8-108.6 48.3-171.1 51.6-20 1.1-39.8.5-59.1-1.4v-66.5l107.6-5 41.6-2v-92l30.7-3.8 49.3-6.2z" fill="#e0846d"/><path fill="#e0846d" d="M340.117 686.4v-130l-55.1-5.1.1-1.2V442.7l94.1-11.5 68.5-8.4v256.6l.1 1.9z"/><path fill="#3f5165" d="M359.917 423.8l-20.9-3v-24.7l20.9 4z"/><path d="M621.117 238.7c-14-11-26-14.4-38.2-13.6-21.3 1.5-40.9 15.2-62.5 14-7.8-.4-13.4-3.5-17.9-8-9.6-9.4-14.7-24.7-27-33-2.2-1.5-4.7-2.8-7.4-3.8-26.5-9.5-56.7-8.2-82.5 3-5.4 2.4-10.7 5.2-15.7 8.4-20.6 13.4-42.3 37.1-62.7 30.8l-.5-.6c6.8-6.1 13.5-12.3 20.1-18.2 11.9-10.7 23.5-20.5 34.6-27.7 4.6-3 9.2-5.6 13.6-7.5 14-6.1 33.4-10.8 48.6-13.5 28.8-5.1 80.8-4.3 107 8 34.5 16.4 61.8 39.4 90.5 61.7z" fill="#fbe2c7"/><path d="M315.117 628.4l-38.4-2v53h38.4v-51zm25 58v66.5c-68.1-7-131.3-32.4-184-71.4l1.5-2.1v-140l49.2 4.6 78.1 7.3 55.1 5.1v130z" fill="#627283"/><path fill="#3f5165" d="M315.117 679.4h-38.3v-53l38.3 2zm-2.1-288.2V418l-23.9-3v-27.8zm-54 19.7l-26.9-4v-30.7l26.9 5z"/><path d="M289.117 415l23.9 3v-26.7l-23.9-4V415zm-57-38.8v30.7l26.9 4v-29.7l-26.9-5zm106.9 19.9v24.7l20.9 3v-23.7l-20.9-4zm40.2 35.1l-94.1 11.5v107.4l-.1 1.2-78.1-7.3V352.3l118.1 25.4 54.2 11.6v41.9z" fill="#627283"/><path d="M226.917 210.7c42.2-17.8 88.9-24.9 134.5-20.7-11.1 7.2-22.7 17-34.6 27.7l-.7-.8c-55.1 3.4-97 55.4-153.6 50.3-2.5-.2-5.1-.6-7.2-2-11.6-8.1 15.7-24.8 25.1-33 1.1-.8 2.2-1.5 3.2-2.2 10.5-7.4 21.3-14.3 33.3-19.3z" fill="#fbe2c7"/><path d="M156.117 681.5c-17.2-12.7-33.3-26.9-48.1-42.3l.1-.1v-37.7l29.9-37.3 19.8-24.7v140l-1.7 2.1z" fill="#e0846d"/><path d="M369.917 205.7c5-3.2 10.2-6 15.7-8.4 25.8-11.2 56-12.6 82.5-3 2.8 1 5.2 2.3 7.4 3.8 12.3 8.4 17.4 23.7 27 33 37.8 42.9-7.6 109-177.3 145.7l-.2.8-118.1-25.4-69.9 74.4-51.2-6v-77l-78.7-16.2c1.5-10.5 3.4-21 5.7-31.2 9.4-5.6 24.7-14.5 41.4-23.9l.4.7c33.3-18.2 76.9-30.3 115.6-26.5 6.8-4.7 13.4-9.5 20.1-14.3-9.5 8.3-36.7 24.9-25.1 33 2.1 1.4 4.7 1.8 7.2 2 56.6 5.1 98.5-46.9 153.6-50.3l.7.8c-6.6 5.9-13.3 12.1-20.1 18.2l.5.6c20.5 6.3 42.1-17.4 62.8-30.8z" fill="#aa9a8a"/><path fill="#e0846d" d="M206.917 543.6v.4l-49.2-4.6-19.8 24.7-.9-.7V426.6l69.9-74.3z"/><path d="M52.617 565v-95l55.5 9.4v159.7l-.1.1c-21.3-22.3-40-47.2-55.4-74.2z" fill="#627283"/><path d="M170.217 246.5c-38.7-3.8-82.4 8.2-115.6 26.5l-.4-.7c26.4-14.8 56.4-30.6 72.3-36.5 26.1-9.6 53.2-4.5 66.9-6l.1.2c-1.1.7-2.2 1.5-3.2 2.2-6.7 4.8-13.3 9.6-20.1 14.3z" fill="#fbe2c7"/><path d="M52.617 470v95c-9.7-16.9-18-34.7-25-53.2 23.5-12.1 25-41.8 25-41.8z" fill="#e0846d"/><path d="M745.117 293.9c-26.4-2.5-52.6-7.5-75.7-21.3-17.4-10.4-33-22-48.2-33.9-28.7-22.3-56-45.3-90.6-61.6-26.2-12.4-78.2-13.1-107-8-15.2 2.7-34.6 7.4-48.6 13.5-4.5 1.9-9 4.5-13.6 7.5-45.6-4.2-92.3 2.9-134.5 20.7-11.9 5-22.7 11.9-33.3 19.2l-.1-.2c-13.7 1.5-40.9-3.6-66.9 6-15.9 5.9-45.9 21.8-72.3 36.5-16.7 9.3-32 18.2-41.4 23.9 36-159.9 174.6-283 346.3-292.1 184.7-9.9 345.5 115.5 385.9 289.8z" fill="#6c5e93"/><path d="M108.117 479.4l-55.5-9.4s-1.5 29.7-25 41.7c-13.3-35.2-21.4-73-23.5-112.5-1.3-24.4-.2-48.5 3-71.9l78.7 16.2v77l51.2 6v136.8l.9.7-29.9 37.3V479.4z" fill="#627283"/><g fill="#231f20"><path d="M448.948 220.081l6.498 2.604-16.512 41.216-6.498-2.603zm-100.415 14.301l6.175 3.298-24.78 46.398-6.174-3.297zM673.217 463.8l32.5-5.1v-49.2l-32.5 6.4v47.9zm7-42.2l18.5-3.6v34.8l-18.5 2.9v-34.1zm-7 108.4l32.5-3.8V477l-32.5 5.1V530zm7-41.9l18.5-2.9V520l-18.5 2.2v-34.1zm-136.6-84.7c-8.1 0-14.7 7.4-14.7 16.5s6.6 16.5 14.7 16.5 14.7-7.4 14.7-16.5-6.6-16.5-14.7-16.5zm0 25.9c-4.3 0-7.7-4.2-7.7-9.5s3.5-9.5 7.7-9.5 7.7 4.2 7.7 9.5-3.4 9.5-7.7 9.5zm-225 195.8l-45.3-2.4v60.2h45.3v-57.8zm-7 50.8h-31.3v-45.8l31.3 1.6v44.2zm-83-265.9l33.9 5v-36.7l-33.9-6.3v38zm7-29.6l19.9 3.7v22.8l-19.9-3v-23.5zm50 37.6l30.9 3.9v-33.7l-30.9-5.2v35zm7-26.6l16.9 2.8V414l-16.9-2.1v-20.5zm42.9 32.5l27.9 4v-30.7l-27.9-5.3v32zm7-23.6l13.9 2.7v16.8l-13.9-2v-17.5z"/><path d="M757.817 359c-1.1-20.9-3.9-41.3-8.3-61.2-.5-2.4-1.1-4.8-1.6-7.2-40-167.5-190.5-290.6-368.4-290.6-6.8 0-13.7.2-20.6.5-51.1 2.8-100.1 15.5-145.7 37.7-44.1 21.5-83.1 50.9-116 87.6-32.9 36.6-58 78.6-74.7 124.7-8.6 23.7-14.7 48-18.4 72.7-.3 2.3-.7 4.6-1 6.9-2.9 22.8-3.8 45.9-2.6 69.3 2.1 38.7 9.9 75.8 22.6 110.5.8 2.2 1.6 4.4 2.5 6.5 6.6 17.1 14.5 33.7 23.4 49.5 1.7 3 3.4 5.9 5.1 8.8 66.5 110.4 187.4 183.6 324.6 183.6 6.8 0 13.7-.2 20.6-.5 51.1-2.7 100.2-15.4 145.8-37.6 44.1-21.5 83.1-50.9 116-87.6 10.5-11.7 20.2-23.9 29.1-36.7 1.7-2.4 3.3-4.8 4.9-7.2 1.2-1.8 2.3-3.5 3.4-5.3 2.4-3.7 4.7-7.5 7-11.4 12-20.3 22.2-41.8 30.3-64.2 17.4-47.6 24.7-97.7 22-148.8zm-7.2-2.7l-106 19.1v56.7c-4.8.8-14.7 2.3-24.6 3.9-6.9 1.1-13.8 2.2-19 3.1-1.7.3-3.2.5-4.4.8v-40.5l-1.6-2.3-40-56.9-.7.5-1.2-3.6-35.9 57.1h-.6v73.7l-66.9-48.1-.3.5-.1-1.1-66.5 8.1v-40.8l-43.2-9.3c99-23.2 162.9-59.5 176.4-100.4 4-12.2 3.2-24.1-2.2-35.2 2 .5 4.2.9 6.5 1 12.6.7 24.3-3.3 35.7-7.2 9.3-3.2 18.1-6.2 27.2-6.8 13.1-.9 24.9 3.6 38.3 14.8l.1-.1c14.5 11.2 29.6 22.3 46.1 32.2 23 13.8 48.7 18.9 74.7 21.6 4.1 19.2 7 38.9 8.2 59.2zm-161 45.3v40.5l-17 3.1v-51.1h-.5l-11-33.1 28.2 40.1.3.5zm-73 74.8v104l-30.7 3.8V676l-34.7 1.4v-248l65.4 47zm-234.7-35.3h-.3v106.3l-71.2-6.6V356.6l165.3 35.5v36l-94 11.5.2 1.5zm-96.7-200.3c2.8-2.2 5.5-4.2 7.4-5.9 11.2-7.9 22.9-15.6 35.6-20.9 38.5-16.3 80.8-23.5 123-21.1-8.3 6.1-16.7 13.3-25.4 21v-.3c-26.2 1.6-49.5 13.9-72 25.7-26.5 14-51.6 27.2-81.1 24.5-2-.2-4.1-.4-5.5-1.4-1.3-.9-1.3-1.6-1.3-1.9-.1-4.9 12.5-14.5 19.3-19.7zm-80 8.3c8.9-4.4 16.7-8 22.6-10.1 17.6-6.5 35.6-6 50.1-5.6 1.6 0 3.2.1 4.7.1-.5.4-1 .7-1.5 1.1-3.9 2.8-7.7 5.6-11.7 8.3-20.1-1.8-42.2.5-64.2 6.2zm271.2-63.3c16.6-7.2 39-11.7 47.8-13.2 30.4-5.4 81-3.5 104.8 7.7 24.4 11.5 44.8 26.1 65.2 41.9-3.8-.6-7.7-.8-11.6-.5-10.1.7-19.7 4-29 7.2-11.2 3.8-21.9 7.5-33.1 6.9-12.9-.7-18.8-9.8-25.7-20.3-6.1-9.3-12.9-19.8-25.7-24.4-33-11.8-71.8-7.3-101.3 11.8-5.2 3.4-10.5 7.4-15.6 11.3-12.9 9.8-26.2 19.9-38.3 19.9 1.5-1.3 3-2.7 4.5-4 20.7-18.9 40.2-36.6 58-44.3zm-347.4 67c16.4-45.3 41-86.4 73.3-122.4s70.6-64.9 113.9-86c44.8-21.8 92.9-34.3 143.1-36.9 6.7-.4 13.5-.5 20.2-.5 173.8 0 320.8 119.7 361 282.8-24.3-2.6-48.2-7.7-69.4-20.3-21.3-12.7-40.3-27.7-58.7-42.1-24.5-19.2-49.8-39.1-80.4-53.5-27.8-13.1-81.2-13.2-109-8.3-9.1 1.6-32.1 6.2-49.4 13.7-4.3 1.9-8.7 4.3-13.1 7.1-46.1-4-92.8 3.2-135 21-11.8 5-22.5 11.7-32.8 18.8-3.8.4-8.9.2-14.7.1-14.3-.4-33.8-.9-52.7 6.1-23.8 8.9-78.3 39.5-107.3 56.5 3.1-12.1 6.7-24.2 11-36.1zm-13.2 45.6c9.6-5.7 24.2-14.2 40.1-23.1l.4.7c32.7-17.9 70.4-27.6 103.3-26.7-7.5 4.8-15.4 9.1-23.7 12.5l2.6 6.5c7.3-2.9 14.2-6.6 20.8-10.6-.3 1-.4 2-.4 2.9 0 2.1.8 5 4.3 7.5 2.8 1.9 6 2.4 8.9 2.6 2.7.2 5.4.4 8.1.4 28.1 0 52.9-13 76.9-25.7 19.2-10.1 39.1-20.6 60.3-24l-3.6 3.3c-24.7 22.5-50.3 45.7-75.8 54.4l2.3 6.6c22.9-7.8 45.2-26.2 67-45.7 8.3 2.2 16.5.2 24.6-3.8l-26.1 44.3 6 3.5 32.7-55.5c4.1-2.8 8.1-5.9 12.1-9 5-3.8 10.2-7.8 15.2-11 2.1-1.4 4.3-2.7 6.5-3.9l-32 70.5 6.4 2.9 35.5-78.1c6-2.5 12.3-4.5 18.7-5.9l-18.5 45.3 6.5 2.6 20.2-49.5c2.6-.4 5.2-.7 7.9-.8l-29.7 77.3 6.5 2.5 30.7-79.9-.5-.2c12.6-.1 25.1 1.9 36.9 6.1 1.5.6 3 1.2 4.3 2l-22 59.3 6.6 2.4 21.4-57.5c4.7 4.2 8.3 9.7 12 15.4 3.3 5.1 6.7 10.2 10.9 14.4 10.9 12.4 14.1 26.6 9.3 41.1-6 18.2-24.1 36.4-52.5 52.6-32.6 18.7-77.1 34.2-132.3 46.1l.1.6-118.9-25.5-70 74.4-46.4-5.4v-76.7l-78.4-16c1.3-8.8 2.9-17.5 4.8-26.2zm33.3 252.8c-6.4-12.2-12.1-24.9-17.2-37.9 8.2-5 13.6-12 17.2-19v56.9zm55.5-1.1v80.4a373.13 373.13 0 0 1-48.5-66.4v-89.8l48.5 8.2v67.6zm-51.4-83.5l-3.9-.6-.2 3.9c0 .1-.7 11.2-6.5 22-3.4 6.3-7.8 11.2-13.1 14.7-12.3-33.8-19.9-69.9-21.9-107.6-1.2-22.7-.4-45.3 2.4-67.5l72.3 14.9v77.2l51.2 6v133.7h.5l-22.4 28V476.4l-58.4-9.8zm101 209.1c-15.1-11.5-29.4-24.2-42.6-37.8v-35.3l42.6-53.3v126.4zm-13.7-120.5V428l62.9-66.8v179l-47.3-4.4-15.6 19.4zm196.1 193.8c-65.8-7.5-126.6-32.1-177.5-69.6h2.1V543.2l175.5 16.3V749zm205.5-35.1c-44.8 21.8-92.9 34.3-143.1 36.9-6.7.4-13.5.5-20.2.5-11.9 0-23.6-.6-35.2-1.7V553.2l-55-5.1V445.8l155.5-19v252.6h2.4l.2 5.2 46.1-1.8v-92.3l73-9.1V701h.4c-7.8 4.6-15.8 8.9-24.1 12.9zm113.9-86c-24.4 27.2-52.3 50.4-83.2 69.2v-114l84.9 42.9c-.5.6-1.1 1.3-1.7 1.9zm42.7-57.7c-3.8 6.4-7.9 12.7-12.1 18.9l-6.4.2v-34.1l18.5-1.5v16.5zm30.6-64.7c-6.6 18.2-14.5 35.6-23.7 52.4v-11.8l-32.5 2.5v47.9l8.3-.3c-6.5 9-13.3 17.7-20.6 26.1l1.1-2.2-92-46.5-46.4 5.8V396.9l27.5-43.8 14.5 43.4v57l83.1-15.1 2.9-.5v-56.8l99.4-17.9c2.2 48.9-5.1 96.7-21.6 142.3z"/></g></svg>