<svg xmlns="http://www.w3.org/2000/svg" viewBox="0 0 758.30172 758.50002"><path d="M638.955 360.6c-2.6-8.9-7.7-18-4.3-21.6 5.5-5.9 7.7-15.5 6.5-25.5-.5-4.2-1.6-8.5-3.3-12.6h108.8c4 18.9 6.6 38.4 7.7 58.2 2.3 42.5-2.6 83.7-13.6 122.5-30.2-5.6-64.6-10.1-99.9-13.2 0-25.8-10.8-38.5-13.6-52.8-1.3-6.4-1-13.1 2.6-21.5 1.2-2.8 2.6-5.4 4-8.1l.2.1c4.7 3.3 10.9 4.6 16.6 3.3.4-.1.7-.2 1-.4 1-.6 1-2.1.5-3.1-.6-1-1.6-1.6-2.6-2.2-1.7-1.1-3.5-2.2-4.9-3.6-2.4-2.4-3.9-5.7-4.1-9 .2-3.2-.5-6.8-1.6-10.5z" fill="#749fd4"/><path d="M611.755 275.2c1.9-5.6 5.2-13.4 3.5-18.5-3.1-9.3-22.3-18.3-31-12.1-.8.6-1.5 1.3-2 2.1h-2c-5.9-3-22.5-3.3-28.3-.7-5.9 2.6-10.8 6.9-15.6 11.2-3.9 3.4-7.6 8.5-7.6 11.3 0 12.9 11.7 21 25.8 29.6 1.3.8 2.7 1.6 4 2.5l-.4.6h-109.3l-.1.7c-2.9-.5-5.7-1.1-8.5-1.6-14.1-2.9-28.3-5.4-42.2-9.4-9.5-2.7-18.8-6.6-28.6-7.9-19.4-2.5-45.8 8.7-65.4 8.8-20.2-16-46.9-54.6-67.3-42.6-13.4 7.8-35.5 24.4-51 23.3-7.5-.5-13.9-5.3-19.8-9.9-10.1-7.8-15.6-15.6-22.1-23.4v-.1c-3.9-4.7-8.3-9.3-14.4-14-8.4-6.5-17.3-13.2-27.9-14.5-8.6-1.1-17.1 1.6-25.2 4.3-14.6 4.7-33.3 22.9-52.1 41.3 48.6-139.9 177.9-243.6 335-252 187.1-10.1 349.7 118.8 387.4 296.7h-108.8c-2.5-6-6.2-11.6-11.2-16.1l.1-.1c-8.9-5-19.5-7-29.6-5.6-1.8.2-4.2 1.5-3.6 3.2h.8l-1.5 1.2c-1.1 1-1.9 2.1-2.6 3.3l-1.3-1c-4-1-8.3-2-12.6-3.2l.1-.5c-.5-7.4-.5-14.9.8-22.1h.3c7.1 10.3 21.7 15.6 34.2 15.2zm-347.2-157c0-17.4-14.1-31.5-31.5-31.5s-31.5 14.1-31.5 31.5 14.1 31.5 31.5 31.5 31.5-14.1 31.5-31.5z" fill="#b4d3f1"/><path d="M611.455 494.5c10.8 4.9 23.9 9.4 25.6 2.1 2.3-9.4 3.3-17.6 3.6-24.7.1-1.2.1-2.3.1-3.4 35.3 3.1 69.7 7.6 99.9 13.2-30.3 106.9-107 195.2-208 240.5-4.8-18.9-5.4-38.1 1.9-53.6 3.1-6.6 7.5-12.9 9.5-19.8 3.7-12.8-6-21.7-13.2-30.7-20.9-26.2-38.3-54.7-52-84.8-6.2-13.8-19.7-41.2-8.3-53.6 7.5-8.2 33.4-12.8 54.2-14.8 2.8-.3 5.4-.5 7.9-.7l.3-.5c12.2 6.4 25.7 15.8 31.1 9.4.5-2.4.8-5.5.9-8.9l1.8.1c15.2.4 32.8 1.1 48.3 2.2h.7v3.6c-.2 3.2 1.9 9.9-.7 11.9-3.5 2.7-14.2 1.9-13.6 6.3 1 1.4 5.4 4 10.3 6.2h-.3z" fill="#f7c79a"/><path d="M651.955 386c.6 1 .5 2.5-.5 3.1-.3.2-.7.3-1 .4-5.7 1.3-11.8 0-16.6-3.3l-.2-.1c2.1-4 4.4-8 6-12.3.3-.9.5-1.8.7-2.7.2 3.4 1.7 6.6 4.1 9 1.4 1.4 3.2 2.5 4.9 3.6 1 .6 2 1.3 2.6 2.3z" fill="#b4d3f1"/><path d="M641.155 313.5c1.2 10-1 19.6-6.5 25.5-6.6 2.8-14.1 1.7-21.2.6-4.9-.8-9.9-1.6-14.3-4-8.1-4.5-10.6-16.5-10.6-25.7 0-8.8-2.1-16.7 1.7-23.1.7-1.1 1.5-2.2 2.6-3.3 2.1.7 3.6 2.7 4.9 4.6 3.7 5.8 6.7 12.1 8.8 18.7.6 1.8 1.2 3.7 2.8 4.7 1 .6 2.2.6 3.3.7 9.4.4 18.9.9 28.5 1.3z" fill="#85735d"/><path d="M637.855 300.9c1.7 4.1 2.8 8.4 3.3 12.6-9.5-.5-19-.9-28.5-1.4-1.1-.1-2.3-.1-3.3-.7-1.6-.9-2.2-2.9-2.8-4.7-2.1-6.6-5-12.9-8.8-18.7-1.2-1.9-2.7-3.9-4.9-4.6.5-.4.9-.8 1.5-1.2h-.8c-.6-1.8 1.8-3 3.6-3.2 10.1-1.4 20.7.6 29.6 5.6l-.1.1c5 4.6 8.7 10.2 11.2 16.2z" fill="#85735d"/><path d="M640.755 468.4c0 1.1 0 2.2-.1 3.4-3.5 2.6-7.1 8-11.7 7.6-4.2-.3-10.2-6.6-13.2-10 .1-1.1.1-2.1 0-3.2-.5-14.9-10.6-29.8-17.4-44.6 9.6-6.9 19.3-11.1 28.7-6 2.9 14.3 13.7 27 13.7 52.8z" fill="#f7c79a"/><path d="M568.955 358.6c.2 0 .4-.1.6-.1 19.4-11.5 53.2-13.4 69.5 2.2 1.1 3.6 1.8 7.2 1.3 10.4-.1.9-.3 1.8-.7 2.7-1.6 4.3-3.8 8.3-6 12.3-1.4 2.7-2.8 5.3-4 8.1-3.6 8.4-3.9 15.1-2.6 21.5-9.4-5.1-19.1-.8-28.7 6-4.7-10.1-7.7-20.2-5.1-30.1l-.1-1.5c-12.4 1.2-26.9-1.5-32.2 8.6l-2.4-1.7c-12.4-6.4-23.9-7.1-29.5-19.9l-.3-.1c.3-.7.7-1.4 1.1-2 1.7-2.5 4.4-4.2 7-5.7 11.3-6.4 19.7-8.4 32.1-10.7zm42.7 135.6c-4.9-2.2-9.3-4.8-10.3-6.2-.5-4.3 10.2-3.6 13.6-6.3 2.6-2 .5-8.7.7-11.9v-.4c3.1 3.4 9 9.7 13.2 10 4.6.3 8.2-5 11.7-7.6-.3 7.2-1.3 15.3-3.6 24.7-1.7 7.3-14.8 2.8-25.6-2.1l.3-.2z" fill="#85735d"/><path d="M580.155 246.5h2c-1 1.3-1.7 2.9-2.3 4.4-.2.5-.4 1-.5 1.5l-.2-.1c-17.3 2.7-17.1-.3-20.4 3.5-3.3 3.9-10.6 12.9-2.8 18 5.8 3.8 13 6.5 20.3 8.6 4.3 1.2 8.6 2.3 12.6 3.2l1.3 1c-3.8 6.4-1.7 14.4-1.7 23.1 0 9.2 2.5 21.2 10.6 25.7 4.4 2.4 9.4 3.2 14.3 4 7.1 1.1 14.6 2.2 21.2-.6-3.4 3.6 1.7 12.6 4.3 21.6-16.3-15.6-50.1-13.7-69.5-2.2-.2 0-.4.1-.6.1 6.3-3.6 7.9-9.6 9.4-17.2 1.3-6.4.3-16.1-1.7-22.3-2.8-8.5-10.5-13.9-18.2-18.8-1.4-.8-2.7-1.7-4-2.5-14.1-8.6-25.8-16.7-25.8-29.6 0-2.8 3.7-7.9 7.6-11.3 4.8-4.2 9.7-8.6 15.6-11.2 5.9-2.2 22.6-1.8 28.5 1.1z" fill="#f4b072"/><path d="M598.355 421.7c6.8 14.8 16.9 29.7 17.4 44.6h-.7c-15.5-1-33.1-1.8-48.3-2.2l-1.8-.1c.1-5.5-.3-11.8-.8-17.8-.5-5.2-1-10.2-1.5-14-.8-7.2-5-27.1-1.6-33.5 5.3-10.1 19.8-7.4 32.2-8.6l.1 1.5c-2.7 9.9.4 20 5 30.1z" fill="#749fd4"/><path d="M615.255 256.6c1.8 5.2-1.6 12.9-3.5 18.5-12.5.4-27-4.8-34.1-15.1h-.3c.5-2.5 1.1-5.1 2-7.6.2-.5.4-1 .5-1.5.6-1.5 1.3-3.1 2.3-4.4.6-.8 1.2-1.5 2-2.1 8.8-6.1 27.9 2.9 31.1 12.2z" fill="#f4b072"/><path d="M579.155 252.4l.2.1c-.9 2.5-1.5 5-2 7.6-1.4 7.2-1.3 14.6-.8 22.1l-.1.5c-7.2-2.1-14.4-4.8-20.3-8.6-7.8-5.2-.6-14.2 2.8-18 3.1-4 2.9-1 20.2-3.7z" fill="#b4d3f1"/><path d="M576.655 319c2 6.2 2.9 15.9 1.7 22.3-1.5 7.6-3.1 13.6-9.4 17.2-12.4 2.4-20.8 4.3-32 10.8-2.7 1.5-5.3 3.2-7 5.7-.4.6-.8 1.3-1.1 2-1.1 2.4-1.5 5.1-1.8 7.8-1.6 14 7.1 28.6 10.1 42.4 1.2 5.7 2.9 11.5 2.9 17.3 0 1 0 2.1-.2 3.1-.7 5.7-14.4 4.3-15.2 11.9 0 .1.1.3.2.3 2.6.9 5.3 2.2 8.1 3.7l-.3.5c-2.5.2-5.2.4-7.9.7l-.1-1c-7.8.1-15.5.3-23 .6-3.1.1-6.9.5-11 1.2-33.4-.5-59.1-6.1-88.1-17-20.1-7.5-42.2-12.5-45.4-30.3-3.8-20.9 24.2-35.7 48.9-41 23.9-5.1 90.1-10.3 73.3-20.4-37.8-15.9-76.9-22.5-114-35h113.4c1.7 0 6-.2 6-.2 2-1.5 1.5-5 .2-6.9-1-1.4-2.5-2.4-4-3.3-9.8-5.7-21.1-7.9-32.2-9.9l.1-.7h109.2l.4-.6c7.7 4.9 15.5 10.3 18.2 18.8z" fill="#749fd4"/><path d="M564.055 446.3c.5 6 .9 12.4.8 17.8-.1 3.4-.3 6.5-.9 8.9-5.4 6.4-18.9-3-31.1-9.4-2.8-1.5-5.5-2.8-8.1-3.7-.1-.1-.2-.2-.2-.3.8-7.7 14.5-6.2 15.2-11.9.1-1 .2-2.1.2-3.1h.2c3 1.8 9.2 7.8 12.6 7 2.5-.6 9.4-3.3 11.1-5.2l.2-.1z" fill="#85735d"/><path d="M564.055 446.3h-.2c-1.7 1.9-8.7 4.5-11.1 5.2-3.4.8-9.6-5.2-12.6-7h-.2c0-5.8-1.6-11.6-2.9-17.3-3-13.8-11.7-28.4-10.1-42.4.3-2.7.7-5.4 1.8-7.8l.3.1c5.6 12.8 17.1 13.5 29.5 19.9l2.4 1.7c-3.4 6.4.8 26.3 1.6 33.5.5 3.9 1.1 8.8 1.5 14.1z" fill="#f7c79a"/><path d="M490.755 465.6c4.1-.6 7.8-1 11-1.2 7.5-.3 15.1-.5 23-.6l.1 1c-20.8 2-46.7 6.6-54.2 14.8-11.4 12.4 2 39.9 8.3 53.6 13.7 30.1 31.2 58.6 52 84.8 7.2 9 16.9 17.8 13.2 30.7-2 6.9-6.4 13.2-9.5 19.8-7.3 15.5-6.7 34.7-1.9 53.6-30.1 13.5-62.3 23.1-96.1 28.3l-.4-2.2c-13.7-27.9-39.2-49.6-68.5-59.6l7.1-.2c3.9-20 12.7-43.4 34.1-51 1.6-.6 3.3-1 4.9-1.5 3.6-1.1 7.2-2.3 9.9-4.8 5.1-4.8 4.4-12.1 3.5-18.4-1.2-8.1-2-16.3-2.4-24.6-1.2-25.2 1-50.8 6.8-76.1 3.1-13.4 8.4-28.4 21.8-35.6 8.8-4.6 24.5-8.8 37.3-10.8z" fill="#ea7f85"/><path d="M485.055 314.8c1.3 1.8 1.8 5.4-.2 6.9 0 0-4.3.2-6 .2h-113.4c-20.2-6.8-39.8-15.3-58.3-28.1-1-.7-2.1-1.5-3.1-2.3 19.6-.1 46-11.4 65.4-8.8 9.8 1.3 19.1 5.2 28.6 7.9 13.9 3.9 28.1 6.5 42.2 9.4 2.8.6 5.6 1.1 8.5 1.6 11.1 2.1 22.4 4.2 32.2 9.9 1.5.9 3 1.9 4.1 3.3z" fill="#7790a6"/><path d="M143.855 238.9c6.6 7.8 12 15.6 22.1 23.4 5.9 4.6 12.4 9.3 19.8 9.9 15.5 1.1 37.6-15.5 51-23.3 20.4-11.9 47.1 26.6 67.3 42.6 1 .8 2.1 1.6 3.1 2.3 18.5 12.7 38.1 21.3 58.3 28.1 37.1 12.5 76.2 19.1 114 35 16.8 10.2-49.5 15.3-73.3 20.4-24.7 5.3-52.7 20.1-48.9 41 3.2 17.8 25.2 22.8 45.4 30.3 29 10.9 54.7 16.5 88.1 17-12.8 2-28.5 6.1-37.3 10.8-13.4 7.2-18.8 22.2-21.8 35.6-5.8 25.3-8 50.9-6.8 76.1l-2.1.1c-92.9-81.6-230.6-118.5-359.8-102.1-14 1.8-27.9 4.2-41.6 7.2-9.5-29.9-15.4-61.5-17.2-94.2-2.7-50.1 4.6-98.5 20.1-143.2 18.8-18.4 37.6-36.6 52.1-41.3 8.2-2.6 16.7-5.3 25.2-4.3 10.5 1.3 19.5 8 27.9 14.5 6 4.8 10.4 9.4 14.4 14.1z" fill="#7e925f"/><path d="M436.255 748.3l.4 2.2c-12.3 1.9-24.7 3.2-37.4 3.8-126.1 6.7-240.9-49.5-314-141.2 28.6-.1 57.2 4.4 84.4 13.2 20.6 6.6 40.3 15.7 58.7 27.1 15.2 9.4 29.7 20.5 46.9 25.4 16.7 4.8 34.2 3.5 51.7 3.6 5.2 0 10.3.2 15.4.7 8.7.9 17.2 2.8 25.4 5.6 29.3 10 54.7 31.7 68.5 59.6z" fill="#5e7638"/><path d="M427.155 612.8c.9 6.2 1.6 13.5-3.5 18.4-2.6 2.5-6.2 3.7-9.9 4.8l-.4-1.8c-80.8-94.8-215.8-150.9-350.5-147.9 129.3-16.4 266.9 20.5 359.8 102.1l2.1-.1c.4 8.1 1.2 16.3 2.4 24.5z" fill="#ffeb82"/><path d="M413.355 634.1l.4 1.8c-1.7.5-3.3 1-4.9 1.5-21.4 7.6-30.2 30.9-34.1 51l-7.1.2c-8.2-2.8-16.8-4.7-25.4-5.6-5.1-.5-10.3-.7-15.4-.7v-.1c-54.2-96.5-182.5-206.5-302.3-179l-3.3-9.9c13.7-3 27.6-5.5 41.6-7.2 134.7-2.8 269.7 53.2 350.5 148z" fill="#749fd4"/><path d="M326.855 682.3c-17.4 0-35 1.3-51.7-3.5-17.1-5-31.7-16-46.9-25.4-18.3-11.4-38.1-20.4-58.7-27.1-21.1-44.2-89-105.8-140.6-110.9-1.5-4-3-8-4.4-12 119.8-27.6 248.1 82.4 302.3 178.9z" fill="#749fd4"/><path d="M233.055 86.7c17.4 0 31.5 14.1 31.5 31.5s-14.1 31.5-31.5 31.5-31.5-14.1-31.5-31.5 14.1-31.5 31.5-31.5z" fill="#ffeb82"/><path d="M28.955 515.4c51.7 5.2 119.6 66.7 140.6 110.9-27.2-8.8-55.8-13.3-84.4-13.2-23.3-29.2-42.4-62.1-56.2-97.7z" fill="#749fd4"/><g fill="#231f20"><path d="M757.755 359c-10.7-201.3-176.9-359-378.3-359-6.8 0-13.7.2-20.6.5-51.1 2.8-100.1 15.5-145.7 37.7-44.1 21.5-83.1 50.9-116 87.6-32.9 36.6-58 78.6-74.7 124.7-.4 1.2-.9 2.4-1.3 3.7-1.7 4.8-3.2 9.6-4.7 14.4-12.9 42.3-18.3 86.2-15.9 130.9 1.7 31.7 7.3 62.4 16.2 91.5.7 2.2 1.4 4.5 2.1 6.7.4 1.1.7 2.2 1.1 3.3.8 2.2 1.5 4.4 2.3 6.6.5 1.4 1 2.8 1.5 4.1.9 2.4 1.8 4.7 2.7 7.1 13 32.9 30.4 63.5 51.6 91.1l5.4 6.9c69.6 86.6 176.3 141.7 295.4 141.7 6.8 0 13.7-.2 20.6-.5 45.5-2.6 89.5-13 130.9-31 2.1-.9 4.3-1.9 6.4-2.9 2.8-1.3 5.6-2.6 8.4-4 44.1-21.5 83.1-50.9 116-87.6 32.9-36.7 58-78.6 74.7-124.7 17.3-47.6 24.6-97.7 21.9-148.8zm-655.4-228.5c32.3-36 70.6-64.9 113.9-86 44.8-21.8 92.9-34.3 143.1-36.9 6.7-.4 13.5-.5 20.2-.5 176.4-.1 325.3 123.3 362.7 290.3h-102.2c-2.6-5.6-6.3-10.7-10.7-14.8l.2-.3c-4.5-2.7-9.5-4.7-14.6-5.8.3-.8.6-1.6.9-2.5 2-5.7 4.5-12.8 2.6-18.4-2.4-7.1-10.9-12.6-18.2-15-7.3-2.4-13.7-2-18.1 1.2-.6.4-1.1.8-1.5 1.3-7.3-2.9-23.7-3.2-30.2-.4-6.4 2.8-11.8 7.6-16.5 11.7-3.3 2.9-8.8 9-8.8 13.9 0 12.8 9.6 21.1 22 29.2h-98.3v.7c-2.6-.5-5.3-1-7.9-1.5-3-.6-6.1-1.2-9.1-1.8-10.8-2.2-22.1-4.4-32.8-7.5-3-.8-6-1.8-8.9-2.8-6.5-2.1-13.2-4.3-20.2-5.2-11.5-1.5-24.9 1.5-37.9 4.4-9.6 2.1-18.8 4.1-26.7 4.4-4.9-4-10.3-9.5-16-15.1-17.3-17.4-37-37.1-54.3-27-2.6 1.5-5.6 3.4-8.8 5.4-12.2 7.7-28.9 18.2-40.2 17.4-6.7-.5-12.9-5.3-17.9-9.1-7.8-6-12.6-11.9-17.7-18.2-1.2-1.5-2.5-3.1-3.8-4.6-1.1-1.4-2.2-2.9-3.4-4.3l-.2.2c-3.2-3.5-6.9-7-11.4-10.5-7.9-6.1-17.8-13.7-29.6-15.2-9.5-1.2-18.6 1.8-26.7 4.4-12.4 4-26.9 16.5-42.4 31.3 16.2-41.5 39.5-79.2 69.4-112.4zm535.5 186.5c.3 7.8-1.6 14.7-5.3 19.1-5.3 1.9-11.3 1.2-18.6.1-4.6-.7-9.3-1.5-13.2-3.6-6.5-3.6-8.8-14-8.8-22.6 0-2.5-.2-4.9-.3-7.2-.4-6.5-.6-11 1.7-14.5.5.6.9 1.2 1.3 1.8 3.6 5.6 6.4 11.6 8.4 17.9.7 2.1 1.6 5 4.4 6.6 1.7 1 3.6 1.1 4.9 1.2l25.5 1.2c0-.1 0 0 0 0zm-31 170.8c.8-.2 1.8-.4 2.5-.5 2.9-.6 5.8-1.2 7.8-2.7 1.9-1.5 2.6-3.7 2.7-6.1 3 2.5 6 4.4 8.9 4.6h.7c2.7 0 5.1-1.2 7.1-2.8-.6 4.7-1.5 9.9-2.8 15.5-.1.5-.3.7-.6.8-1.5.7-5.6.9-16.9-3.9l.1-.3c-3.9-1.6-7.3-3.3-9.5-4.6zm-38.5-27.1c-.1-9.9-1.5-21.5-2.3-28.8-.2-1.5-.5-3.5-.8-5.8-1.1-7-3.3-21.5-1.2-25.6 2.9-5.6 9.6-6.1 20.3-6.3 1.6 0 3.3-.1 4.9-.1-2.2 13.8 4.8 27.4 11.6 40.6 4.8 9.3 9.7 18.9 11.1 28.1-13.2-1-28.5-1.7-43.6-2.1zm-7.6 10.5c-3.2 2-12.4-3.1-19.8-7.2-3.8-2.1-7.8-4.3-11.6-6 1.1-.7 2.7-1.4 4.8-2.1 3-1.1 6.7-2.4 8.3-5.3 3.1 2.3 6.4 4.5 9.6 4.5.5 0 1-.1 1.5-.2 1.1-.3 4.4-1.4 7.4-2.8.5 7.2.7 14.4-.2 19.1zm-79.5-117.3l-.5-.2c-22.9-9.7-46.5-16-69.3-22.1-7.7-2.1-15.3-4.1-22.8-6.2h90c1.8 0 6.1-.2 6.2-.3l1.1-.1.8-.6c3.6-2.7 3.4-8.3.9-11.7-1.4-2-3.4-3.3-5.1-4.3-2.8-1.6-5.7-3-8.7-4.1h84v-.2c6.8 4.3 13.1 9.1 15.3 15.9 2 6 2.6 15.1 1.6 20.5-1.5 7.8-3 12-7.3 14.6-12.4 2.3-21 4.4-32.5 11-2.8 1.6-6 3.6-8.2 6.8-2.5 3.6-3.1 7.7-3.5 11.4-1.1 9.9 2.4 19.7 5.7 29.2 1.8 5 3.4 9.7 4.4 14.3.2 1.1.5 2.2.7 3.3 1.3 5.6 2.5 10.9 1.9 16-.4.6-2.9 1.6-4.5 2.1-4.3 1.5-10.1 3.6-10.7 9.9 0 .4 0 .8.1 1.2-6.7.1-13.3.3-19.6.6-3.2.1-7 .5-11.1 1.2-31-.5-56.5-5.5-86.6-16.8-2.9-1.1-5.9-2.1-8.7-3.1-16.5-5.8-32-11.2-34.4-24.5-1.5-8.2 2.7-15.9 12.4-22.9 8.5-6.2 20.8-11.3 33.8-14.1 6.2-1.3 15.4-2.7 25.2-4.1 36-5.3 52-8.3 53.4-15.5.7-1.8.2-4.6-4-7.2zm-167.1-59.7c6.3-.9 12.9-2.3 19.4-3.8 12.4-2.8 25.2-5.6 35.5-4.3 6.4.8 12.5 2.8 19 5 3 1 6.1 2 9.1 2.9 11 3.1 22.4 5.4 33.4 7.6l9 1.8c2.7.6 5.5 1.1 8.2 1.6 10.9 2 22.1 4.1 31.5 9.6 1.1.7 2.3 1.4 2.9 2.3.3.4.4.9.5 1.4-1.4.1-3 .1-3.9.1h-112.7c-18-6.1-35.4-13.5-51.9-24.2zm244.2 132.9c.3 2.2.6 4.2.8 5.6.4 3.1.8 7.3 1.3 11.8-2 1.2-6.2 2.9-8.4 3.5-1.4-.1-5.1-2.9-6.7-4.1-.7-.5-1.3-1-1.9-1.4-.2-4.4-1.2-8.6-2.2-12.8-.2-1.1-.5-2.1-.7-3.2-1.1-5-2.9-10.2-4.7-15.1-3-8.6-6.2-17.4-5.4-25.5 4.7 5.3 10.8 7.8 17.2 10.3 3 1.2 6.1 2.4 9.2 4-1.5 6.2-.2 16.3 1.5 26.9zm-33.5 32.8l1.2-3.3-1.2 3.3zm112.4 10.3c-.7.6-1.3 1.2-1.9 1.8-2 2-4.3 4.2-6.1 4-1.8-.1-5.2-2.8-9.9-7.8.3-12.6-6.1-25-12.2-36.9-1.5-2.8-2.9-5.6-4.2-8.4 8.8-5.8 15.4-7.3 21.2-4.8 1.1 4.6 2.9 9 4.9 13.7 4 10.1 8.5 21.3 8.2 38.4zm-10.8-77.4c-2.8 6.6-3.8 12.4-3.5 17.6-8.2-1.8-16.2 1.7-23 6-3.3-8-5.2-15.7-3.4-23.2 2.8-.4 5.5-1.1 8-2.3 9.3-4.3 18.8-9.6 22.7-22l-6.7-2.1c-2.8 8.8-9.1 13.2-19 17.7-4.7 2.2-11.2 2.3-17.4 2.5-8.7.2-18.4.4-24.1 6.9-3.4-1.7-6.7-3.1-9.8-4.3-8-3.2-13.8-5.5-17.4-12.6 1.4-1.9 3.6-3.3 5.8-4.6 10.5-6 18.1-7.9 29.9-10.1l.2.4c.5-.2.9-.4 1.4-.7.3-.1.6-.1 1-.2l-.1-.3c.1 0 .1-.1.2-.1l.1.2c22.1-13.1 51.9-10.2 64.6 1.1 1 3.7 1.5 7.3.5 10-1.4 3.7-3.2 7.1-5.2 10.8-1.7 2.9-3.4 6-4.8 9.3zm13.9-12c.5.6 1 1.3 1.6 1.8 1.6 1.6 3.3 2.8 5.1 3.8-3 .2-6-.4-8.7-1.7.7-1.3 1.4-2.6 2-3.9zm-34.9-34.9h-.3c-8.6 0-17.5 1.5-25.4 4.1.9-2.5 1.5-5.2 2-8 1.3-6.6.5-16.9-1.8-24.1-3.5-10.7-13.6-16.9-22.5-22.3l-1.3-.8c-13.7-8.4-24.1-15.6-24.1-26.6 0-1.1 2.3-5.1 6.4-8.7 4.2-3.7 8.5-7.5 13.3-9.9v.1c.6-.1 1.4.1 2.2.7 1 .7 1.9 1.9 2.2 3l-.2.2c-3.4 4-7.8 9.9-7 15.8.3 2.1 1.4 5 5 7.4 8.8 5.8 20.3 9.1 31.5 11.8-1.5 4.6-1.2 9.7-.9 14.6.1 2.2.3 4.4.3 6.7 0 5.1.9 22.4 12.4 28.8 4.9 2.7 10.5 3.6 15.4 4.4 3.6.6 7.8 1.2 12 1.2 1.7 0 3.5-.1 5.3-.4.3 2.4 1.1 5 2 7.8-7.2-3.7-16.3-5.8-26.5-5.8zm31.5-36.1l-24.2-1.2c-.5 0-1.5-.1-1.7-.2-.4-.3-.9-1.8-1.2-2.7-2.2-6.9-5.3-13.5-9.2-19.5-.8-1.3-1.8-2.6-3-3.8 9.2-1.2 18.5.5 26.7 4.8l-.1.1c6.3 5.8 10.8 13.9 12.7 22.5zm-47.8-27.5c-3.1-.7-6.3-1.5-9.4-2.4-.2-3.8-.3-7.9 0-12.1 4.2 3.8 9.4 6.5 14.7 8.3-1.5.5-3 1.5-3.9 2.9-.5.8-.7 1.6-.8 2.5-.1.2-.3.5-.6.8zm-27.7-24.1c.6-.7.8-.8.8-.8.3-.1 1.4-.1 2.4-.1 2 0 5-.1 9.8-.6-1.8 7.3-2 14.6-1.7 21.2-5.4-1.8-10.5-4-14.8-6.8-1.5-1-1.8-1.9-1.9-2.5-.3-2.4 1.5-5.9 5.4-10.4zm34.8 23.2l.5-.3c.1.3.1.5.1.8-.1-.2-.3-.4-.6-.5zm13-9.9v.1c-11.2-.3-22.4-5.3-28.1-12.8.5-2.2 1.2-4.5 2-6.7.7-1.8 1.6-3.9 3.1-4.9 2.5-1.8 7-1.9 11.9-.2 6.5 2.1 12.4 6.7 13.8 10.6 1.1 3.5-1.1 9.5-2.7 13.9zm-32.4-22.3c-6.3.9-9.8 1-12.2 1-.7 0-1.4 0-2 .1-.4-.9-.9-1.8-1.5-2.6 5.5-.3 12 .2 15.8 1.4-.1 0-.1 0-.1.1zM7.555 399.1c-2.6-48.3 4-95.8 19.7-141.1 18-17.7 36.5-35.5 50.2-39.9 7.4-2.4 15.8-5.1 23.7-4.1 9.9 1.2 18.5 7.9 26.2 13.8 5.8 4.5 10 8.9 13.9 13.5 7.4 9.5 13.9 19.1 20.6 29.2 25.9 38.4 52.6 78 136.6 125.3l3.4-6.1c-80.4-45.3-107.4-83.5-132.3-120.3 4.6 3.2 10 6 16.1 6.4 13.6.9 30.7-9.8 44.5-18.5 3.1-1.9 6-3.8 8.5-5.3 12.7-7.4 30.3 10.3 45.8 25.9 7.4 7.4 14.4 14.5 20.9 18.9 32.5 22.4 69.1 32.2 104.5 41.7 22.5 6 45.7 12.2 68.2 21.7h.1c-5.9 3.7-32.2 7.5-46.8 9.6-9.9 1.4-19.3 2.8-25.7 4.2-13.9 3-27.2 8.5-36.5 15.2-11.9 8.6-17.1 18.9-15.2 29.8 3.1 17.3 21.4 23.7 39 29.9 2.8 1 5.8 2 8.6 3.1 22.8 8.5 43 13.5 64.7 15.8-5.5 1.7-10.6 3.7-14.3 5.7-15.1 8.1-20.5 24.5-23.6 37.9-5.4 23.7-7.8 47.5-7.1 71-92.8-79.1-228.9-116.1-358.7-99.6-2.7.1-5.4.1-8.2.2v.9c-10.3 1.5-20.5 3.3-30.7 5.5-8.9-28.8-14.5-59-16.1-90.3zm416.1 214.2c.9 6.1 1.3 11.8-2.4 15.4-1.4 1.3-3.3 2.3-5.4 3-40.7-47.7-96-86.7-160-112.9-40.7-16.8-83.9-27.8-127.5-32.9 108.7 1 215.8 38.2 292 105.1l1-1.2c.4 7.8 1.2 15.7 2.3 23.5zm-397.9-117.2c12.3-2.6 24.7-4.7 37.2-6.3 64.5-1.4 130.1 10.8 190.3 35.4 61.9 25.4 115.6 62.9 155.4 108.7-.3.1-.5.2-.8.3-18.1 6.4-30.3 24-36.1 52.2-9.3-3.5-19.1-5.8-29-6.8-4.5-.5-9.1-.6-13.7-.7-30.1-53-79-104.6-131.2-138.5-72.2-46.9-131.1-49.5-170.9-41.2-.5-1-.9-2.1-1.2-3.1zm3.4 9.8c38.4-7.8 95-4.9 164.8 40.4 50.1 32.6 97.2 81.8 126.9 132.6h-4.3c-14.1.1-27.5.2-40.4-3.5-13.1-3.8-25-11.5-36.5-19-3.1-2-6.3-4.1-9.5-6.1-18.1-11.2-37.7-20.2-58-26.9-12.5-25.4-39.9-56.1-70.1-78.6-30.1-22.4-53.7-30.6-70.6-32.7-.8-2-1.6-4.1-2.3-6.2zm5.3 13.8c46.4 8.2 104.9 59.8 128.2 100.9-24.6-7.1-50.2-10.8-75.8-10.9-21.4-27.2-39.2-57.4-52.4-90zm364.6 231.1c-6.7.4-13.5.5-20.2.5-114.8 0-217.9-52.2-286.2-134.6 47.1 1.3 94 14.9 133.8 39.6 3.1 1.9 6.3 4 9.4 6 11.9 7.7 24.3 15.7 38.3 19.8 13.9 4 28.4 3.9 42.4 3.8 8.4-.1 17-.2 25.3.7 37.5 3.7 72.6 27.6 90 61-10.8 1.6-21.8 2.6-32.8 3.2zm40.2-4.3c-12.6-25.5-34.9-46-61-57.4 5.2-26.4 15.9-42.7 31.8-48.3 1.2-.4 2.5-.8 3.8-1.2 4.3-1.3 8.7-2.6 12.2-5.9 6.7-6.4 5.4-15.8 4.6-21.4-4.7-32.7-3.2-66.1 4.4-99.4 2.7-11.9 7.5-26.5 20.1-33.3 4.7-2.6 11.8-5 19.3-6.9-2.6 1.4-4.8 2.9-6.4 4.6-12.4 13.5-.5 39.7 6.7 55.3l1 2.1c13.8 30.4 31.5 59.2 52.5 85.6 1 1.3 2.1 2.5 3.1 3.8 6.2 7.4 12.1 14.4 9.4 23.7-1.2 4.1-3.3 8.1-5.6 12.2-1.2 2.3-2.5 4.6-3.7 7-8 16.9-6.6 36.6-2.8 53.1-28.7 12.6-58.6 21.4-89.4 26.4zm290.1-241c-16.4 45.3-41 86.4-73.3 122.4s-70.6 64.9-113.9 86c-2.4 1.1-4.7 2.3-7.1 3.4-3.7-16.9-3.7-33.6 2.7-47.2 1-2.2 2.2-4.4 3.5-6.6 2.4-4.3 4.8-8.8 6.2-13.6 3.7-12.8-4-22-10.8-30.1-1-1.2-2.1-2.5-3-3.7-20.7-26-38-54.3-51.6-84.1l-1-2.1c-6-13.1-17.2-37.6-7.9-47.7 6.8-7.4 35-12.6 59.8-14.4v-.1c1.6.8 3.1 1.7 4.7 2.6 7.6 4.2 15.3 8.5 21.5 8.5 2.9 0 5.5-1 7.6-3.4l.6-.7.2-.8c.4-1.8.7-3.8.8-6.1 15.3.4 30.8 1.1 44 1.9-.1 1.4.1 2.9.3 4.5.2 1.4.5 4 .2 4.9-.9.5-3.1 1-4.8 1.3-4.3.9-10.7 2.2-10 8l.1.9.5.7c1 1.4 3.3 3 5.9 4.4l-.2.4c12.5 6.1 21 9 26.9 9 2 0 3.7-.3 5.1-1 2.3-1.1 3.8-3 4.4-5.5 2.3-9.5 3.4-17.8 3.7-25.2 32.8 3 64.4 7.2 92.1 12.2-2.4 7.2-4.7 14.3-7.2 21.2zm8.8-27.8c-28.2-5.1-60.5-9.4-94-12.4-.5-15.8-5-26.7-8.8-36.1-4.8-11.7-8.2-20.1-2.5-33.6.7-1.6 1.4-3.1 2.2-4.6 3.4 1.7 7.1 2.5 10.9 2.5 1.8 0 3.5-.2 5.2-.6.6-.1 1.4-.4 2.2-.9 2.4-1.6 3.1-5.1 1.6-7.8-1-1.8-2.6-2.7-3.8-3.5-1.6-1-3.1-1.9-4.3-3.1-1.7-1.7-2.9-4.1-3.1-6.6.6-6.1-1.8-12.8-4-18.8-1.2-3.2-3.6-9.8-2.6-10.8 5.3-5.7 8.1-14.7 7.7-24.7-.2-4.2-.9-8.3-2.1-12.3h101c3.6 17.9 6 36.2 7 54.9 2.2 40.3-2.1 80-12.6 118.4z"/><path d="M233.055 153.2c19.3 0 35-15.7 35-35s-15.7-35-35-35-35 15.7-35 35 15.7 35 35 35zm0-63c15.4 0 28 12.6 28 28s-12.6 28-28 28-28-12.6-28-28c0-15.5 12.5-28 28-28z"/></g></svg>