<?xml version="1.0" encoding="utf-8"?>
<!-- Generator: Adobe Illustrator 19.2.1, SVG Export Plug-In . SVG Version: 6.00 Build 0)  -->
<svg version="1.1" id="Layer_1" xmlns="http://www.w3.org/2000/svg" xmlns:xlink="http://www.w3.org/1999/xlink" x="0px" y="0px"
	 viewBox="0 0 57 57" style="enable-background:new 0 0 57 57;" xml:space="preserve">
<style type="text/css">
	.st0{fill:#3BB0C9;}
</style>
<g>
	<path class="st0" d="M28.5,0C12.8,0,0,12.8,0,28.5C0,44.2,12.8,57,28.5,57C44.2,57,57,44.2,57,28.5C57,12.8,44.2,0,28.5,0z
		 M34.6,28.5h-4c0,6.4,0,14.2,0,14.2h-5.9c0,0,0-7.8,0-14.2h-2.8v-5h2.8v-3.3c0-2.3,1.1-6,6-6l4.4,0v4.9c0,0-2.7,0-3.2,0
		c-0.5,0-1.3,0.3-1.3,1.4v3h4.5L34.6,28.5z"/>
</g>
</svg>
