<svg id="Layer_1" data-name="Layer 1" xmlns="http://www.w3.org/2000/svg" viewBox="0 0 57 55.76">
    <defs>
        <style>
            .squid {
                fill: currentColor;
            }
        </style>
    </defs>
    <title>gitlab</title>
    <path class="squid" d="M57,28.5A28.5,28.5,0,1,0,20.17,55.76l0-.06a1.47,1.47,0,0,0,1.29-.82V49.23s-3.84.59-5.61-.08-3-1.65-4.35-4.9-3.45-2.67-3.69-3.84,2.27-.67,3.13-0.16a8.88,8.88,0,0,1,2.24,2.16c0.71,0.86,1.69,3.3,5.06,3.3a5.2,5.2,0,0,0,2.31-.08A11.15,11.15,0,0,1,21.86,45a4.64,4.64,0,0,1,1.49-4S11,40.84,10.56,28.21c0,0-.08-5.33,3.06-8.55a13.43,13.43,0,0,1,.08-7.43s3.82-.47,7.79,3a19.3,19.3,0,0,1,6.9-1.15,24.15,24.15,0,0,1,7.48,1.2,13.29,13.29,0,0,1,7.58-3.09,12.45,12.45,0,0,1,.21,7.32,11.54,11.54,0,0,1,3,8.05c0,5.23-1.78,12.5-12.86,13.39,0,0,1.88,2.51,1.88,4.71s-0.1,8.47-.1,8.47a1.76,1.76,0,0,0,1.35,1.61A28.51,28.51,0,0,0,57,28.5Z"
    transform="translate(0)" />
</svg>
